<svg width="403" height="321" viewBox="0 0 403 321" fill="none" xmlns="http://www.w3.org/2000/svg">
<path fill-rule="evenodd" clip-rule="evenodd" d="M386.445 125.804C367.445 133.864 392.005 119.054 381.305 120.804C371.135 121.804 388.085 116.394 370.105 118.504C362.105 119.444 359.725 119.954 370.715 113.374C395.795 98.374 380.195 106.764 381.215 102.534C382.515 97.124 384.215 97.114 376.335 97.084C365.035 97.084 385.545 88.804 386.605 85.634C379.295 87.904 370.915 92.844 379.365 84.194C384.365 79.074 355.885 85.014 353.025 85.344C336.115 87.344 335.715 82.214 353.705 80.244C365.425 78.964 368.255 79.454 379.385 72.864C380.515 72.194 395.045 67.214 388.225 65.544C384.415 64.604 382.225 68.544 378.085 65.054C366.775 55.674 360.905 67.454 350.915 62.144C360.205 49.984 371.605 51.904 357.755 44.204C349.135 39.414 363.535 38.044 358.615 35.734C354.465 33.734 351.895 37.934 350.875 30.614C349.745 22.484 343.065 23.724 335.535 23.944C332.295 24.104 312.085 26.304 312.015 23.134C311.925 18.924 317.635 17.184 302.135 16.284C270.305 14.444 307.425 8.14402 308.455 7.00402C310.125 5.15402 314.755 0.0940183 307.765 0.00401826C297.955 -0.165982 274.955 5.11401 273.935 5.23401C257.545 7.23401 184.155 29.914 167.095 33.234C153.925 35.774 197.165 18.704 183.925 21.594C162.765 26.204 141.685 31.014 121.295 35.234C110.825 37.394 76.2949 48.234 109.825 44.984C119.665 44.044 87.7748 50.484 87.6648 50.514C86.0148 50.914 74.2448 53.864 66.0548 57.514C57.2548 59.614 53.7548 60.594 54.0548 61.514C54.3548 62.434 57.4049 60.854 56.5049 62.014C55.6049 63.174 52.8649 64.014 53.5849 65.554C54.5849 66.554 53.5849 69.124 55.2449 68.924C56.9049 68.724 60.0248 67.924 60.0248 67.924L54.6049 71.524C54.6049 71.524 62.2949 70.594 64.7149 70.664L67.2149 70.784C69.6949 73.144 68.2149 75.254 57.9549 78.554C53.6449 79.944 24.1449 85.834 23.9549 89.814C23.8249 92.134 26.6549 90.344 22.7449 94.274C14.7449 102.274 38.1349 101.274 30.7449 106.404C28.1249 108.224 -0.635105 113.554 18.9949 113.404C27.3749 113.334 12.8148 116.944 18.7848 118.664C22.7048 119.784 15.7848 120.924 23.0148 124.054C28.0148 126.234 16.7148 126.114 23.1548 127.764C25.2548 128.304 29.9448 127.244 30.4448 128.614C31.0748 130.374 29.7449 132.434 38.2349 130.674C56.9649 126.794 107.415 115.124 105.885 122.194C104.705 124.944 31.4348 140.974 31.3148 144.904C31.2248 148.264 32.2549 147.444 25.2549 149.064C6.2549 153.474 24.9548 153.194 18.9048 156.254C11.1348 160.174 22.5449 158.574 21.6249 164.914C21.0949 168.554 34.1549 165.714 36.4649 165.494C49.2449 164.494 70.4649 162.054 42.4649 172.744C39.5675 173.698 36.76 174.906 34.0748 176.354C31.0748 179.794 34.0749 180.054 26.3749 181.354C22.3749 182.044 20.8749 181.934 18.3749 185.654C24.2249 189.284 25.7648 187.944 15.8848 191.544C13.4948 192.414 9.29489 196.124 17.1149 194.064C23.1149 192.484 19.1149 196.204 13.9749 198.324C6.15487 202.164 15.2449 200.554 16.8349 203.804C18.1949 206.574 20.6749 203.324 20.7349 206.354C20.8549 212.584 32.1149 209.484 22.8349 213.814C22.7249 213.864 -11.8951 222.494 4.32485 221.624C6.24485 221.514 33.1049 217.024 17.3249 224.164C4.61485 229.904 15.3949 230.694 20.2449 228.964C22.5149 228.154 26.8949 231.384 33.3649 230.644C49.8149 228.764 20.3048 238.354 30.9248 239.344C31.8148 239.434 57.8048 233.014 44.4448 241.264C41.8148 242.884 32.0749 245.504 32.3549 247.314C32.8749 250.704 36.1649 250.784 27.7349 255.314C24.6049 256.984 19.3749 259.674 26.7349 259.404C34.7349 259.124 35.7349 253.994 45.7349 256.464C48.9649 257.264 61.5949 249.944 56.4549 256.394C52.4549 261.394 43.6248 260.254 41.5148 263.324C47.5748 263.454 60.1149 256.924 61.2449 262.064C61.8749 264.964 62.8648 263.384 67.0648 261.934C68.4648 261.444 94.7948 251.684 86.1448 260.404C82.3148 264.274 71.2549 264.814 66.9849 268.404C68.7349 271.464 74.5048 268.644 61.2648 274.054C52.0148 277.844 62.7948 276.734 68.0348 274.834C78.1348 270.644 85.8748 266.154 96.4448 265.834C95.9448 273.704 97.0848 271.974 106.445 268.044C136.825 255.334 112.275 266.344 128.445 265.664C160.545 264.294 105.395 280.664 129.395 277.294C143.035 275.394 124.515 282.354 128.755 286.724C130.645 288.674 125.985 289.654 129.215 292.444C133.215 295.914 124.865 297.054 121.945 297.984C121.825 297.984 99.4749 305.264 109.325 305.204C122.645 305.114 145.735 296.854 165.035 294.144C167.445 293.814 177.335 294.074 172.645 294.774C169.195 295.294 140.715 301.924 133.505 304.204C129.955 305.334 117.065 310.404 114.845 313.204C115.025 313.204 140.025 307.534 161.265 302.774C161.645 302.774 162.265 302.774 162.985 302.774C170.715 302.474 156.805 303.664 165.685 304.484C174.825 305.334 161.295 306.304 168.925 306.054C174.595 305.874 167.845 306.704 167.585 308.534C167.295 310.534 160.585 310.694 173.365 309.294C172.475 310.514 165.675 311.754 172.575 310.664C174.235 310.394 173.135 311.284 178.025 310.174C184.605 308.674 174.755 312.114 175.515 312.334C177.075 312.784 167.515 315.274 179.225 312.334C185.445 310.774 178.545 314.334 186.395 311.134C188.151 311.247 189.898 311.474 191.625 311.814C187.995 315.984 186.065 312.624 190.475 313.814C189.605 315.814 188.635 314.414 189.535 316.604C190.145 318.114 174.645 321.474 186.945 319.314C188.255 319.084 198.745 316.764 199.435 317.314C195.045 318.874 190.995 318.314 186.435 320.774C187.245 320.854 212.435 315.774 206.565 317.294C197.565 319.704 243.945 310.504 251.055 308.934C290.955 300.134 294.495 302.214 334.055 292.194C333.275 292.194 319.055 293.684 328.185 291.414C329.775 291.014 342.085 288.414 333.695 289.354C333.285 288.294 367.645 282.784 352.935 283.684C350.315 283.834 348.865 285.154 354.365 283.444C359.155 281.954 365.785 278.814 354.745 282.144C358.655 279.474 362.635 279.294 354.305 280.284C354.305 279.754 356.405 279.534 357.905 279.054C359.075 278.674 359.195 278.134 360.125 277.554C360.725 277.174 362.955 276.634 362.995 276.554C363.155 275.914 359.155 276.904 355.845 277.554C342.395 280.304 351.045 278.194 351.675 276.114C348.755 274.674 354.495 273.904 356.475 273.334C358.215 272.854 362.035 272.334 366.825 271.014C369.645 270.204 362.825 269.014 362.825 269.014C364.485 267.644 376.065 265.194 377.355 263.664C376.225 262.814 374.115 264.864 376.635 262.164C374.365 261.304 378.805 259.664 372.365 261.524C368.845 262.524 377.155 258.194 369.755 259.524C370.755 258.524 374.195 257.644 373.325 256.984C372.455 256.324 365.625 258.334 364.845 258.514C359.445 259.804 336.125 265.454 344.565 261.814C348.845 259.974 343.565 261.024 345.865 260.024C348.685 258.834 338.995 261.194 346.695 257.324C346.475 257.244 331.545 260.134 310.695 264.274C314.505 263.274 317.245 262.544 318.095 262.274C318.705 260.704 308.095 262.824 306.635 263.014C291.095 265.014 327.965 256.224 328.075 256.194C337.975 253.604 358.605 248.954 367.275 245.294C364.435 242.854 361.015 246.854 359.535 243.664C358.055 240.474 352.605 243.084 349.815 243.764C329.515 248.764 366.295 238.444 368.345 237.764C380.795 233.444 381.765 233.944 391.165 228.174C404.495 219.984 369.165 232.904 362.945 233.974C361.005 234.314 365.435 233.024 371.865 229.284C373.745 228.194 371.995 227.394 373.465 226.534C375.405 225.384 385.235 222.444 386.525 221.664C394.675 216.664 386.385 218.034 371.835 222.184C366.695 223.644 365.565 224.114 360.835 224.304C356.105 224.494 373.175 218.694 374.835 217.874C379.425 215.644 392.235 212.584 394.315 211.454C408.065 203.964 364.315 218.944 375.615 212.504C376.615 211.954 385.045 206.604 385.085 206.574C382.245 205.674 337.155 219.644 343.785 214.514C344.865 213.674 353.235 211.984 358.235 208.814C363.235 205.644 374.635 202.814 375.775 200.814C379.695 193.884 383.465 193.444 384.365 191.514C382.195 189.944 378.195 193.544 378.935 187.464C379.935 179.744 393.765 182.854 371.315 179.134C364.315 177.964 362.475 178.664 372.185 173.744C382.245 168.654 392.065 169.924 399.935 163.024C403.995 159.474 389.265 164.974 388.585 165.184C376.655 168.764 360.435 173.434 384.925 163.694C403.005 156.504 394.545 154.224 401.425 149.694C407.755 145.524 386.205 153.024 397.125 144.864C398.375 143.934 399.955 143.164 399.545 141.804C396.915 140.224 396.185 142.634 396.915 139.404C397.685 135.934 393.745 140.094 399.655 134.124C398.465 131.574 362.025 146.124 384.875 133.264C385.795 125.974 387.745 128.554 389.465 124.914C388.625 124.714 387.195 125.544 386.445 125.804Z" fill="#B02227"/>
</svg>
