<svg width="556" height="277" viewBox="0 0 556 277" fill="none" xmlns="http://www.w3.org/2000/svg">
<path fill-rule="evenodd" clip-rule="evenodd" d="M261.27 4.45752C258.18 6.52752 248.79 10.6275 247.08 17.0175C239.48 45.5875 223.48 96.5275 223.27 113.598C222.45 170.718 273.27 239.248 430.57 251.918C458.48 254.168 535.48 255.748 553.97 256.748C555.18 256.818 524.43 211.128 515.97 209.868C488.23 205.748 422.23 201.938 382.51 192.658C290.08 171.008 250.4 130.748 255.53 55.0775C256.63 38.9075 256.75 22.1675 261.27 4.45752Z" fill="#B02227"/>
<path fill-rule="evenodd" clip-rule="evenodd" d="M344.54 237.018C358.436 240.999 372.549 244.181 386.81 246.548C386.93 246.058 387.07 245.548 387.22 245.058C392.11 228.988 411.1 219.338 439.82 201.638C436.18 201.218 432.557 200.785 428.95 200.338C403.86 209.088 365.2 227.428 344.54 237.018Z" fill="#881F22"/>
<path fill-rule="evenodd" clip-rule="evenodd" d="M494.02 254.747L500.72 254.957C492.725 237.964 483.808 221.419 474.01 205.397L466.6 204.667C476.664 220.838 485.818 237.558 494.02 254.747Z" fill="#E4BE6E"/>
<path fill-rule="evenodd" clip-rule="evenodd" d="M538.81 256.117L545.92 256.367C535.996 240.267 525.225 224.705 513.65 209.747C511.17 209.387 508.4 209.027 505.38 208.667C517.385 223.859 528.545 239.7 538.81 256.117Z" fill="#E4BE6E"/>
<path fill-rule="evenodd" clip-rule="evenodd" d="M504.75 208.608L502.75 208.368C503.231 209.211 503.595 210.116 503.83 211.058C504.193 212.536 504.225 214.075 503.924 215.567C503.624 217.059 502.997 218.466 502.09 219.688C501.219 220.906 500.101 221.929 498.81 222.688C497.52 223.445 496.092 223.938 494.61 224.138L493.96 224.198C492.81 224.292 491.653 224.149 490.561 223.777C489.468 223.406 488.464 222.814 487.61 222.038C486.028 220.567 484.992 218.603 484.67 216.468C484.67 216.268 484.67 216.088 484.61 215.928C484.575 215.475 484.575 215.02 484.61 214.568C484.743 213.153 485.374 211.831 486.39 210.838C487.57 209.78 489.086 209.174 490.67 209.128C491.289 209.084 491.911 209.084 492.53 209.128C493.619 209.223 494.646 209.676 495.45 210.418C496.295 211.203 496.825 212.27 496.94 213.418C497.011 214.295 496.816 215.173 496.38 215.938C496.099 216.452 495.706 216.896 495.23 217.238C494.808 217.545 494.31 217.732 493.79 217.778C493.198 217.811 492.608 217.676 492.09 217.388C491.478 217.099 490.974 216.622 490.65 216.028C490.432 215.578 490.355 215.072 490.43 214.578C490.497 214.108 490.702 213.67 491.02 213.318C491.255 213.04 491.574 212.846 491.93 212.768C492.043 212.753 492.157 212.753 492.27 212.768C492.374 212.792 492.475 212.829 492.57 212.878C492.682 212.928 492.778 213.008 492.85 213.108C492.986 213.287 493.066 213.503 493.08 213.728C493.101 214.007 493.046 214.287 492.92 214.538C492.798 214.783 492.616 214.993 492.39 215.148C492.05 215.388 492.09 215.858 492.5 216.148C492.682 216.311 492.91 216.416 493.153 216.446C493.396 216.476 493.643 216.432 493.86 216.318C494.234 216.062 494.54 215.719 494.75 215.318C494.969 214.875 495.057 214.38 495.004 213.889C494.951 213.398 494.759 212.933 494.45 212.548C494.129 212.118 493.706 211.774 493.22 211.548C492.901 211.403 492.565 211.299 492.22 211.238C491.829 211.172 491.431 211.172 491.04 211.238C490.358 211.365 489.738 211.717 489.28 212.238C488.834 212.736 488.545 213.355 488.45 214.018C488.336 214.774 488.462 215.547 488.81 216.228C489.352 217.243 490.208 218.057 491.25 218.548C492.204 219.059 493.28 219.298 494.36 219.238C495.184 219.174 495.976 218.887 496.65 218.408C497.261 217.974 497.764 217.406 498.12 216.748C498.661 215.802 498.901 214.714 498.81 213.628C498.629 212.089 497.897 210.668 496.75 209.628C495.516 208.482 493.937 207.779 492.26 207.628C491.511 207.569 490.759 207.569 490.01 207.628C488.054 207.681 486.18 208.425 484.72 209.728C483.525 210.889 482.784 212.439 482.63 214.098C482.585 214.613 482.585 215.132 482.63 215.648C482.63 215.878 482.63 216.078 482.7 216.278C483.089 218.803 484.327 221.12 486.21 222.848C487.325 223.868 488.638 224.648 490.068 225.138C491.498 225.629 493.013 225.819 494.52 225.698L495.29 225.628C497.004 225.407 498.654 224.839 500.14 223.958C501.577 223.12 502.82 221.989 503.79 220.638C504.787 219.288 505.473 217.735 505.8 216.089C506.127 214.443 506.086 212.746 505.68 211.118C505.46 210.25 505.148 209.409 504.75 208.608Z" fill="#E4BE6E"/>
<path fill-rule="evenodd" clip-rule="evenodd" d="M499.79 219.307C499.721 219.196 499.63 219.099 499.523 219.022C499.416 218.945 499.295 218.891 499.166 218.861C499.038 218.831 498.905 218.827 498.776 218.849C498.646 218.87 498.522 218.917 498.41 218.987C498.297 219.048 498.198 219.132 498.12 219.233C498.041 219.334 497.984 219.45 497.953 219.574C497.922 219.699 497.917 219.828 497.939 219.954C497.961 220.08 498.009 220.201 498.08 220.307C498.149 220.42 498.239 220.518 498.345 220.595C498.452 220.673 498.573 220.729 498.701 220.759C498.83 220.79 498.963 220.795 499.093 220.774C499.223 220.753 499.348 220.707 499.46 220.637C499.572 220.575 499.67 220.489 499.748 220.387C499.826 220.285 499.882 220.168 499.913 220.044C499.944 219.919 499.949 219.789 499.928 219.663C499.907 219.536 499.86 219.415 499.79 219.307Z" fill="#E4BE6E"/>
<path fill-rule="evenodd" clip-rule="evenodd" d="M495.58 220.968C495.511 220.854 495.419 220.756 495.311 220.679C495.204 220.601 495.081 220.546 494.952 220.516C494.823 220.486 494.689 220.483 494.558 220.505C494.427 220.528 494.302 220.576 494.19 220.648C494.077 220.709 493.979 220.792 493.9 220.893C493.821 220.994 493.764 221.11 493.732 221.233C493.7 221.357 493.694 221.487 493.714 221.613C493.735 221.739 493.781 221.86 493.85 221.968C493.919 222.082 494.009 222.181 494.117 222.259C494.224 222.338 494.346 222.394 494.476 222.425C494.605 222.455 494.739 222.46 494.871 222.438C495.002 222.416 495.127 222.369 495.24 222.298C495.353 222.236 495.452 222.151 495.531 222.05C495.61 221.948 495.667 221.831 495.699 221.706C495.73 221.582 495.736 221.452 495.716 221.325C495.696 221.198 495.649 221.076 495.58 220.968Z" fill="#E4BE6E"/>
<path fill-rule="evenodd" clip-rule="evenodd" d="M491.11 220.178C491.041 220.064 490.949 219.966 490.841 219.889C490.734 219.811 490.611 219.756 490.482 219.726C490.353 219.696 490.219 219.693 490.088 219.715C489.957 219.738 489.832 219.786 489.72 219.858C489.609 219.92 489.513 220.005 489.436 220.106C489.359 220.208 489.303 220.324 489.272 220.447C489.241 220.57 489.236 220.699 489.256 220.824C489.276 220.95 489.322 221.07 489.39 221.178C489.459 221.292 489.549 221.391 489.657 221.469C489.764 221.548 489.886 221.604 490.016 221.635C490.145 221.665 490.279 221.67 490.411 221.648C490.542 221.626 490.667 221.579 490.78 221.508C490.994 221.37 491.147 221.155 491.209 220.908C491.27 220.661 491.235 220.4 491.11 220.178Z" fill="#E4BE6E"/>
<path fill-rule="evenodd" clip-rule="evenodd" d="M488.34 217.137C488.271 217.023 488.181 216.924 488.073 216.846C487.966 216.767 487.844 216.711 487.714 216.68C487.585 216.65 487.451 216.645 487.319 216.667C487.188 216.689 487.063 216.736 486.95 216.807C486.837 216.869 486.738 216.954 486.659 217.055C486.581 217.157 486.523 217.274 486.492 217.399C486.46 217.523 486.454 217.653 486.474 217.78C486.495 217.907 486.541 218.029 486.61 218.137C486.679 218.251 486.771 218.349 486.879 218.426C486.986 218.504 487.109 218.559 487.238 218.589C487.367 218.619 487.501 218.622 487.632 218.6C487.763 218.577 487.888 218.529 488 218.457C488.111 218.395 488.209 218.311 488.287 218.211C488.365 218.11 488.422 217.994 488.453 217.87C488.485 217.747 488.492 217.618 488.472 217.492C488.453 217.366 488.408 217.246 488.34 217.137Z" fill="#E4BE6E"/>
<path fill-rule="evenodd" clip-rule="evenodd" d="M501.84 215.327C501.771 215.213 501.681 215.114 501.573 215.036C501.466 214.957 501.344 214.901 501.214 214.87C501.085 214.84 500.951 214.835 500.819 214.857C500.688 214.879 500.563 214.926 500.45 214.997C500.337 215.059 500.238 215.144 500.159 215.246C500.08 215.348 500.024 215.465 499.993 215.59C499.962 215.715 499.957 215.845 499.979 215.972C500.001 216.099 500.049 216.22 500.12 216.327C500.189 216.439 500.28 216.536 500.387 216.613C500.494 216.689 500.615 216.744 500.744 216.774C500.872 216.804 501.005 216.808 501.134 216.786C501.264 216.764 501.388 216.717 501.5 216.647C501.613 216.586 501.711 216.503 501.79 216.402C501.869 216.301 501.926 216.185 501.958 216.061C501.99 215.938 501.996 215.808 501.975 215.682C501.955 215.556 501.909 215.435 501.84 215.327Z" fill="#E4BE6E"/>
<path fill-rule="evenodd" clip-rule="evenodd" d="M501.55 210.627C501.48 210.514 501.389 210.416 501.281 210.338C501.174 210.261 501.052 210.206 500.922 210.176C500.793 210.146 500.659 210.142 500.528 210.165C500.397 210.187 500.272 210.236 500.16 210.307C499.946 210.445 499.793 210.66 499.731 210.907C499.67 211.154 499.705 211.415 499.83 211.637C499.899 211.75 499.991 211.849 500.099 211.926C500.206 212.004 500.329 212.059 500.458 212.089C500.587 212.118 500.721 212.122 500.852 212.1C500.983 212.077 501.108 212.029 501.22 211.957C501.434 211.819 501.587 211.605 501.649 211.358C501.71 211.111 501.675 210.849 501.55 210.627Z" fill="#E4BE6E"/>
<path fill-rule="evenodd" clip-rule="evenodd" d="M499.14 207.968L497.23 207.768C497.251 207.882 497.296 207.991 497.36 208.088C497.429 208.199 497.52 208.296 497.627 208.373C497.734 208.45 497.855 208.504 497.984 208.534C498.112 208.564 498.245 208.568 498.374 208.546C498.504 208.525 498.628 208.477 498.74 208.408C498.917 208.308 499.058 208.154 499.14 207.968Z" fill="#E4BE6E"/>
<path fill-rule="evenodd" clip-rule="evenodd" d="M486.48 206.648L484.55 206.458C484.489 206.596 484.465 206.747 484.479 206.898C484.493 207.048 484.545 207.193 484.63 207.318C484.699 207.429 484.79 207.526 484.897 207.603C485.004 207.68 485.125 207.734 485.254 207.764C485.382 207.794 485.515 207.798 485.644 207.776C485.774 207.754 485.898 207.707 486.01 207.638C486.182 207.542 486.32 207.396 486.404 207.218C486.489 207.041 486.515 206.841 486.48 206.648Z" fill="#E4BE6E"/>
<path fill-rule="evenodd" clip-rule="evenodd" d="M487.81 213.318C487.74 213.205 487.649 213.106 487.541 213.029C487.434 212.951 487.311 212.896 487.182 212.866C487.053 212.837 486.919 212.833 486.788 212.855C486.657 212.878 486.532 212.926 486.42 212.998C486.308 213.059 486.21 213.144 486.133 213.245C486.055 213.346 485.999 213.462 485.968 213.586C485.937 213.71 485.932 213.839 485.953 213.965C485.974 214.09 486.02 214.211 486.09 214.318C486.159 214.43 486.25 214.526 486.357 214.603C486.464 214.68 486.585 214.734 486.713 214.764C486.842 214.794 486.975 214.798 487.104 214.776C487.234 214.755 487.358 214.708 487.47 214.638C487.582 214.577 487.681 214.493 487.76 214.393C487.839 214.292 487.896 214.176 487.928 214.052C487.96 213.928 487.966 213.799 487.945 213.672C487.925 213.546 487.879 213.425 487.81 213.318Z" fill="#E4BE6E"/>
<path fill-rule="evenodd" clip-rule="evenodd" d="M507.1 237.187C506.883 237.3 506.636 237.344 506.394 237.313C506.151 237.283 505.923 237.18 505.74 237.017C505.34 236.677 505.29 236.207 505.64 235.967C505.863 235.81 506.045 235.6 506.17 235.357C506.296 235.107 506.351 234.827 506.33 234.547C506.312 234.323 506.232 234.109 506.1 233.927C506.026 233.829 505.93 233.751 505.82 233.697C505.724 233.645 505.619 233.611 505.51 233.597C505.398 233.572 505.282 233.572 505.17 233.597C504.814 233.667 504.492 233.858 504.26 234.137C503.946 234.492 503.741 234.929 503.67 235.397C503.593 235.893 503.674 236.4 503.9 236.847C504.222 237.44 504.722 237.915 505.33 238.207C505.85 238.49 506.438 238.625 507.03 238.597C507.552 238.547 508.052 238.361 508.48 238.057C508.95 237.712 509.339 237.269 509.62 236.757C510.053 235.992 510.252 235.115 510.19 234.237C510.066 233.09 509.534 232.025 508.69 231.237C507.888 230.495 506.859 230.044 505.77 229.957C505.151 229.908 504.529 229.908 503.91 229.957C502.327 230.006 500.811 230.611 499.63 231.667C498.611 232.657 497.982 233.982 497.86 235.397C497.815 235.85 497.815 236.305 497.86 236.757C497.86 236.917 497.88 237.097 497.92 237.297C498.234 239.434 499.268 241.399 500.85 242.867C501.706 243.644 502.712 244.236 503.806 244.607C504.9 244.979 506.058 245.122 507.21 245.027L507.85 244.967C509.333 244.77 510.761 244.277 512.05 243.517C513.344 242.758 514.465 241.736 515.34 240.517C516.248 239.296 516.874 237.889 517.173 236.396C517.472 234.904 517.437 233.364 517.07 231.887C516.558 229.924 515.521 228.136 514.07 226.717C512.587 225.244 510.752 224.174 508.74 223.607C506.889 223.143 504.965 223.048 503.078 223.328C501.19 223.607 499.377 224.256 497.74 225.237C497.512 225.336 497.259 225.365 497.015 225.318C496.771 225.272 496.546 225.153 496.37 224.977C496 224.627 496.01 224.167 496.37 223.977C498.255 222.86 500.343 222.129 502.514 221.828C504.684 221.528 506.893 221.664 509.01 222.227C511.464 222.906 513.703 224.204 515.51 225.997C517.185 227.648 518.38 229.721 518.97 231.997C519.378 233.625 519.42 235.323 519.093 236.969C518.766 238.615 518.079 240.169 517.08 241.517C516.111 242.866 514.871 243.996 513.44 244.837C511.954 245.717 510.303 246.282 508.59 246.497C508.332 246.539 508.071 246.566 507.81 246.577C506.305 246.697 504.791 246.506 503.363 246.016C501.935 245.526 500.624 244.747 499.51 243.727C497.618 242.001 496.376 239.679 495.99 237.147C495.959 236.942 495.939 236.735 495.93 236.527C495.88 236.012 495.88 235.493 495.93 234.977C496.087 233.317 496.832 231.767 498.03 230.607C499.486 229.305 501.357 228.561 503.31 228.507C504.062 228.448 504.818 228.448 505.57 228.507C507.246 228.66 508.825 229.364 510.06 230.507C511.201 231.552 511.928 232.971 512.11 234.507C512.205 235.592 511.968 236.68 511.43 237.627C511.064 238.282 510.559 238.849 509.95 239.287C509.279 239.765 508.491 240.052 507.67 240.117C506.59 240.178 505.513 239.94 504.56 239.427C503.513 238.936 502.653 238.118 502.11 237.097C501.771 236.417 501.646 235.65 501.75 234.897C501.848 234.234 502.141 233.615 502.59 233.117C503.047 232.595 503.667 232.242 504.35 232.117C504.737 232.052 505.133 232.052 505.52 232.117C505.866 232.176 506.202 232.28 506.52 232.427C507.007 232.654 507.429 232.997 507.75 233.427C508.067 233.83 508.258 234.317 508.3 234.827C508.343 235.299 508.253 235.774 508.04 236.197C507.817 236.603 507.494 236.944 507.1 237.187Z" fill="#E4BE6E"/>
<path fill-rule="evenodd" clip-rule="evenodd" d="M513.05 240.068C512.98 239.955 512.889 239.856 512.781 239.779C512.674 239.701 512.551 239.646 512.422 239.616C512.293 239.587 512.159 239.583 512.028 239.605C511.897 239.628 511.772 239.676 511.66 239.748C511.549 239.811 511.453 239.895 511.376 239.996C511.299 240.098 511.243 240.214 511.212 240.337C511.182 240.46 511.176 240.589 511.196 240.714C511.216 240.84 511.262 240.96 511.33 241.068C511.399 241.18 511.489 241.278 511.595 241.356C511.702 241.433 511.823 241.489 511.951 241.52C512.08 241.551 512.213 241.556 512.343 241.535C512.473 241.514 512.598 241.467 512.71 241.398C512.823 241.336 512.922 241.251 513.001 241.15C513.079 241.048 513.137 240.931 513.168 240.806C513.2 240.682 513.206 240.552 513.186 240.425C513.166 240.298 513.119 240.176 513.05 240.068Z" fill="#E4BE6E"/>
<path fill-rule="evenodd" clip-rule="evenodd" d="M508.83 241.747C508.76 241.634 508.669 241.536 508.561 241.459C508.454 241.381 508.331 241.326 508.202 241.296C508.073 241.266 507.939 241.262 507.808 241.285C507.677 241.308 507.552 241.356 507.44 241.427C507.328 241.489 507.23 241.573 507.153 241.674C507.075 241.776 507.019 241.892 506.988 242.016C506.957 242.139 506.952 242.268 506.973 242.394C506.994 242.52 507.04 242.64 507.11 242.747C507.179 242.86 507.269 242.958 507.375 243.036C507.482 243.113 507.603 243.169 507.731 243.2C507.86 243.23 507.993 243.235 508.123 243.214C508.253 243.193 508.378 243.147 508.49 243.077C508.603 243.015 508.702 242.931 508.781 242.829C508.859 242.728 508.917 242.611 508.948 242.486C508.98 242.361 508.986 242.232 508.966 242.104C508.946 241.977 508.899 241.856 508.83 241.747Z" fill="#E4BE6E"/>
<path fill-rule="evenodd" clip-rule="evenodd" d="M504.36 240.938C504.291 240.826 504.2 240.729 504.093 240.652C503.986 240.576 503.865 240.521 503.737 240.491C503.608 240.461 503.475 240.457 503.346 240.479C503.216 240.501 503.092 240.548 502.98 240.618C502.868 240.679 502.769 240.762 502.69 240.863C502.611 240.964 502.554 241.08 502.522 241.204C502.49 241.327 502.484 241.457 502.505 241.583C502.525 241.709 502.571 241.83 502.64 241.938C502.709 242.052 502.799 242.151 502.907 242.229C503.014 242.308 503.136 242.364 503.266 242.395C503.395 242.425 503.529 242.43 503.661 242.408C503.792 242.386 503.918 242.339 504.03 242.268C504.244 242.13 504.397 241.915 504.459 241.668C504.52 241.421 504.485 241.16 504.36 240.938Z" fill="#E4BE6E"/>
<path fill-rule="evenodd" clip-rule="evenodd" d="M501.59 237.898C501.521 237.784 501.431 237.685 501.323 237.606C501.216 237.528 501.094 237.471 500.964 237.441C500.835 237.41 500.701 237.405 500.569 237.427C500.438 237.449 500.313 237.497 500.2 237.568C500.088 237.63 499.99 237.716 499.912 237.818C499.834 237.92 499.778 238.037 499.747 238.161C499.716 238.286 499.711 238.416 499.732 238.542C499.754 238.669 499.8 238.79 499.87 238.898C499.939 239.009 500.03 239.106 500.137 239.183C500.244 239.26 500.365 239.314 500.494 239.344C500.622 239.374 500.755 239.378 500.884 239.356C501.014 239.335 501.138 239.288 501.25 239.218C501.363 239.157 501.461 239.073 501.54 238.972C501.619 238.872 501.676 238.756 501.708 238.632C501.74 238.508 501.746 238.379 501.725 238.252C501.705 238.126 501.659 238.005 501.59 237.898Z" fill="#E4BE6E"/>
<path fill-rule="evenodd" clip-rule="evenodd" d="M515.09 236.088C515.021 235.974 514.931 235.875 514.823 235.796C514.716 235.718 514.594 235.661 514.464 235.631C514.335 235.6 514.201 235.595 514.069 235.617C513.938 235.639 513.813 235.687 513.7 235.758C513.486 235.896 513.333 236.11 513.271 236.357C513.21 236.604 513.245 236.866 513.37 237.088C513.439 237.201 513.531 237.299 513.639 237.376C513.746 237.454 513.869 237.509 513.998 237.539C514.127 237.569 514.261 237.573 514.392 237.55C514.523 237.527 514.648 237.479 514.76 237.408C514.871 237.345 514.967 237.26 515.044 237.159C515.121 237.058 515.177 236.942 515.208 236.818C515.239 236.695 515.244 236.566 515.224 236.441C515.204 236.315 515.158 236.195 515.09 236.088Z" fill="#E4BE6E"/>
<path fill-rule="evenodd" clip-rule="evenodd" d="M514.8 231.387C514.73 231.276 514.64 231.179 514.533 231.102C514.426 231.025 514.305 230.971 514.176 230.941C514.048 230.911 513.915 230.907 513.786 230.929C513.656 230.95 513.531 230.998 513.42 231.067C513.307 231.129 513.208 231.214 513.129 231.315C513.051 231.417 512.993 231.534 512.962 231.659C512.93 231.783 512.924 231.913 512.944 232.04C512.964 232.167 513.011 232.289 513.08 232.397C513.149 232.511 513.241 232.609 513.349 232.686C513.456 232.764 513.579 232.819 513.708 232.849C513.837 232.879 513.971 232.882 514.102 232.86C514.233 232.837 514.358 232.789 514.47 232.717C514.583 232.656 514.682 232.571 514.761 232.469C514.84 232.367 514.896 232.25 514.927 232.125C514.958 232 514.963 231.87 514.941 231.743C514.919 231.616 514.871 231.495 514.8 231.387Z" fill="#E4BE6E"/>
<path fill-rule="evenodd" clip-rule="evenodd" d="M512.33 227.838C512.261 227.725 512.169 227.626 512.061 227.549C511.954 227.471 511.831 227.416 511.702 227.386C511.573 227.357 511.439 227.353 511.308 227.375C511.177 227.398 511.052 227.446 510.94 227.518C510.726 227.656 510.573 227.87 510.511 228.117C510.45 228.364 510.485 228.626 510.61 228.848C510.679 228.961 510.771 229.059 510.879 229.137C510.986 229.214 511.109 229.269 511.238 229.299C511.367 229.329 511.501 229.333 511.632 229.31C511.763 229.288 511.888 229.239 512 229.168C512.214 229.03 512.367 228.815 512.429 228.568C512.49 228.321 512.455 228.06 512.33 227.838Z" fill="#E4BE6E"/>
<path fill-rule="evenodd" clip-rule="evenodd" d="M508.32 225.588C508.25 225.475 508.159 225.376 508.051 225.299C507.944 225.221 507.821 225.166 507.692 225.136C507.563 225.107 507.429 225.103 507.298 225.125C507.167 225.148 507.042 225.196 506.93 225.268C506.819 225.331 506.723 225.415 506.646 225.516C506.569 225.618 506.513 225.734 506.482 225.857C506.451 225.98 506.446 226.109 506.466 226.234C506.486 226.36 506.532 226.48 506.6 226.588C506.669 226.702 506.759 226.801 506.867 226.879C506.974 226.958 507.096 227.014 507.226 227.045C507.355 227.076 507.489 227.08 507.621 227.058C507.752 227.036 507.877 226.989 507.99 226.918C508.204 226.78 508.357 226.565 508.419 226.318C508.48 226.071 508.445 225.81 508.32 225.588Z" fill="#E4BE6E"/>
<path fill-rule="evenodd" clip-rule="evenodd" d="M504.01 225.577C503.941 225.463 503.851 225.364 503.743 225.286C503.636 225.207 503.514 225.151 503.384 225.12C503.255 225.09 503.121 225.085 502.989 225.107C502.858 225.129 502.733 225.176 502.62 225.247C502.507 225.309 502.408 225.394 502.329 225.495C502.25 225.597 502.193 225.714 502.162 225.839C502.13 225.963 502.124 226.093 502.144 226.22C502.164 226.347 502.211 226.469 502.28 226.577C502.349 226.691 502.441 226.789 502.549 226.866C502.656 226.944 502.778 226.999 502.908 227.029C503.037 227.059 503.171 227.062 503.302 227.04C503.433 227.017 503.558 226.969 503.67 226.897C503.883 226.761 504.037 226.549 504.1 226.304C504.163 226.059 504.131 225.8 504.01 225.577Z" fill="#E4BE6E"/>
<path fill-rule="evenodd" clip-rule="evenodd" d="M499.61 227.068C499.541 226.955 499.449 226.856 499.341 226.779C499.234 226.701 499.111 226.646 498.982 226.616C498.853 226.587 498.719 226.583 498.588 226.605C498.457 226.628 498.332 226.676 498.22 226.748C498.006 226.886 497.853 227.1 497.791 227.347C497.73 227.594 497.765 227.856 497.89 228.078C497.959 228.19 498.05 228.286 498.157 228.363C498.264 228.44 498.385 228.494 498.514 228.524C498.642 228.554 498.775 228.558 498.904 228.536C499.034 228.515 499.158 228.468 499.27 228.398C499.383 228.336 499.482 228.251 499.561 228.15C499.639 228.048 499.697 227.931 499.729 227.806C499.76 227.682 499.766 227.552 499.746 227.425C499.725 227.298 499.679 227.176 499.61 227.068Z" fill="#E4BE6E"/>
<path fill-rule="evenodd" clip-rule="evenodd" d="M501.06 234.077C500.991 233.963 500.901 233.864 500.793 233.786C500.686 233.707 500.564 233.651 500.434 233.62C500.305 233.59 500.171 233.585 500.039 233.607C499.908 233.629 499.782 233.676 499.67 233.747C499.456 233.885 499.303 234.1 499.241 234.347C499.18 234.594 499.215 234.855 499.34 235.077C499.409 235.191 499.501 235.289 499.609 235.366C499.716 235.444 499.839 235.499 499.968 235.529C500.097 235.559 500.231 235.562 500.362 235.54C500.493 235.517 500.618 235.469 500.73 235.397C500.841 235.335 500.937 235.25 501.014 235.149C501.091 235.047 501.147 234.931 501.178 234.808C501.208 234.685 501.214 234.556 501.194 234.431C501.174 234.305 501.128 234.185 501.06 234.077Z" fill="#E4BE6E"/>
<path fill-rule="evenodd" clip-rule="evenodd" d="M509.23 255.267L511.23 255.327C511.479 254.209 512.053 253.19 512.88 252.397C514.059 251.338 515.576 250.732 517.16 250.687C517.776 250.643 518.394 250.643 519.01 250.687C520.102 250.785 521.131 251.238 521.94 251.977C522.785 252.763 523.315 253.829 523.43 254.977C523.45 255.21 523.45 255.444 523.43 255.677L525.43 255.737C525.43 255.567 525.43 255.397 525.43 255.227C525.245 253.69 524.514 252.271 523.37 251.227C522.136 250.082 520.557 249.378 518.88 249.227C518.129 249.152 517.373 249.135 516.62 249.177C514.667 249.233 512.797 249.976 511.34 251.277C510.25 252.353 509.547 253.76 509.34 255.277L509.23 255.267ZM515.04 255.447C515.162 254.856 515.438 254.308 515.84 253.857C516.297 253.335 516.917 252.982 517.6 252.857C517.987 252.792 518.383 252.792 518.77 252.857C519.115 252.918 519.451 253.022 519.77 253.167C520.255 253.391 520.675 253.735 520.99 254.167C521.306 254.571 521.5 255.057 521.55 255.567V255.647L519.62 255.587V255.317C519.603 255.09 519.524 254.872 519.39 254.687C519.319 254.587 519.222 254.507 519.11 254.457C519.014 254.405 518.909 254.371 518.8 254.357C518.689 254.327 518.571 254.327 518.46 254.357C518.107 254.428 517.789 254.619 517.56 254.897C517.392 255.075 517.256 255.282 517.16 255.507L515.08 255.447H515.04ZM530.58 255.917C530.671 254.81 530.58 253.695 530.31 252.617V252.567C529.793 250.609 528.756 248.826 527.31 247.407C525.824 245.932 523.986 244.862 521.97 244.297C520.12 243.83 518.195 243.734 516.307 244.013C514.419 244.293 512.605 244.944 510.97 245.927C510.744 246.027 510.492 246.055 510.25 246.009C510.007 245.962 509.784 245.843 509.61 245.667C509.23 245.317 509.24 244.847 509.61 244.667C511.498 243.553 513.589 242.826 515.76 242.527C517.932 242.229 520.141 242.365 522.26 242.927C524.71 243.608 526.945 244.906 528.75 246.697C530.424 248.35 531.622 250.422 532.22 252.697V252.747C532.49 253.825 532.601 254.937 532.55 256.047L530.58 255.917Z" fill="#E4BE6E"/>
<path fill-rule="evenodd" clip-rule="evenodd" d="M528.06 252.157C527.991 252.043 527.901 251.944 527.793 251.866C527.686 251.787 527.564 251.731 527.434 251.7C527.305 251.67 527.171 251.665 527.039 251.687C526.908 251.709 526.782 251.756 526.67 251.827C526.557 251.889 526.458 251.974 526.379 252.076C526.3 252.178 526.244 252.295 526.213 252.42C526.182 252.545 526.177 252.675 526.199 252.802C526.221 252.929 526.269 253.05 526.34 253.157C526.409 253.269 526.5 253.366 526.607 253.443C526.714 253.519 526.835 253.574 526.964 253.604C527.092 253.634 527.225 253.638 527.354 253.616C527.484 253.594 527.608 253.547 527.72 253.477C527.832 253.417 527.931 253.333 528.01 253.232C528.089 253.131 528.146 253.015 528.178 252.892C528.21 252.768 528.216 252.639 528.195 252.512C528.175 252.386 528.129 252.265 528.06 252.157Z" fill="#E4BE6E"/>
<path fill-rule="evenodd" clip-rule="evenodd" d="M525.58 248.597C525.511 248.486 525.42 248.389 525.313 248.312C525.206 248.235 525.085 248.181 524.956 248.151C524.828 248.121 524.695 248.117 524.566 248.139C524.436 248.16 524.312 248.208 524.2 248.277C524.087 248.339 523.988 248.424 523.909 248.525C523.831 248.627 523.773 248.744 523.742 248.869C523.71 248.993 523.704 249.123 523.724 249.25C523.745 249.377 523.791 249.499 523.86 249.607C523.929 249.72 524.021 249.819 524.129 249.896C524.236 249.974 524.359 250.029 524.488 250.059C524.617 250.089 524.751 250.092 524.882 250.07C525.013 250.047 525.138 249.999 525.25 249.927C525.464 249.789 525.617 249.575 525.679 249.328C525.74 249.081 525.705 248.819 525.58 248.597Z" fill="#E4BE6E"/>
<path fill-rule="evenodd" clip-rule="evenodd" d="M521.57 246.348C521.5 246.234 521.409 246.136 521.301 246.059C521.194 245.981 521.071 245.926 520.942 245.896C520.813 245.866 520.679 245.863 520.548 245.885C520.417 245.908 520.292 245.956 520.18 246.027C520.069 246.09 519.973 246.175 519.896 246.276C519.819 246.378 519.763 246.493 519.732 246.617C519.701 246.74 519.696 246.869 519.716 246.994C519.736 247.12 519.782 247.24 519.85 247.348C519.919 247.461 520.011 247.559 520.119 247.636C520.226 247.714 520.349 247.769 520.478 247.799C520.607 247.829 520.741 247.832 520.872 247.81C521.003 247.787 521.128 247.739 521.24 247.667C521.352 247.606 521.449 247.522 521.527 247.42C521.605 247.319 521.661 247.203 521.692 247.079C521.723 246.955 521.728 246.827 521.707 246.701C521.686 246.575 521.639 246.455 521.57 246.348Z" fill="#E4BE6E"/>
<path fill-rule="evenodd" clip-rule="evenodd" d="M517.26 246.338C517.191 246.224 517.101 246.125 516.993 246.046C516.886 245.968 516.764 245.911 516.634 245.881C516.505 245.85 516.371 245.845 516.239 245.867C516.108 245.889 515.983 245.937 515.87 246.008C515.758 246.07 515.66 246.155 515.582 246.258C515.504 246.36 515.448 246.477 515.417 246.601C515.386 246.726 515.381 246.855 515.402 246.982C515.423 247.109 515.47 247.23 515.54 247.338C515.609 247.449 515.7 247.546 515.807 247.623C515.914 247.7 516.035 247.754 516.164 247.784C516.292 247.814 516.424 247.818 516.554 247.796C516.684 247.775 516.808 247.727 516.92 247.658C517.032 247.597 517.131 247.513 517.21 247.412C517.289 247.312 517.346 247.196 517.378 247.072C517.41 246.948 517.416 246.819 517.395 246.692C517.375 246.566 517.329 246.445 517.26 246.338Z" fill="#E4BE6E"/>
<path fill-rule="evenodd" clip-rule="evenodd" d="M512.86 247.827C512.791 247.716 512.7 247.619 512.593 247.542C512.486 247.465 512.365 247.411 512.236 247.381C512.108 247.351 511.975 247.347 511.846 247.369C511.716 247.39 511.592 247.437 511.48 247.507C511.367 247.569 511.268 247.654 511.189 247.755C511.11 247.857 511.053 247.974 511.021 248.099C510.99 248.223 510.984 248.353 511.004 248.48C511.024 248.607 511.071 248.729 511.14 248.837C511.289 249.056 511.515 249.21 511.772 249.27C512.03 249.329 512.301 249.289 512.53 249.157C512.744 249.019 512.897 248.805 512.959 248.558C513.02 248.311 512.985 248.049 512.86 247.827Z" fill="#E4BE6E"/>
<path fill-rule="evenodd" clip-rule="evenodd" d="M512.48 255.368L514.48 255.428C514.5 255.219 514.447 255.011 514.33 254.838C514.261 254.726 514.17 254.629 514.063 254.552C513.956 254.476 513.835 254.421 513.706 254.391C513.578 254.361 513.445 254.357 513.316 254.379C513.186 254.401 513.062 254.448 512.95 254.518C512.806 254.608 512.687 254.733 512.605 254.882C512.523 255.03 512.48 255.198 512.48 255.368Z" fill="#E4BE6E"/>
<path fill-rule="evenodd" clip-rule="evenodd" d="M257.84 4.35766C258.77 3.82766 259.57 3.35765 260.09 3.01765L264.45 0.0976562L263.24 4.79766C259.62 19.0277 258.85 32.6677 258.11 45.8877C257.92 49.2077 257.74 52.5077 257.56 55.1177C255.02 92.4677 263.56 121.048 284 142.918C304.44 164.788 337.24 180.148 383 190.858C409.2 196.988 447.07 200.728 477.66 203.758C493.19 205.288 506.84 206.638 516.3 208.048C523 209.048 540.63 232.618 549.89 246.298C551.69 248.958 553.21 251.298 554.26 252.978C555.59 255.138 556.17 256.738 555.79 257.438C555.606 257.799 555.316 258.096 554.958 258.289C554.601 258.482 554.194 258.562 553.79 258.518C547.37 258.178 533.59 257.758 517.26 257.268C487.19 256.358 448.47 255.188 430.33 253.718C360.02 248.058 310.81 231.268 277.88 209.298C236.48 181.678 220.79 145.878 221.25 113.648C221.43 100.528 230.61 68.1977 238.38 40.8077C240.93 31.8077 243.32 23.3977 245.12 16.6577C246.7 10.7477 253.54 6.82766 257.85 4.35766H257.84ZM258.29 8.35766C254.64 10.4977 250.07 13.5677 249.05 17.3577C247.12 24.5977 244.78 32.8277 242.3 41.5577C234.58 68.7677 225.48 100.868 225.3 113.558C224.86 144.788 240.13 179.558 280.39 206.368C312.78 227.988 361.33 244.518 430.83 250.118C448.83 251.568 487.49 252.738 517.52 253.648C531.35 254.068 543.34 254.428 550.69 254.738C549.69 253.138 548.24 250.898 546.44 248.248C537.52 235.068 520.85 212.408 515.53 211.608C506.31 210.248 492.65 208.898 477.11 207.358C446.41 204.358 408.41 200.568 381.89 194.358C335.31 183.458 301.97 167.808 280.89 145.278C259.81 122.748 250.95 93.2777 253.55 55.0177C253.78 51.5377 253.94 48.6877 254.1 45.8377C254.74 33.7477 255.48 21.3277 258.29 8.35766Z" fill="#5F1516"/>
<path fill-rule="evenodd" clip-rule="evenodd" d="M460.77 6.11768C469.89 10.0677 475.48 23.7477 479.33 39.7477C481.48 48.7477 480.64 58.6177 481.99 67.6877C483.22 75.8977 486.69 83.3677 487.75 89.6177C489.275 98.1979 489.978 106.904 489.85 115.618C489.16 147.908 474.47 173.498 440.76 195.478C356.56 250.368 243.21 262.638 129.76 264.688C31.67 266.468 3.46997 273.688 3.46997 273.688L32.47 212.438C38.73 199.188 229.23 208.908 309.21 192.078C396.81 173.638 463.21 140.458 462.28 45.0777C462.23 38.6477 461.2 13.0277 460.77 6.11768Z" fill="#B02227"/>
<path fill-rule="evenodd" clip-rule="evenodd" d="M481.32 60.8677C481.46 63.1677 481.66 65.4577 481.99 67.6877C483.22 75.8977 486.69 83.3677 487.75 89.6177C489.275 98.1979 489.978 106.904 489.85 115.618C489.16 147.908 474.47 173.498 440.76 195.478C376.26 237.478 294.65 254.568 209.01 261.158C222.91 244.178 237.48 229.748 237.48 229.748L290.89 195.278C297.47 194.338 303.63 193.278 309.24 192.118C327.143 188.478 344.79 183.678 362.07 177.748C358.84 189.008 355.17 201.748 352.5 210.868C346.5 231.198 376.37 223.758 417.07 197.488C457.77 171.218 476.76 154.858 480.07 135.488C482.96 118.048 479.25 93.2777 481.32 60.8677Z" fill="#881F22"/>
<path fill-rule="evenodd" clip-rule="evenodd" d="M61.53 267.237L54.91 267.667C56.85 262.257 59.25 255.727 61.91 248.667C67 235.007 73.02 219.207 78.39 205.447L85.02 205.167C79.5 219.277 73.12 235.997 67.73 250.467C65.41 256.607 63.31 262.317 61.53 267.237Z" fill="#E4BE6E"/>
<path fill-rule="evenodd" clip-rule="evenodd" d="M20.96 270.848C18.4533 271.168 16.2433 271.468 14.33 271.748C21.26 249.648 31.57 229.598 40.77 208.838C42.37 208.508 44.2 208.208 46.21 207.928C37.42 228.748 27.89 249.018 20.96 270.848Z" fill="#E4BE6E"/>
<path fill-rule="evenodd" clip-rule="evenodd" d="M48.48 207.627L50.01 207.447C50.1352 209.26 50.9599 210.952 52.3099 212.167C52.4599 212.307 52.61 212.438 52.78 212.568C53.9307 213.498 55.2621 214.179 56.6899 214.568C58.1952 214.987 59.7672 215.113 61.3199 214.938C64.5642 214.632 67.5606 213.071 69.6699 210.587C70.8203 209.193 71.6133 207.538 71.98 205.767L73.61 205.688C73.2765 207.988 72.3184 210.153 70.84 211.947C68.523 214.689 65.2236 216.412 61.65 216.747C59.9303 216.949 58.1878 216.813 56.52 216.348C54.869 215.896 53.3298 215.105 52 214.027L51.4399 213.527C49.7296 212.003 48.6581 209.888 48.4399 207.607L48.48 207.627ZM55.34 206.897C55.5423 207.832 56.0235 208.683 56.72 209.337C57.3291 209.89 58.0809 210.261 58.89 210.408C59.6619 210.567 60.4581 210.567 61.23 210.408C62.367 210.176 63.4228 209.648 64.29 208.877C65.1046 208.128 65.7109 207.181 66.0499 206.127L64.16 206.247C63.9184 206.664 63.615 207.042 63.26 207.368C62.5548 207.987 61.6998 208.411 60.78 208.597C60.1792 208.717 59.5608 208.717 58.96 208.597C58.4471 208.502 57.968 208.275 57.5699 207.938C57.2332 207.616 56.9911 207.207 56.87 206.757L55.34 206.897ZM58.23 206.647C58.292 206.753 58.3742 206.846 58.472 206.919C58.5699 206.993 58.6813 207.047 58.7999 207.077C59.2702 207.188 59.7597 207.188 60.23 207.077C60.6871 206.963 61.1114 206.743 61.47 206.438L58.23 206.647Z" fill="#E4BE6E"/>
<path fill-rule="evenodd" clip-rule="evenodd" d="M60.21 213.087C60.2564 212.97 60.2769 212.843 60.2701 212.717C60.2632 212.591 60.2292 212.467 60.1703 212.355C60.1115 212.243 60.0292 212.145 59.929 212.068C59.8289 211.991 59.7133 211.936 59.59 211.907C59.3308 211.833 59.0537 211.855 58.8094 211.969C58.5651 212.083 58.37 212.281 58.2601 212.527C58.2155 212.646 58.1966 212.772 58.2049 212.899C58.2131 213.025 58.2483 213.148 58.3079 213.26C58.3675 213.372 58.4503 213.469 58.5507 213.546C58.6511 213.624 58.7668 213.678 58.8901 213.707C59.1479 213.781 59.4236 213.758 59.6662 213.644C59.9088 213.531 60.102 213.333 60.21 213.087Z" fill="#E4BE6E"/>
<path fill-rule="evenodd" clip-rule="evenodd" d="M56.0999 211.207C56.1463 211.09 56.1668 210.963 56.16 210.837C56.1531 210.711 56.1191 210.587 56.0602 210.475C56.0014 210.363 55.9191 210.265 55.8189 210.188C55.7188 210.111 55.6032 210.056 55.4799 210.027C55.2221 209.954 54.9464 209.976 54.7038 210.09C54.4612 210.204 54.268 210.402 54.16 210.647C54.1136 210.765 54.0931 210.891 54.0999 211.018C54.1068 211.144 54.1408 211.267 54.1997 211.379C54.2585 211.491 54.3407 211.589 54.4409 211.667C54.541 211.744 54.6567 211.799 54.78 211.827C55.0378 211.901 55.3133 211.879 55.556 211.765C55.7986 211.651 55.9919 211.453 56.0999 211.207Z" fill="#E4BE6E"/>
<path fill-rule="evenodd" clip-rule="evenodd" d="M51.89 207.237L53.89 207.027C53.9542 207.205 53.9542 207.4 53.89 207.577C53.7837 207.824 53.5907 208.023 53.3475 208.138C53.1044 208.252 52.8277 208.273 52.5699 208.197C52.3603 208.146 52.1762 208.02 52.0514 207.844C51.9266 207.668 51.8693 207.452 51.89 207.237Z" fill="#E4BE6E"/>
<path fill-rule="evenodd" clip-rule="evenodd" d="M64.8599 211.948C64.9063 211.83 64.9268 211.704 64.92 211.577C64.9131 211.451 64.8791 211.328 64.8203 211.216C64.7614 211.104 64.6791 211.006 64.5789 210.928C64.4788 210.851 64.3632 210.796 64.2399 210.768C63.9821 210.694 63.7064 210.716 63.4638 210.83C63.2212 210.944 63.0279 211.142 62.9199 211.388C62.8735 211.505 62.8531 211.632 62.8599 211.758C62.8668 211.884 62.9007 212.008 62.9595 212.12C63.0184 212.232 63.1007 212.33 63.2009 212.407C63.301 212.484 63.4167 212.539 63.54 212.568C63.7977 212.646 64.0752 212.625 64.3189 212.511C64.5627 212.396 64.7554 212.196 64.8599 211.948Z" fill="#E4BE6E"/>
<path fill-rule="evenodd" clip-rule="evenodd" d="M68.61 208.747C68.6547 208.63 68.6739 208.504 68.6663 208.378C68.6587 208.252 68.6243 208.129 68.5657 208.018C68.5071 207.906 68.4255 207.808 68.3262 207.731C68.227 207.653 68.1124 207.597 67.99 207.567C67.7308 207.496 67.4545 207.519 67.2107 207.632C66.9669 207.746 66.7717 207.943 66.6601 208.187C66.6154 208.305 66.5962 208.431 66.6038 208.557C66.6114 208.683 66.6457 208.806 66.7043 208.917C66.7629 209.029 66.8445 209.126 66.9438 209.204C67.043 209.282 67.1577 209.337 67.2801 209.367C67.5393 209.441 67.8164 209.419 68.0607 209.306C68.305 209.192 68.5001 208.994 68.61 208.747Z" fill="#E4BE6E"/>
<path fill-rule="evenodd" clip-rule="evenodd" d="M49.94 229.747C49.713 229.685 49.5154 229.544 49.3819 229.35C49.2483 229.157 49.1874 228.922 49.21 228.687C49.2014 228.581 49.2169 228.474 49.2553 228.374C49.2937 228.275 49.3541 228.185 49.4319 228.112C49.5098 228.039 49.603 227.985 49.7049 227.953C49.8067 227.921 49.9144 227.912 50.0201 227.927C50.299 227.998 50.5911 227.998 50.87 227.927C51.1604 227.859 51.4288 227.718 51.6501 227.517C51.8275 227.375 51.9596 227.184 52.0301 226.967C52.0602 226.856 52.0602 226.739 52.0301 226.627C52.0022 226.531 51.9652 226.437 51.92 226.347C51.8602 226.256 51.7859 226.175 51.7 226.107C51.404 225.912 51.0544 225.814 50.7 225.827C50.1935 225.834 49.6974 225.972 49.26 226.227C48.8073 226.482 48.4361 226.86 48.19 227.317C47.9047 227.897 47.8305 228.559 47.98 229.187C48.0712 229.739 48.3419 230.245 48.75 230.627C49.1387 230.975 49.6166 231.207 50.13 231.297C50.7308 231.417 51.3492 231.417 51.95 231.297C52.8706 231.113 53.7261 230.689 54.43 230.067C55.2915 229.29 55.8362 228.222 55.96 227.067C56.0662 226.041 55.7805 225.012 55.1601 224.187C54.8124 223.715 54.4242 223.273 54 222.867C52.8749 221.754 51.3887 221.08 49.81 220.967C48.3036 220.899 46.8137 221.305 45.55 222.127C45.1418 222.384 44.7541 222.671 44.3901 222.987L43.98 223.377C42.4347 224.884 41.4533 226.874 41.2 229.017C41.1088 230.084 41.2674 231.157 41.6631 232.152C42.0589 233.146 42.681 234.035 43.48 234.747C43.6263 234.892 43.7798 235.029 43.94 235.157C45.0957 236.086 46.43 236.767 47.86 237.157C49.3615 237.579 50.9313 237.702 52.48 237.517C55.7246 237.221 58.723 235.662 60.83 233.177C62.1128 231.628 62.9464 229.757 63.24 227.767C63.5291 225.817 63.2406 223.825 62.4101 222.037C61.0901 219.207 58.35 216.727 53.93 215.367C53.7112 215.28 53.5276 215.123 53.4081 214.92C53.2886 214.718 53.2401 214.481 53.2701 214.247C53.2705 214.142 53.2953 214.038 53.3427 213.944C53.3901 213.85 53.4587 213.769 53.543 213.706C53.6274 213.643 53.7252 213.6 53.8288 213.581C53.9324 213.562 54.039 213.568 54.1401 213.597C59.0801 215.117 62.21 217.997 63.75 221.307C64.7591 223.493 65.1067 225.926 64.75 228.307C64.416 230.606 63.4618 232.77 61.99 234.567C59.6755 237.306 56.38 239.03 52.81 239.367C51.0869 239.569 49.3412 239.433 47.67 238.967C46.0191 238.51 44.4805 237.717 43.1501 236.637C42.9601 236.477 42.77 236.317 42.6 236.147C41.53 235.203 40.7 234.018 40.1784 232.689C39.6568 231.361 39.4585 229.928 39.6 228.507C39.8814 225.972 41.0253 223.61 42.84 221.817C42.98 221.677 43.14 221.527 43.32 221.377C43.7306 221.007 44.1723 220.672 44.6401 220.377C46.1276 219.423 47.874 218.951 49.6401 219.027C51.5835 219.177 53.4111 220.01 54.8 221.377C55.3208 221.87 55.7962 222.409 56.22 222.987C57.172 224.253 57.608 225.833 57.44 227.407C57.2778 228.938 56.5674 230.359 55.44 231.407C54.5717 232.177 53.5165 232.704 52.38 232.937C51.6082 233.097 50.8119 233.097 50.0401 232.937C49.2377 232.785 48.4913 232.419 47.88 231.877C47.1283 231.131 46.6237 230.171 46.4341 229.129C46.2446 228.086 46.3792 227.011 46.82 226.047C47.1793 225.388 47.7058 224.835 48.3465 224.444C48.9871 224.052 49.7195 223.836 50.47 223.817C51.1852 223.787 51.8899 223.998 52.47 224.417C52.7737 224.64 53.0288 224.923 53.22 225.247C53.3772 225.516 53.4951 225.805 53.57 226.107C53.7103 226.587 53.7103 227.097 53.57 227.577C53.4243 228.079 53.1401 228.53 52.75 228.877C52.374 229.208 51.925 229.444 51.44 229.567C50.9623 229.749 50.4472 229.811 49.94 229.747Z" fill="#E4BE6E"/>
<path fill-rule="evenodd" clip-rule="evenodd" d="M51.3599 235.747C51.4045 235.629 51.4234 235.502 51.4151 235.376C51.4069 235.25 51.3717 235.127 51.3121 235.015C51.2525 234.903 51.1697 234.806 51.0693 234.728C50.9689 234.651 50.8532 234.596 50.7299 234.567C50.4721 234.492 50.1956 234.513 49.9525 234.627C49.7093 234.742 49.5163 234.941 49.41 235.187C49.3636 235.305 49.3431 235.432 49.3499 235.558C49.3568 235.684 49.3908 235.808 49.4497 235.92C49.5085 236.032 49.5907 236.13 49.6909 236.207C49.791 236.284 49.9067 236.339 50.03 236.367C50.2892 236.439 50.5655 236.416 50.8093 236.303C51.0531 236.189 51.2483 235.992 51.3599 235.747Z" fill="#E4BE6E"/>
<path fill-rule="evenodd" clip-rule="evenodd" d="M47.2501 233.838C47.2946 233.719 47.3134 233.592 47.3051 233.466C47.2969 233.34 47.2618 233.217 47.2022 233.105C47.1426 232.993 47.0598 232.896 46.9594 232.818C46.859 232.741 46.7433 232.686 46.62 232.658C46.3623 232.58 46.0848 232.6 45.8411 232.714C45.5974 232.829 45.4046 233.029 45.3 233.278C45.2553 233.395 45.2362 233.521 45.2438 233.647C45.2515 233.773 45.2857 233.896 45.3443 234.007C45.4029 234.119 45.4845 234.217 45.5838 234.294C45.683 234.372 45.7976 234.427 45.92 234.458C46.1792 234.529 46.4556 234.506 46.6994 234.393C46.9432 234.279 47.1384 234.082 47.2501 233.838Z" fill="#E4BE6E"/>
<path fill-rule="evenodd" clip-rule="evenodd" d="M45.04 230.207C45.0846 230.089 45.1033 229.962 45.095 229.836C45.0868 229.71 45.0516 229.587 44.992 229.475C44.9324 229.363 44.8497 229.265 44.7493 229.188C44.6489 229.111 44.5332 229.056 44.41 229.027C44.1522 228.952 43.8756 228.973 43.6324 229.087C43.3892 229.201 43.1963 229.401 43.0899 229.647C43.0435 229.765 43.023 229.891 43.0299 230.018C43.0367 230.144 43.0707 230.267 43.1296 230.379C43.1884 230.491 43.2708 230.589 43.3709 230.667C43.4711 230.744 43.5867 230.799 43.7099 230.827C43.9691 230.899 44.2454 230.876 44.4892 230.763C44.733 230.649 44.9284 230.452 45.04 230.207Z" fill="#E4BE6E"/>
<path fill-rule="evenodd" clip-rule="evenodd" d="M45.7999 226.307C45.8445 226.189 45.8633 226.062 45.855 225.936C45.8468 225.81 45.8116 225.687 45.752 225.575C45.6924 225.463 45.6096 225.365 45.5092 225.288C45.4088 225.211 45.2931 225.156 45.1699 225.127C44.9121 225.054 44.6365 225.076 44.3939 225.19C44.1512 225.304 43.958 225.502 43.8499 225.747C43.8035 225.865 43.783 225.991 43.7899 226.118C43.7967 226.244 43.8307 226.368 43.8896 226.479C43.9484 226.591 44.0308 226.689 44.1309 226.767C44.2311 226.844 44.3467 226.899 44.4699 226.927C44.7291 226.999 45.0054 226.976 45.2492 226.863C45.493 226.749 45.6883 226.552 45.7999 226.307Z" fill="#E4BE6E"/>
<path fill-rule="evenodd" clip-rule="evenodd" d="M56.01 234.578C56.0547 234.46 56.0737 234.334 56.0661 234.208C56.0585 234.082 56.0243 233.959 55.9656 233.848C55.907 233.736 55.8254 233.639 55.7261 233.561C55.6269 233.483 55.5123 233.428 55.39 233.398C55.1308 233.324 54.8535 233.345 54.6092 233.459C54.3649 233.573 54.1699 233.771 54.0599 234.018C54.0135 234.135 53.9931 234.262 54 234.388C54.0068 234.514 54.0407 234.638 54.0996 234.75C54.1584 234.862 54.2407 234.96 54.3409 235.037C54.441 235.114 54.5566 235.169 54.6799 235.198C54.9391 235.272 55.2163 235.25 55.4606 235.136C55.7049 235.022 55.9 234.824 56.01 234.578Z" fill="#E4BE6E"/>
<path fill-rule="evenodd" clip-rule="evenodd" d="M59.75 231.357C59.7963 231.24 59.8169 231.113 59.81 230.987C59.8032 230.861 59.7691 230.737 59.7103 230.625C59.6514 230.513 59.5691 230.415 59.4689 230.338C59.3688 230.261 59.2532 230.206 59.13 230.177C58.8722 230.102 58.5955 230.123 58.3524 230.237C58.1092 230.351 57.9162 230.551 57.8099 230.797C57.7635 230.915 57.7431 231.041 57.75 231.168C57.7568 231.294 57.7907 231.417 57.8496 231.529C57.9084 231.641 57.9907 231.739 58.0909 231.817C58.191 231.894 58.3066 231.949 58.4299 231.977C58.6877 232.053 58.9643 232.032 59.2075 231.918C59.4506 231.803 59.6436 231.604 59.75 231.357Z" fill="#E4BE6E"/>
<path fill-rule="evenodd" clip-rule="evenodd" d="M61.13 227.337C61.1764 227.22 61.1968 227.095 61.1899 226.969C61.183 226.843 61.1489 226.72 61.0899 226.609C61.031 226.498 60.9486 226.401 60.8485 226.325C60.7483 226.248 60.6329 226.195 60.51 226.167C60.2522 226.089 59.9748 226.11 59.731 226.224C59.4873 226.338 59.2945 226.539 59.1899 226.787C59.1435 226.905 59.1231 227.031 59.13 227.158C59.1368 227.284 59.1707 227.407 59.2296 227.519C59.2884 227.631 59.3708 227.729 59.4709 227.807C59.571 227.884 59.6866 227.939 59.8099 227.967C60.0689 228.04 60.3455 228.016 60.5883 227.9C60.8311 227.785 61.0236 227.584 61.13 227.337Z" fill="#E4BE6E"/>
<path fill-rule="evenodd" clip-rule="evenodd" d="M60.48 223.087C60.5247 222.969 60.5439 222.843 60.5363 222.718C60.5287 222.592 60.4943 222.469 60.4357 222.358C60.3771 222.246 60.2955 222.148 60.1962 222.071C60.097 221.993 59.9824 221.937 59.86 221.907C59.6008 221.835 59.3245 221.858 59.0807 221.972C58.8369 222.086 58.6417 222.283 58.5301 222.527C58.4854 222.645 58.4662 222.771 58.4738 222.897C58.4814 223.023 58.5157 223.145 58.5743 223.257C58.6329 223.368 58.7145 223.466 58.8138 223.544C58.913 223.622 59.0277 223.677 59.1501 223.707C59.4092 223.783 59.6872 223.763 59.9321 223.648C60.1769 223.534 60.3717 223.335 60.48 223.087Z" fill="#E4BE6E"/>
<path fill-rule="evenodd" clip-rule="evenodd" d="M57.6699 220.057C57.7163 219.94 57.7369 219.815 57.73 219.689C57.7231 219.563 57.6889 219.441 57.63 219.329C57.571 219.218 57.4887 219.121 57.3885 219.045C57.2884 218.968 57.1728 218.915 57.0499 218.887C56.7907 218.811 56.5128 218.832 56.2679 218.946C56.0231 219.06 55.8282 219.26 55.72 219.507C55.677 219.626 55.6596 219.752 55.6686 219.878C55.6776 220.004 55.7129 220.126 55.7723 220.238C55.8317 220.349 55.9138 220.446 56.0133 220.524C56.1128 220.601 56.2275 220.657 56.35 220.687C56.609 220.76 56.8856 220.736 57.1284 220.621C57.3712 220.505 57.5636 220.304 57.6699 220.057Z" fill="#E4BE6E"/>
<path fill-rule="evenodd" clip-rule="evenodd" d="M53.59 217.957C53.6364 217.84 53.6569 217.713 53.6501 217.587C53.6432 217.461 53.6092 217.337 53.5504 217.225C53.4915 217.113 53.4092 217.015 53.309 216.938C53.2089 216.861 53.0933 216.806 52.97 216.777C52.7109 216.701 52.4328 216.722 52.1879 216.836C51.9431 216.951 51.7484 217.15 51.6401 217.397C51.5955 217.516 51.5766 217.643 51.5849 217.769C51.5932 217.895 51.6283 218.018 51.6879 218.13C51.7476 218.242 51.8303 218.339 51.9307 218.417C52.0311 218.494 52.1468 218.549 52.2701 218.577C52.5279 218.651 52.8036 218.629 53.0462 218.515C53.2888 218.401 53.482 218.203 53.59 217.957Z" fill="#E4BE6E"/>
<path fill-rule="evenodd" clip-rule="evenodd" d="M48.66 223.477C48.7046 223.36 48.7232 223.234 48.7149 223.108C48.7066 222.982 48.6714 222.86 48.6116 222.749C48.5519 222.638 48.4691 222.541 48.3687 222.465C48.2684 222.389 48.1529 222.335 48.03 222.307C47.7734 222.231 47.4977 222.251 47.2547 222.363C47.0117 222.475 46.818 222.673 46.7099 222.917C46.6635 223.035 46.643 223.161 46.6498 223.288C46.6567 223.414 46.6907 223.537 46.7496 223.649C46.8084 223.761 46.8908 223.859 46.9909 223.937C47.0911 224.014 47.2067 224.069 47.3299 224.097C47.5891 224.174 47.8672 224.153 48.112 224.039C48.3568 223.924 48.5517 223.725 48.66 223.477Z" fill="#E4BE6E"/>
<path fill-rule="evenodd" clip-rule="evenodd" d="M41.09 252.337C40.8593 252.277 40.658 252.136 40.5223 251.939C40.3866 251.743 40.3254 251.505 40.35 251.268C40.3445 251.161 40.3626 251.055 40.4029 250.957C40.4432 250.859 40.5048 250.771 40.5832 250.699C40.6615 250.627 40.7548 250.574 40.8562 250.543C40.9577 250.511 41.0648 250.503 41.17 250.518C41.4495 250.583 41.7405 250.583 42.0201 250.518C42.3074 250.448 42.5724 250.307 42.7901 250.108C42.9678 249.961 43.0996 249.767 43.17 249.548C43.1997 249.436 43.1997 249.319 43.17 249.208C43.1465 249.109 43.1095 249.015 43.06 248.927C43.0002 248.836 42.926 248.755 42.84 248.688C42.544 248.492 42.1944 248.394 41.84 248.408C41.3335 248.414 40.8374 248.552 40.4001 248.807C39.9473 249.062 39.5761 249.44 39.33 249.897C39.044 250.481 38.9698 251.145 39.12 251.777C39.22 252.326 39.4893 252.83 39.8901 253.218C40.2853 253.553 40.7608 253.78 41.2701 253.878C41.8742 253.997 42.4959 253.997 43.1 253.878C44.0167 253.691 44.8684 253.266 45.57 252.647C46.4315 251.87 46.9762 250.802 47.1 249.647C47.2129 248.624 46.9263 247.595 46.3 246.777C45.9523 246.305 45.5642 245.863 45.1401 245.458C44.0175 244.347 42.5352 243.673 40.96 243.557C39.4505 243.489 37.9574 243.895 36.69 244.718C36.2834 244.972 35.8988 245.259 35.5401 245.578C35.4101 245.688 35.27 245.828 35.12 245.968C33.5811 247.477 32.6038 249.467 32.35 251.608C32.2419 252.69 32.3921 253.783 32.7885 254.797C33.1848 255.81 33.816 256.715 34.63 257.438C34.78 257.578 34.93 257.718 35.1 257.848C36.2507 258.778 37.5822 259.459 39.01 259.848C40.5152 260.268 42.088 260.39 43.6401 260.208C46.8837 259.908 49.881 258.35 51.99 255.867C53.2662 254.315 54.0959 252.445 54.3901 250.458C54.6791 248.507 54.3905 246.515 53.56 244.727C52.25 241.897 49.5 239.417 45.09 238.057C44.8694 237.972 44.6836 237.816 44.5622 237.613C44.4408 237.41 44.3907 237.172 44.42 236.938C44.4224 236.832 44.449 236.728 44.4975 236.634C44.5459 236.539 44.6151 236.457 44.6999 236.394C44.7846 236.33 44.8825 236.287 44.9865 236.267C45.0905 236.247 45.1976 236.25 45.3 236.277C50.24 237.797 53.3601 240.688 54.9001 243.997C55.9137 246.182 56.2615 248.617 55.9001 250.998C55.5705 253.297 54.6158 255.463 53.1401 257.257C50.8211 259.996 47.5226 261.719 43.95 262.057C42.2297 262.26 40.4862 262.121 38.82 261.647C37.1696 261.199 35.6304 260.412 34.3 259.337L33.74 258.837C32.6701 257.893 31.84 256.708 31.3184 255.379C30.7968 254.051 30.5985 252.618 30.74 251.197C31.0214 248.662 32.1653 246.3 33.98 244.507L34.46 244.068C34.8725 243.699 35.314 243.365 35.7801 243.068C37.2669 242.112 39.0146 241.643 40.7801 241.727C42.7232 241.87 44.5521 242.7 45.94 244.068C46.4599 244.558 46.9321 245.097 47.35 245.677C48.3066 246.941 48.7431 248.522 48.57 250.098C48.4034 251.627 47.6938 253.046 46.57 254.098C45.7194 254.859 44.6856 255.386 43.57 255.628C42.7948 255.787 41.9952 255.787 41.22 255.628C40.4161 255.474 39.6693 255.104 39.06 254.557C38.3165 253.807 37.8219 252.846 37.643 251.805C37.4641 250.764 37.6097 249.693 38.06 248.738C38.4283 248.04 38.9865 247.461 39.67 247.068C40.278 246.714 40.9665 246.521 41.67 246.507C42.368 246.489 43.0529 246.7 43.62 247.108C43.9183 247.333 44.1696 247.615 44.36 247.938C44.5202 248.206 44.6414 248.495 44.72 248.798C44.8503 249.282 44.8503 249.793 44.72 250.277C44.5775 250.775 44.2925 251.22 43.9001 251.557C43.5294 251.892 43.0834 252.132 42.6 252.257C42.1098 252.402 41.5927 252.429 41.09 252.337Z" fill="#E4BE6E"/>
<path fill-rule="evenodd" clip-rule="evenodd" d="M42.48 258.348C42.5264 258.23 42.5469 258.104 42.5401 257.977C42.5332 257.851 42.4992 257.728 42.4404 257.616C42.3815 257.504 42.2992 257.406 42.199 257.328C42.0989 257.251 41.9833 257.196 41.86 257.168C41.6008 257.094 41.3237 257.116 41.0794 257.229C40.8351 257.343 40.6401 257.541 40.5301 257.788C40.4854 257.905 40.4662 258.031 40.4738 258.157C40.4814 258.283 40.5157 258.406 40.5743 258.517C40.6329 258.629 40.7145 258.727 40.8138 258.804C40.913 258.882 41.0277 258.938 41.1501 258.968C41.4093 259.039 41.6856 259.016 41.9294 258.903C42.1732 258.789 42.3684 258.592 42.48 258.348Z" fill="#E4BE6E"/>
<path fill-rule="evenodd" clip-rule="evenodd" d="M38.39 256.468C38.4364 256.35 38.4567 256.224 38.4499 256.097C38.4431 255.971 38.4091 255.848 38.3503 255.736C38.2914 255.624 38.2091 255.526 38.109 255.448C38.0088 255.371 37.8932 255.316 37.77 255.288C37.5108 255.214 37.2335 255.236 36.9892 255.35C36.7449 255.463 36.5499 255.662 36.4399 255.908C36.3953 256.026 36.3766 256.153 36.3848 256.279C36.3931 256.405 36.4281 256.529 36.4877 256.64C36.5474 256.752 36.6301 256.85 36.7305 256.927C36.8309 257.004 36.9466 257.059 37.0699 257.088C37.3277 257.161 37.6034 257.139 37.846 257.025C38.0886 256.911 38.2819 256.713 38.39 256.468Z" fill="#E4BE6E"/>
<path fill-rule="evenodd" clip-rule="evenodd" d="M36.18 252.837C36.2247 252.72 36.2439 252.594 36.2363 252.468C36.2286 252.342 36.1944 252.219 36.1358 252.108C36.0772 251.996 35.9955 251.898 35.8963 251.821C35.797 251.743 35.6824 251.687 35.56 251.657C35.3008 251.581 35.0228 251.602 34.778 251.716C34.5332 251.83 34.3383 252.03 34.23 252.277C34.1853 252.395 34.1661 252.521 34.1738 252.647C34.1814 252.773 34.2157 252.895 34.2743 253.007C34.3329 253.119 34.4146 253.216 34.5138 253.294C34.6131 253.372 34.7276 253.427 34.85 253.457C35.1092 253.531 35.3864 253.509 35.6307 253.396C35.875 253.282 36.07 253.083 36.18 252.837Z" fill="#E4BE6E"/>
<path fill-rule="evenodd" clip-rule="evenodd" d="M36.94 248.937C36.9864 248.82 37.0069 248.693 37 248.567C36.9932 248.441 36.9592 248.317 36.9003 248.205C36.8415 248.093 36.7592 247.995 36.6591 247.918C36.559 247.841 36.4432 247.786 36.32 247.757C36.0608 247.686 35.7845 247.708 35.5407 247.822C35.2969 247.936 35.1017 248.133 34.99 248.377C34.9453 248.495 34.9261 248.621 34.9338 248.747C34.9414 248.873 34.9757 248.995 35.0343 249.107C35.093 249.219 35.1746 249.316 35.2738 249.394C35.3731 249.472 35.4877 249.527 35.61 249.557C35.8692 249.631 36.1464 249.609 36.3907 249.496C36.635 249.382 36.83 249.183 36.94 248.937Z" fill="#E4BE6E"/>
<path fill-rule="evenodd" clip-rule="evenodd" d="M47.15 257.207C47.1964 257.09 47.2168 256.963 47.2099 256.837C47.2031 256.711 47.1691 256.587 47.1103 256.475C47.0515 256.363 46.9691 256.265 46.869 256.188C46.7688 256.111 46.6532 256.056 46.53 256.027C46.2708 255.953 45.9935 255.975 45.7492 256.089C45.5049 256.203 45.3099 256.401 45.1999 256.647C45.1553 256.766 45.1366 256.893 45.1448 257.019C45.1531 257.145 45.1881 257.268 45.2477 257.38C45.3074 257.492 45.3902 257.589 45.4905 257.667C45.5909 257.744 45.7066 257.799 45.8299 257.827C46.0877 257.903 46.3643 257.882 46.6075 257.768C46.8507 257.653 47.0436 257.454 47.15 257.207Z" fill="#E4BE6E"/>
<path fill-rule="evenodd" clip-rule="evenodd" d="M50.9 253.987C50.9447 253.869 50.9638 253.743 50.9561 253.618C50.9485 253.492 50.9143 253.369 50.8557 253.258C50.7971 253.146 50.7154 253.048 50.6162 252.971C50.5169 252.893 50.4024 252.837 50.28 252.807C50.0208 252.731 49.7427 252.752 49.4979 252.866C49.253 252.98 49.0582 253.18 48.9499 253.427C48.9035 253.545 48.8831 253.671 48.89 253.798C48.8968 253.924 48.9307 254.047 48.9896 254.159C49.0484 254.271 49.1308 254.369 49.2309 254.447C49.3311 254.524 49.4467 254.579 49.5699 254.607C49.8291 254.681 50.1064 254.659 50.3507 254.545C50.595 254.432 50.79 254.233 50.9 253.987Z" fill="#E4BE6E"/>
<path fill-rule="evenodd" clip-rule="evenodd" d="M52.28 249.968C52.3247 249.85 52.3437 249.725 52.336 249.6C52.3283 249.475 52.294 249.353 52.2353 249.242C52.1766 249.131 52.0949 249.034 51.9957 248.958C51.8965 248.881 51.782 248.826 51.66 248.798C51.4008 248.721 51.1227 248.742 50.8779 248.856C50.633 248.971 50.4382 249.17 50.3299 249.418C50.2852 249.535 50.2662 249.66 50.2739 249.785C50.2816 249.91 50.3159 250.032 50.3746 250.143C50.4333 250.254 50.515 250.351 50.6142 250.428C50.7134 250.504 50.8279 250.559 50.9499 250.588C51.2091 250.664 51.4872 250.643 51.732 250.529C51.9769 250.415 52.1717 250.215 52.28 249.968Z" fill="#E4BE6E"/>
<path fill-rule="evenodd" clip-rule="evenodd" d="M51.5799 245.747C51.6263 245.63 51.6468 245.503 51.64 245.377C51.6331 245.251 51.5991 245.127 51.5402 245.015C51.4814 244.903 51.3992 244.805 51.299 244.728C51.1989 244.651 51.0832 244.596 50.9599 244.567C50.7021 244.492 50.4256 244.513 50.1824 244.627C49.9393 244.742 49.7463 244.941 49.64 245.187C49.5936 245.305 49.5731 245.432 49.5799 245.558C49.5867 245.684 49.6208 245.808 49.6796 245.92C49.7385 246.032 49.8207 246.13 49.9208 246.207C50.021 246.284 50.1367 246.339 50.26 246.367C50.5178 246.441 50.7934 246.419 51.0361 246.305C51.2787 246.191 51.4718 245.993 51.5799 245.747Z" fill="#E4BE6E"/>
<path fill-rule="evenodd" clip-rule="evenodd" d="M48.8199 242.687C48.8646 242.57 48.8838 242.445 48.8761 242.32C48.8684 242.195 48.8339 242.073 48.7752 241.962C48.7165 241.851 48.6348 241.754 48.5356 241.677C48.4364 241.601 48.3219 241.546 48.1999 241.517C47.9408 241.439 47.6619 241.459 47.4165 241.573C47.1711 241.688 46.9765 241.888 46.87 242.137C46.8236 242.254 46.8031 242.38 46.81 242.506C46.8169 242.632 46.8509 242.754 46.9099 242.865C46.9688 242.977 47.0513 243.074 47.1515 243.15C47.2516 243.226 47.3671 243.28 47.49 243.307C47.7491 243.384 48.0272 243.363 48.2721 243.249C48.5169 243.134 48.7116 242.935 48.8199 242.687Z" fill="#E4BE6E"/>
<path fill-rule="evenodd" clip-rule="evenodd" d="M44.7299 240.588C44.7763 240.47 44.7968 240.343 44.79 240.217C44.7831 240.091 44.7491 239.967 44.6903 239.855C44.6314 239.743 44.5491 239.645 44.4489 239.568C44.3488 239.491 44.2332 239.436 44.1099 239.408C43.8522 239.33 43.5747 239.35 43.331 239.464C43.0873 239.579 42.8946 239.779 42.79 240.028C42.7436 240.145 42.7231 240.272 42.7299 240.398C42.7368 240.524 42.7708 240.648 42.8297 240.76C42.8885 240.872 42.9707 240.97 43.0709 241.047C43.171 241.124 43.2867 241.179 43.41 241.208C43.6678 241.281 43.9433 241.259 44.186 241.145C44.4286 241.031 44.6219 240.833 44.7299 240.588Z" fill="#E4BE6E"/>
<path fill-rule="evenodd" clip-rule="evenodd" d="M39.7999 246.108C39.8446 245.99 39.8638 245.864 39.8561 245.738C39.8485 245.612 39.8143 245.49 39.7557 245.378C39.6971 245.267 39.6154 245.169 39.5162 245.091C39.4169 245.013 39.3022 244.958 39.1799 244.928C38.9195 244.854 38.6414 244.878 38.3969 244.994C38.1524 245.109 37.9581 245.31 37.8499 245.558C37.8018 245.677 37.7803 245.805 37.7869 245.933C37.7935 246.061 37.828 246.186 37.888 246.299C37.948 246.413 38.0321 246.511 38.1343 246.589C38.2366 246.666 38.3545 246.721 38.4799 246.748C38.7401 246.82 39.0177 246.795 39.2607 246.677C39.5037 246.559 39.6953 246.357 39.7999 246.108Z" fill="#E4BE6E"/>
<path fill-rule="evenodd" clip-rule="evenodd" d="M46.6899 268.288L45.14 268.408C45.0158 268.037 44.8722 267.673 44.71 267.318C43.39 264.488 40.64 262.008 36.23 260.648C36.0112 260.561 35.8276 260.404 35.7081 260.201C35.5886 259.998 35.54 259.761 35.5699 259.528C35.5728 259.423 35.5992 259.32 35.6471 259.227C35.695 259.134 35.7632 259.052 35.8467 258.989C35.9302 258.926 36.0268 258.882 36.1295 258.861C36.2322 258.84 36.3383 258.842 36.4399 258.868C41.3799 260.388 44.4999 263.278 46.0499 266.588C46.303 267.139 46.5169 267.707 46.6899 268.288ZM38.96 268.938C38.8295 268.713 38.686 268.496 38.53 268.288C38.1121 267.708 37.64 267.168 37.12 266.678C35.7332 265.309 33.9036 264.479 31.96 264.338C30.1943 264.252 28.446 264.72 26.96 265.678C26.4905 265.97 26.0487 266.305 25.64 266.678C25.46 266.828 25.3 266.978 25.16 267.118C24.1438 268.13 23.3264 269.324 22.75 270.638L24.75 270.398C25.1559 269.742 25.6356 269.134 26.1799 268.588C26.3299 268.448 26.47 268.308 26.6 268.198C26.9606 267.882 27.3451 267.594 27.75 267.338C29.0174 266.515 30.5105 266.109 32.02 266.178C33.5963 266.289 35.08 266.963 36.2 268.078C36.5602 268.383 36.8947 268.717 37.2 269.078L38.96 268.918V268.938ZM34.03 269.408L30.72 269.738C31.3273 269.382 32.0162 269.189 32.72 269.178C33.1679 269.163 33.614 269.241 34.03 269.408Z" fill="#E4BE6E"/>
<path fill-rule="evenodd" clip-rule="evenodd" d="M42.56 268.617L41.0201 268.757C40.8777 268.639 40.7773 268.477 40.7341 268.297C40.6908 268.117 40.707 267.928 40.7801 267.757C40.8917 267.513 41.0869 267.316 41.3307 267.202C41.5745 267.088 41.8508 267.065 42.11 267.137C42.2324 267.167 42.347 267.223 42.4462 267.301C42.5455 267.378 42.6271 267.476 42.6857 267.588C42.7443 267.699 42.7787 267.822 42.7863 267.948C42.7939 268.073 42.7747 268.199 42.73 268.317C42.6912 268.426 42.6336 268.528 42.56 268.617Z" fill="#E4BE6E"/>
<path fill-rule="evenodd" clip-rule="evenodd" d="M39.96 265.318C40.0064 265.201 40.0269 265.075 40.02 264.949C40.013 264.823 39.979 264.701 39.9201 264.59C39.8612 264.478 39.7787 264.381 39.6785 264.305C39.5784 264.229 39.4629 264.175 39.34 264.148C39.0809 264.071 38.8028 264.092 38.5579 264.206C38.3131 264.321 38.1183 264.52 38.0101 264.768C37.967 264.886 37.9491 265.011 37.9575 265.136C37.9658 265.262 38.0004 265.384 38.0588 265.495C38.1172 265.606 38.1981 265.704 38.2964 265.782C38.3948 265.86 38.5085 265.916 38.6301 265.948C38.8905 266.021 39.1685 265.998 39.413 265.882C39.6575 265.766 39.8518 265.566 39.96 265.318Z" fill="#E4BE6E"/>
<path fill-rule="evenodd" clip-rule="evenodd" d="M35.8801 263.207C35.9247 263.09 35.9438 262.965 35.9361 262.84C35.9284 262.714 35.8941 262.592 35.8354 262.482C35.7767 262.371 35.695 262.274 35.5958 262.197C35.4965 262.121 35.3821 262.066 35.2601 262.037C35.0009 261.961 34.7228 261.982 34.478 262.096C34.2331 262.21 34.0383 262.41 33.93 262.657C33.8853 262.775 33.8662 262.901 33.8738 263.027C33.8815 263.153 33.9157 263.275 33.9743 263.387C34.0329 263.498 34.1145 263.596 34.2138 263.674C34.313 263.752 34.4276 263.807 34.55 263.837C34.8104 263.911 35.0886 263.887 35.3331 263.771C35.5775 263.656 35.7718 263.455 35.8801 263.207Z" fill="#E4BE6E"/>
<path fill-rule="evenodd" clip-rule="evenodd" d="M30.94 268.747C30.9864 268.63 31.0069 268.503 31.0001 268.377C30.9932 268.251 30.9592 268.127 30.9003 268.015C30.8415 267.903 30.7593 267.805 30.6591 267.728C30.559 267.651 30.4433 267.596 30.32 267.567C30.0608 267.496 29.7845 267.519 29.5407 267.632C29.2969 267.746 29.1017 267.943 28.99 268.187C28.9455 268.306 28.9266 268.433 28.9349 268.559C28.9431 268.685 28.9783 268.808 29.0379 268.92C29.0975 269.032 29.1803 269.129 29.2807 269.207C29.3811 269.284 29.4968 269.339 29.6201 269.367C29.8778 269.443 30.1544 269.422 30.3975 269.308C30.6407 269.193 30.8336 268.994 30.94 268.747Z" fill="#E4BE6E"/>
<path fill-rule="evenodd" clip-rule="evenodd" d="M461.7 4.48789C466.7 6.64789 470.7 11.3579 473.88 17.6179C476.97 23.6179 479.37 31.1979 481.31 39.3079C482.59 44.6179 482.84 50.1679 483.08 55.6879C483.189 59.5976 483.496 63.4993 484 67.3779C484.747 71.6402 485.831 75.8366 487.24 79.9279C488.281 82.9896 489.119 86.1163 489.75 89.2879C490.53 93.8879 491.11 98.3679 491.46 102.738C491.825 106.998 491.965 111.273 491.88 115.548C491.53 131.978 487.6 146.728 479.47 160.178C471.34 173.628 459.04 185.708 441.92 196.868C399.55 224.498 349.92 241.388 296.6 251.618C243.28 261.848 186.6 265.428 129.79 266.448C31.95 268.218 4.08 275.448 4 275.448L0 276.448L30.62 211.748C34.17 204.228 80.78 203.178 137.29 201.898C196.89 200.548 267.67 198.898 308.81 190.288C352.3 181.128 390.49 168.348 417.6 146.078C444.71 123.808 460.72 92.2079 460.27 45.0779C460.27 42.0779 459.99 34.5279 459.68 26.7879C459.36 18.5479 458.98 9.94789 458.74 6.24789L458.54 3.08789L461.7 4.44789V4.48789ZM470.18 19.2179C468.484 15.5686 466.037 12.3179 463 9.67789C463.21 13.9679 463.48 20.3179 463.73 26.5779C464.03 34.3279 464.29 41.8579 464.32 44.9579C464.77 93.2579 448.15 125.848 420.32 148.728C392.49 171.608 353.77 184.538 309.65 193.828C268.09 202.568 197.08 204.178 137.29 205.528C82.29 206.778 36.87 207.808 34.37 213.078L6.91992 271.138C17.4699 269.188 51.38 264.248 129.86 262.828C186.46 261.828 243.02 258.238 295.86 248.078C348.7 237.918 397.77 221.248 439.59 193.978C456.18 183.158 468.08 171.478 475.9 158.538C483.72 145.598 487.48 131.448 487.82 115.598C487.908 111.441 487.777 107.282 487.43 103.138C487.077 98.8579 486.517 94.4612 485.75 89.9479C485.135 86.9259 484.326 83.9464 483.33 81.0279C481.87 76.791 480.753 72.4437 479.99 68.0279C479.45 64.0478 479.116 60.0425 478.99 56.0279C478.75 50.6579 478.51 45.2479 477.31 40.2579C475.48 32.3179 473.14 25.0079 470.18 19.2179Z" fill="#5F1516"/>
<path fill-rule="evenodd" clip-rule="evenodd" d="M481.91 63.2274C481.73 67.9674 482.28 105.397 482.27 105.437C477.71 99.1174 477.89 71.1674 478.14 63.1174C478.24 60.6674 477.58 46.7874 480.38 47.5874C483.55 46.8074 481.99 60.8274 481.91 63.2274Z" fill="#5F1516"/>
<path fill-rule="evenodd" clip-rule="evenodd" d="M237.48 48.6577C237.31 49.9477 233.48 91.0177 233.48 91.0677C239.56 84.1777 240.01 58.0677 241.24 48.8777C241.8 45.5577 245.62 33.8777 243.08 33.9777C239.92 32.3377 237.8 46.8977 237.48 48.6577Z" fill="#5F1516"/>
<path fill-rule="evenodd" clip-rule="evenodd" d="M260.26 109.158C261.613 116.242 263.857 123.127 266.94 129.648C274.12 143.858 289.94 159.288 291.39 162.288C283.22 159.698 267.8 138.098 263.87 130.918C260.439 124.243 257.971 117.115 256.54 109.748C256.3 108.238 253.08 89.9678 256.75 91.1078C259.35 90.3978 259.64 105.478 260.26 109.158Z" fill="#5F1516"/>
<path fill-rule="evenodd" clip-rule="evenodd" d="M457.48 97.7475C453.19 112.748 448.11 123.678 438.64 136.598C422.25 156.498 388.99 180.528 361.86 184.928C395.86 166.778 408.06 169.688 435.86 134.838C444.86 122.168 449.7 111.468 453.86 96.9075C455.19 91.3675 459.76 57.2875 461.28 58.3575C466.54 55.1975 457.77 96.3675 457.48 97.7475Z" fill="#5F1516"/>
<path fill-rule="evenodd" clip-rule="evenodd" d="M350.82 229.578C338.23 233.978 326.39 239.898 312.24 241.808C309.96 242.118 309.58 239.738 311.8 239.408C325.48 237.408 337.8 232.848 350.49 229.028C351.02 228.868 351.32 229.408 350.82 229.578Z" fill="#5F1516"/>
<path fill-rule="evenodd" clip-rule="evenodd" d="M351.71 224.358C346.067 227.253 340.186 229.655 334.13 231.538C328.6 233.238 320.62 235.948 314.75 235.608C313.84 235.548 313.66 234.768 314.53 234.438C316.97 233.538 319.76 233.308 322.37 232.818C325.67 232.218 328.94 231.558 332.14 230.708C338.683 229.01 345.069 226.758 351.23 223.978C351.67 223.748 352.16 224.138 351.71 224.358Z" fill="#5F1516"/>
<path fill-rule="evenodd" clip-rule="evenodd" d="M340.01 225.888C336.68 226.808 333.28 227.558 329.89 228.288C328.21 228.638 326.53 228.978 324.89 229.338C323.25 229.698 321.48 230.398 319.7 230.098C319.589 230.086 319.484 230.04 319.399 229.968C319.314 229.896 319.253 229.8 319.223 229.692C319.193 229.585 319.195 229.471 319.23 229.365C319.266 229.259 319.332 229.166 319.42 229.098C321.61 227.298 325.88 227.248 328.68 226.828C332.41 226.288 336.1 225.828 339.76 224.938C340.33 224.748 340.6 225.748 340.01 225.888Z" fill="#5F1516"/>
<path fill-rule="evenodd" clip-rule="evenodd" d="M336.04 222.828C332.04 224.158 325.6 225.748 321.04 224.778C320.35 224.628 320.46 224.078 321.04 223.928C323.199 223.557 325.381 223.337 327.57 223.268C330.13 223.023 332.665 222.568 335.15 221.908C336.08 221.658 336.95 222.528 336.04 222.828Z" fill="#5F1516"/>
<path fill-rule="evenodd" clip-rule="evenodd" d="M402.48 242.228C389.56 240.558 376.06 240.558 363.87 236.038C361.87 235.308 363.43 233.038 365.36 233.738C377.3 237.948 390.1 239.378 402.65 241.598C403.19 241.688 403.01 242.288 402.48 242.228Z" fill="#5F1516"/>
<path fill-rule="evenodd" clip-rule="evenodd" d="M396.42 229.817C392.42 229.237 386.28 227.817 383.53 224.927C383.12 224.497 383.62 224.067 384.19 224.197C386.11 224.627 387.85 225.737 389.65 226.477C391.839 227.408 394.113 228.124 396.44 228.617C397.35 228.807 397.36 229.957 396.44 229.817H396.42ZM407.16 238.037C400.857 238.112 394.56 237.637 388.34 236.617C382.85 235.687 374.73 234.567 370.54 231.687C369.89 231.247 370.35 230.477 371.26 230.567C373.79 230.847 376.09 231.867 378.44 232.567C381.44 233.477 384.44 234.327 387.44 234.997C393.891 236.397 400.453 237.22 407.05 237.457C407.54 237.457 407.63 238.007 407.13 238.007L407.16 238.037ZM397.16 234.247C397.73 234.357 398.25 233.417 397.68 233.247C394.343 232.353 391.055 231.285 387.83 230.047C385.38 229.187 382.11 227.357 379.08 227.977C378.53 228.087 378.17 228.647 378.52 228.977C379.63 229.977 381.43 230.157 383.03 230.587L387.66 231.867C390.73 232.747 393.88 233.587 397.11 234.247H397.16Z" fill="#5F1516"/>
<path fill-rule="evenodd" clip-rule="evenodd" d="M251.06 46.5375C250.66 53.3675 250.41 60.1574 250.29 66.9974C250.15 77.5274 251.35 88.6075 252.17 99.1274C253.74 116.627 260.04 128.637 270.25 143.897C273.9 149.277 276.53 153.747 280.58 158.897C282.02 160.677 283.48 162.407 285.06 164.077C285.583 164.616 286.134 165.126 286.71 165.607C286.78 165.607 287.91 166.347 287.91 166.357C287.76 166.627 286.58 166.017 286.45 165.947C285.766 165.549 285.123 165.083 284.53 164.557C282.741 163.018 281.07 161.347 279.53 159.557C275.1 154.637 272.25 150.207 268.4 144.897C257.05 129.017 250.61 116.577 248.81 99.3374C247.81 88.7174 246.47 77.5574 246.55 66.9074C246.63 60.0074 246.86 53.1875 247.26 46.2974C247.26 45.6174 249.02 11.8175 253.47 14.7175C255.72 15.0075 251.32 43.0575 251.06 46.5375Z" fill="#BD624B"/>
<path fill-rule="evenodd" clip-rule="evenodd" d="M411.89 162.198C416.222 159.391 420.303 156.216 424.09 152.708C449.81 126.498 460.16 105.948 464.87 70.7078C465.56 63.1778 465.67 15.9179 465.76 15.5479C469.22 22.2379 467.96 63.1778 467.41 70.9078C463.21 106.818 452.86 128.198 426.84 155.018C422.911 158.724 418.657 162.071 414.13 165.018C413.02 165.708 366.05 194.468 366.7 188.708C365.21 187.618 407.07 165.228 411.89 162.198Z" fill="#BD624B"/>
</svg>
