<svg width="254" height="196" viewBox="0 0 254 196" fill="none" xmlns="http://www.w3.org/2000/svg">
<path fill-rule="evenodd" clip-rule="evenodd" d="M201.736 65.2022L218.886 29.4522C218.886 29.4522 217.036 26.9922 218.886 23.4022C220.736 19.8122 229.886 3.4022 229.886 3.4022C235.216 -0.877804 251.356 4.2822 251.336 11.4922C251.336 13.9922 241.006 34.8522 241.006 34.8522C239.829 36.1733 238.246 37.0666 236.506 37.3922L220.856 74.1322C220.856 74.1322 214.966 85.4822 204.856 80.9022C194.746 76.3222 201.736 65.2022 201.736 65.2022Z" fill="#E4BE6E"/>
<path fill-rule="evenodd" clip-rule="evenodd" d="M246.206 4.69238C249.206 6.43238 251.446 8.81238 251.436 11.4724C251.436 13.9724 241.106 34.8324 241.106 34.8324C239.929 36.1535 238.346 37.0468 236.606 37.3724L220.956 74.1124C220.956 74.1124 216.616 82.4724 208.956 81.9524C211.173 77.2926 213.142 72.5193 214.856 67.6524L228.856 30.3624C228.856 30.3624 235.476 33.0524 240.946 18.1924C242.906 12.8224 244.696 8.29238 246.206 4.69238Z" fill="#C39A61"/>
<path fill-rule="evenodd" clip-rule="evenodd" d="M4.76635 152.102C-3.74365 142.512 5.82627 119.282 26.6863 100.892C47.5463 82.5024 71.7963 75.8924 80.9863 86.3624C81.9863 87.3624 102.986 111.732 132.116 109.022C161.246 106.312 188.956 80.8624 196.526 68.4624C204.616 59.3524 223.876 70.6124 222.186 79.7524C218.426 100.192 194.506 184.752 120.076 192.912C40.1263 201.732 8.84635 159.202 4.76635 152.102Z" fill="#E4BE6E"/>
<path fill-rule="evenodd" clip-rule="evenodd" d="M4.76636 152.102C3.00029 150.016 1.94892 147.419 1.76636 144.692C18.7579 140.433 35.9978 137.233 53.3864 135.112C69.2764 160.052 132.386 174.392 166.846 141.622C199.006 111.002 212.986 73.0224 214.676 68.1724C219.476 71.1024 222.956 75.6424 222.196 79.7524C218.436 100.192 194.516 184.752 120.086 192.912C40.1263 201.732 8.84636 159.202 4.76636 152.102Z" fill="#C39A61"/>
<path fill-rule="evenodd" clip-rule="evenodd" d="M26.6863 100.892C47.5463 82.5121 71.7963 75.8921 80.8464 86.2021C89.8964 96.5121 80.3364 119.712 59.4764 138.102C38.6164 156.492 14.3663 163.102 5.30631 152.792C-3.75369 142.482 5.82632 119.282 26.6863 100.892Z" fill="#C19457"/>
<path fill-rule="evenodd" clip-rule="evenodd" d="M131.146 155.852C133.238 148.856 134.204 141.572 134.006 134.272C133.934 132.263 133.747 130.26 133.446 128.272C132.897 124.426 131.686 120.705 129.866 117.272C128.527 114.838 126.703 112.704 124.506 111.002C115.699 110.301 107.147 107.705 99.4363 103.392C100.852 106.629 101.714 110.08 101.986 113.602C102.197 116.267 102.144 118.947 101.826 121.602C101.553 123.788 101.149 125.955 100.616 128.092C97.7563 138.862 93.1663 146.542 86.1763 155.242L85.3962 156.152C77.3962 165.022 69.8964 171.042 58.7664 175.522C54.6514 177.107 50.3373 178.117 45.9463 178.522C43.2027 178.706 40.4499 178.706 37.7063 178.522C42.3218 180.954 47.1038 183.056 52.0164 184.812C64.9264 189.432 80.8763 192.552 100.346 192.392C101.281 192.158 102.202 191.874 103.106 191.542C104.336 191.002 105.486 190.432 106.676 189.772C110.658 187.531 114.254 184.665 117.326 181.282C120.38 177.903 123.028 174.177 125.216 170.182C127.697 165.672 129.685 160.908 131.146 155.972V155.852ZM115.946 113.852C113.215 113.003 110.542 111.974 107.946 110.772C107.746 110.682 107.846 110.372 108.056 110.442C110.546 111.362 113.156 112.042 115.716 112.722C117.156 113.112 118.616 113.502 120.086 113.722C121.289 113.799 122.474 114.049 123.606 114.462C123.956 114.632 124.016 115.202 123.556 115.282C122.307 115.366 121.053 115.203 119.866 114.802C118.556 114.512 117.236 114.192 115.936 113.802L115.946 113.852ZM103.206 187.022C103.516 186.952 103.616 187.372 103.376 187.522C101.13 188.881 98.5789 189.655 95.9563 189.772C95.7763 189.772 95.7563 189.482 95.9563 189.462C98.5763 189.162 100.716 187.612 103.226 187.022H103.206ZM86.8763 185.962C86.9428 185.975 87.0027 186.01 87.0459 186.062C87.0891 186.114 87.1127 186.179 87.1127 186.247C87.1127 186.315 87.0891 186.38 87.0459 186.432C87.0027 186.484 86.9428 186.52 86.8763 186.532C85.2674 186.834 83.6333 186.981 81.9963 186.972C80.2163 187.072 78.4362 187.192 76.6562 187.262C73.2939 187.409 69.9253 187.315 66.5763 186.982C66.5443 186.974 66.516 186.955 66.4958 186.929C66.4757 186.902 66.4647 186.87 66.4647 186.837C66.4647 186.804 66.4757 186.772 66.4958 186.746C66.516 186.719 66.5443 186.701 66.5763 186.692C69.9463 186.692 73.3463 186.502 76.6963 186.282L82.0363 185.962C83.6239 185.772 85.2286 185.772 86.8163 185.962H86.8763ZM82.3864 188.242C85.0785 188.427 87.7825 188.337 90.4563 187.972C92.9363 187.662 95.3963 187.052 97.8763 186.782C98.0089 186.756 98.1466 186.783 98.2592 186.858C98.3717 186.933 98.4498 187.049 98.4763 187.182C98.5028 187.315 98.4755 187.452 98.4005 187.565C98.3255 187.677 98.2089 187.756 98.0763 187.782C92.9464 189.111 87.6062 189.423 82.3563 188.702C82.2953 188.695 82.2394 188.665 82.2009 188.617C82.1625 188.569 82.1446 188.508 82.1512 188.447C82.1579 188.386 82.1885 188.33 82.2363 188.292C82.2841 188.253 82.3452 188.235 82.4062 188.242H82.3864Z" fill="#505354"/>
<path fill-rule="evenodd" clip-rule="evenodd" d="M85.2963 156.202C77.2963 165.012 69.8464 171.002 58.7664 175.462C54.6514 177.047 50.3373 178.057 45.9463 178.462C43.2027 178.646 40.4499 178.646 37.7063 178.462C42.3218 180.894 47.1038 182.996 52.0164 184.752C64.9264 189.372 80.8763 192.492 100.346 192.332C101.281 192.098 102.202 191.815 103.106 191.482C104.336 190.942 105.486 190.372 106.676 189.712C110.658 187.471 114.254 184.605 117.326 181.222C120.38 177.843 123.028 174.117 125.216 170.122C127.1 166.708 128.695 163.142 129.986 159.462C115.044 161.898 99.7391 160.802 85.2963 156.262V156.202ZM103.206 187.022C103.516 186.952 103.616 187.372 103.376 187.522C101.13 188.881 98.5789 189.655 95.9563 189.772C95.7763 189.772 95.7563 189.482 95.9563 189.462C98.5763 189.162 100.716 187.612 103.226 187.022H103.206ZM86.8763 185.962C86.9428 185.975 87.0027 186.01 87.0459 186.062C87.0891 186.114 87.1127 186.18 87.1127 186.247C87.1127 186.315 87.0891 186.38 87.0459 186.432C87.0027 186.484 86.9428 186.52 86.8763 186.532C85.2674 186.834 83.6333 186.981 81.9963 186.972C80.2163 187.072 78.4362 187.192 76.6562 187.262C73.2939 187.409 69.9253 187.315 66.5763 186.982C66.5443 186.974 66.516 186.955 66.4958 186.929C66.4757 186.902 66.4647 186.87 66.4647 186.837C66.4647 186.804 66.4757 186.772 66.4958 186.746C66.516 186.719 66.5443 186.701 66.5763 186.692C69.9463 186.692 73.3463 186.502 76.6963 186.282L82.0363 185.962C83.6239 185.772 85.2286 185.772 86.8163 185.962H86.8763ZM82.3864 188.242C85.0785 188.427 87.7825 188.337 90.4563 187.972C92.9363 187.662 95.3963 187.052 97.8763 186.782C98.0089 186.756 98.1466 186.783 98.2592 186.858C98.3717 186.933 98.4498 187.05 98.4763 187.182C98.5028 187.315 98.4755 187.452 98.4005 187.565C98.3255 187.678 98.2089 187.756 98.0763 187.782C92.9464 189.111 87.6062 189.423 82.3563 188.702C82.2953 188.696 82.2394 188.665 82.2009 188.617C82.1625 188.569 82.1446 188.508 82.1512 188.447C82.1579 188.386 82.1885 188.33 82.2363 188.292C82.2841 188.253 82.3452 188.236 82.4062 188.242H82.3864Z" fill="#393B3C"/>
<path fill-rule="evenodd" clip-rule="evenodd" d="M155.996 113.362C160.117 116.876 163.513 121.159 165.996 125.972C166.746 127.402 167.396 128.802 167.996 130.292C170.93 137.375 172.374 144.987 172.236 152.652L172.176 154.252C171.838 160.308 170.337 166.243 167.756 171.732C173.003 167.654 177.875 163.116 182.316 158.172C186.991 152.961 191.257 147.398 195.076 141.532C194.976 140.472 196.076 137.282 196.246 136.322C196.729 133.38 196.823 130.388 196.526 127.422C196.209 124.529 195.555 121.683 194.576 118.942C193.862 116.938 192.986 114.995 191.956 113.132C189.676 108.972 186.532 105.347 182.736 102.502C182.646 102.432 181.956 101.922 181.916 101.912C177.606 99.1021 173.476 97.4521 168.346 97.3521L167.676 97.7721C160.787 102.195 153.347 105.695 145.546 108.182C146.546 108.342 147.416 108.512 147.726 108.592L148.016 108.692C150.944 109.752 153.654 111.334 156.016 113.362H155.996ZM191.476 133.772C191.497 133.707 191.537 133.651 191.592 133.611C191.647 133.571 191.713 133.549 191.781 133.549C191.849 133.549 191.915 133.571 191.97 133.611C192.025 133.651 192.066 133.707 192.086 133.772C192.111 134.008 192.111 134.246 192.086 134.482C192.086 134.972 191.276 134.922 191.316 134.432C191.329 134.194 191.372 133.959 191.446 133.732L191.476 133.772ZM189.386 136.362C189.504 135.661 189.695 134.974 189.956 134.312C189.974 134.264 190.006 134.222 190.048 134.193C190.09 134.163 190.14 134.147 190.191 134.147C190.243 134.147 190.293 134.163 190.335 134.193C190.377 134.222 190.409 134.264 190.426 134.312C190.577 135.102 190.55 135.915 190.347 136.694C190.145 137.472 189.772 138.195 189.256 138.812C189.21 138.873 189.143 138.916 189.068 138.934C188.993 138.951 188.915 138.942 188.846 138.907C188.777 138.873 188.723 138.816 188.692 138.745C188.661 138.675 188.655 138.596 188.676 138.522C188.926 137.792 189.196 137.072 189.386 136.322V136.362ZM187.216 137.132C187.256 137.074 187.312 137.028 187.378 137.002C187.443 136.975 187.515 136.968 187.584 136.982C187.654 136.996 187.717 137.03 187.767 137.08C187.818 137.129 187.852 137.193 187.866 137.262C187.893 138.817 187.55 140.356 186.866 141.752C186.261 143.278 185.439 144.71 184.426 146.002C184.379 146.072 184.305 146.121 184.221 146.137C184.138 146.153 184.052 146.135 183.981 146.087C183.911 146.039 183.863 145.966 183.847 145.882C183.831 145.799 183.849 145.712 183.896 145.642C184.814 144.158 185.543 142.566 186.066 140.902C186.344 139.618 186.722 138.357 187.196 137.132H187.216ZM174.546 154.732C176.761 153.123 178.574 151.026 179.846 148.602C180.446 147.542 180.986 146.432 181.536 145.352C181.897 144.355 182.429 143.428 183.106 142.612C183.179 142.549 183.269 142.509 183.365 142.496C183.461 142.484 183.558 142.5 183.644 142.543C183.731 142.586 183.803 142.653 183.851 142.736C183.899 142.82 183.922 142.916 183.916 143.012C183.611 144.243 183.086 145.408 182.366 146.452C181.712 147.655 180.991 148.82 180.206 149.942C178.84 152.074 176.927 153.801 174.666 154.942C174.633 154.958 174.595 154.96 174.56 154.948C174.526 154.936 174.497 154.91 174.481 154.877C174.465 154.844 174.463 154.806 174.475 154.771C174.488 154.736 174.513 154.708 174.546 154.692V154.732Z" fill="#505354"/>
<path fill-rule="evenodd" clip-rule="evenodd" d="M170.556 137.962C171.761 142.75 172.33 147.676 172.246 152.612L172.186 154.212C171.848 160.269 170.347 166.203 167.766 171.692C173.013 167.614 177.885 163.076 182.326 158.132C187.001 152.922 191.267 147.359 195.086 141.492C194.986 140.432 196.086 137.242 196.256 136.282C196.739 133.341 196.833 130.348 196.536 127.382C196.219 124.489 195.565 121.643 194.586 118.902C193.872 116.898 192.996 114.955 191.966 113.092C191.836 112.862 191.696 112.632 191.556 112.402C185.321 121.523 178.294 130.076 170.556 137.962ZM191.476 133.732C191.497 133.668 191.537 133.611 191.592 133.571C191.647 133.531 191.713 133.509 191.781 133.509C191.849 133.509 191.915 133.531 191.97 133.571C192.025 133.611 192.066 133.668 192.086 133.732C192.111 133.968 192.111 134.206 192.086 134.442C192.086 134.932 191.276 134.882 191.316 134.392C191.329 134.154 191.372 133.919 191.446 133.692L191.476 133.732ZM189.386 136.322C189.504 135.621 189.695 134.934 189.956 134.272C189.974 134.224 190.006 134.182 190.048 134.153C190.09 134.123 190.14 134.108 190.191 134.108C190.243 134.108 190.293 134.123 190.335 134.153C190.377 134.182 190.409 134.224 190.426 134.272C190.577 135.062 190.55 135.876 190.347 136.654C190.145 137.432 189.772 138.156 189.256 138.772C189.21 138.833 189.143 138.876 189.068 138.894C188.993 138.911 188.915 138.902 188.846 138.868C188.777 138.833 188.723 138.776 188.692 138.706C188.661 138.635 188.655 138.556 188.676 138.482C188.926 137.752 189.196 137.032 189.386 136.282V136.322ZM187.216 137.092C187.256 137.034 187.312 136.989 187.378 136.962C187.443 136.935 187.515 136.928 187.584 136.942C187.654 136.956 187.717 136.99 187.767 137.04C187.818 137.09 187.852 137.153 187.866 137.222C187.893 138.777 187.55 140.316 186.866 141.712C186.261 143.239 185.439 144.67 184.426 145.962C184.379 146.033 184.305 146.081 184.221 146.097C184.138 146.113 184.052 146.095 183.981 146.047C183.911 146 183.863 145.926 183.847 145.842C183.831 145.759 183.849 145.673 183.896 145.602C184.814 144.119 185.543 142.526 186.066 140.862C186.344 139.578 186.722 138.318 187.196 137.092H187.216ZM174.546 154.692C176.761 153.084 178.574 150.986 179.846 148.562C180.446 147.502 180.986 146.392 181.536 145.312C181.897 144.315 182.429 143.388 183.106 142.572C183.179 142.509 183.269 142.469 183.365 142.457C183.461 142.444 183.558 142.461 183.644 142.503C183.731 142.546 183.803 142.613 183.851 142.697C183.899 142.78 183.922 142.876 183.916 142.972C183.611 144.203 183.086 145.368 182.366 146.412C181.712 147.615 180.991 148.78 180.206 149.902C178.84 152.035 176.927 153.761 174.666 154.902C174.64 154.906 174.614 154.902 174.591 154.891C174.567 154.879 174.548 154.861 174.535 154.838C174.522 154.816 174.516 154.79 174.518 154.763C174.52 154.737 174.53 154.713 174.546 154.692Z" fill="#393B3C"/>
<path fill-rule="evenodd" clip-rule="evenodd" d="M191.726 85.0823C195.637 85.8625 199.289 87.6128 202.346 90.1723C202.416 90.2323 202.786 90.5223 202.816 90.5723C206.187 93.3533 208.815 96.9266 210.466 100.972C211.121 102.666 211.554 104.438 211.756 106.242C211.756 106.882 211.856 107.612 211.866 108.382C215.553 98.9838 218.407 89.2799 220.396 79.3823C220.511 78.7184 220.491 78.0381 220.336 77.3823C220.213 76.8573 220.032 76.3475 219.796 75.8623C219.666 75.6023 219.526 75.3323 219.376 75.0723C219.229 74.8222 219.14 74.5418 219.116 74.2523C219.093 73.9455 219.141 73.6376 219.256 73.3523L219.676 72.3523C218.708 71.2302 217.61 70.2265 216.406 69.3623C216.566 69.5423 216.716 69.7323 216.866 69.9223C217.616 70.9557 218.194 72.104 218.576 73.3223C218.646 73.5623 218.666 73.8823 218.336 73.9323C217.01 72.5201 215.519 71.2712 213.896 70.2123C210.53 67.8248 206.412 66.7377 202.306 67.1523H202.166C201.596 67.2878 201.04 67.4787 200.506 67.7223C199.564 68.1489 198.717 68.7611 198.016 69.5223C195.386 73.7823 190.476 79.5223 184.016 85.3423C185.493 84.9056 187.027 84.6999 188.566 84.7323C189.637 84.7489 190.704 84.856 191.756 85.0523L191.726 85.0823ZM198.816 71.9823C199.036 71.6423 199.556 71.9823 199.346 72.3423C197.186 75.9223 194.746 79.7723 191.606 82.5923C191.216 82.9423 190.606 82.4023 190.906 81.9723C192.176 80.3023 193.716 78.8323 195.036 77.1923C196.356 75.5523 197.636 73.7823 198.816 71.9823ZM211.406 92.9823C211.566 91.9023 211.676 90.8223 211.776 89.7423C211.786 89.703 211.808 89.6681 211.84 89.6431C211.872 89.618 211.911 89.6044 211.951 89.6044C211.992 89.6044 212.031 89.618 212.063 89.6431C212.094 89.6681 212.117 89.703 212.126 89.7423C212.046 91.8523 212.126 94.4023 211.066 96.2923C211.043 96.3211 211.012 96.342 210.976 96.3522C210.941 96.3624 210.903 96.3615 210.868 96.3494C210.833 96.3374 210.802 96.3149 210.781 96.285C210.759 96.2551 210.747 96.2193 210.746 96.1823C210.886 95.0923 211.246 94.0423 211.406 92.9623V92.9823ZM215.406 80.1723C215.914 78.1074 216.169 75.9886 216.166 73.8623C216.166 73.6623 216.506 73.6323 216.526 73.8623C216.689 75.7568 216.622 77.664 216.326 79.5423C215.981 81.8451 215.37 84.1001 214.506 86.2623C214.488 86.2998 214.458 86.3301 214.42 86.3487C214.383 86.3672 214.341 86.3729 214.3 86.365C214.259 86.357 214.221 86.3358 214.194 86.3046C214.166 86.2734 214.149 86.2339 214.146 86.1923C214.362 84.2836 214.753 82.3988 215.316 80.5623L215.406 80.2023V80.1723ZM212.496 92.2723C212.756 88.9823 213.496 85.6923 213.826 82.4123C213.834 82.3875 213.849 82.3658 213.87 82.3504C213.89 82.3349 213.915 82.3266 213.941 82.3266C213.967 82.3266 213.992 82.3349 214.013 82.3504C214.034 82.3658 214.049 82.3875 214.056 82.4123C214.056 85.6323 214.236 89.3123 212.886 92.3323C212.866 92.3678 212.836 92.3962 212.799 92.4138C212.762 92.4314 212.721 92.4373 212.68 92.4308C212.64 92.4243 212.603 92.4056 212.574 92.3773C212.544 92.3489 212.524 92.3123 212.516 92.2723H212.496Z" fill="#505354"/>
<path fill-rule="evenodd" clip-rule="evenodd" d="M204.076 91.7223C206.866 94.2934 209.049 97.4531 210.466 100.972C211.121 102.666 211.554 104.438 211.756 106.242C211.756 106.882 211.856 107.612 211.866 108.382C215.553 98.9838 218.407 89.2799 220.396 79.3823C220.511 78.7184 220.491 78.0381 220.336 77.3823C220.213 76.8572 220.032 76.3475 219.796 75.8623C219.666 75.6023 219.526 75.3323 219.376 75.0723C219.229 74.8222 219.14 74.5418 219.116 74.2523C219.093 73.9455 219.141 73.6375 219.256 73.3523L219.676 72.3523C218.708 71.2303 217.61 70.2267 216.406 69.3623C216.566 69.5423 216.716 69.7323 216.866 69.9223C217.616 70.9557 218.194 72.104 218.576 73.3223C218.646 73.5623 218.666 73.8823 218.336 73.9323C217.02 72.5265 215.539 71.2842 213.926 70.2323C211.092 77.5963 207.802 84.7769 204.076 91.7323V91.7223ZM211.406 92.9823C211.566 91.9023 211.676 90.8223 211.776 89.7423C211.786 89.703 211.808 89.6681 211.84 89.643C211.872 89.618 211.911 89.6044 211.951 89.6044C211.992 89.6044 212.031 89.618 212.063 89.643C212.094 89.6681 212.117 89.703 212.126 89.7423C212.046 91.8523 212.126 94.4023 211.066 96.2923C211.043 96.3211 211.012 96.342 210.976 96.3522C210.941 96.3624 210.903 96.3614 210.868 96.3494C210.833 96.3374 210.802 96.3149 210.781 96.285C210.759 96.2551 210.747 96.2193 210.746 96.1823C210.886 95.0923 211.246 94.0423 211.406 92.9623V92.9823ZM215.406 80.1723C215.914 78.1074 216.169 75.9886 216.166 73.8623C216.166 73.6623 216.506 73.6323 216.526 73.8623C216.689 75.7568 216.622 77.664 216.326 79.5423C215.981 81.8451 215.37 84.1001 214.506 86.2623C214.488 86.2997 214.458 86.3301 214.42 86.3486C214.383 86.3672 214.341 86.3729 214.3 86.365C214.259 86.357 214.221 86.3358 214.194 86.3046C214.166 86.2734 214.149 86.2339 214.146 86.1923C214.362 84.2836 214.753 82.3988 215.316 80.5623L215.406 80.2023V80.1723ZM212.496 92.2723C212.756 88.9823 213.496 85.6923 213.826 82.4123C213.834 82.3875 213.849 82.3658 213.87 82.3504C213.89 82.3349 213.915 82.3266 213.941 82.3266C213.967 82.3266 213.992 82.3349 214.013 82.3504C214.034 82.3658 214.049 82.3875 214.056 82.4123C214.056 85.6323 214.236 89.3123 212.886 92.3323C212.866 92.3678 212.836 92.3962 212.799 92.4138C212.762 92.4314 212.721 92.4373 212.68 92.4308C212.64 92.4243 212.603 92.4056 212.574 92.3773C212.544 92.3489 212.524 92.3123 212.516 92.2723H212.496Z" fill="#393B3C"/>
<path fill-rule="evenodd" clip-rule="evenodd" d="M235.806 7.44231C235.476 9.36231 226.376 23.1823 224.206 26.3623C222.546 28.8023 225.206 29.3123 221.646 35.0723C218.086 40.8323 215.996 46.1323 212.036 51.7223C214.367 45.6278 217.066 39.6803 220.116 33.9123C222.636 29.3623 220.886 30.9923 221.426 27.1923C221.556 26.2623 233.206 5.94231 233.796 5.05231C234.116 4.78709 234.528 4.65969 234.941 4.69813C235.355 4.73658 235.736 4.93772 236.001 5.25731C236.267 5.57689 236.394 5.98874 236.355 6.40226C236.317 6.81578 236.116 7.19709 235.796 7.46231L235.806 7.44231Z" fill="#EFD8A7"/>
<path fill-rule="evenodd" clip-rule="evenodd" d="M77.2062 96.8119C75.5075 96.9673 73.802 97.0374 72.0963 97.0219C70.2476 97.2974 68.4316 97.7597 66.6762 98.4019C63.017 99.5084 59.5276 101.113 56.3062 103.172C49.6891 107.3 43.8054 112.501 38.8962 118.562C36.5732 121.431 34.5085 124.499 32.7263 127.732C30.5145 131.528 28.5924 135.486 26.9763 139.572C25.9689 142.523 25.2129 145.554 24.7163 148.632C24.4763 149.812 24.2463 150.992 23.9763 152.172C23.7639 152.905 23.6331 153.66 23.5862 154.422L22.0163 154.742C22.2363 152.792 22.3162 150.812 22.5862 148.882C22.9163 146.443 23.3871 144.026 23.9963 141.642C25.1395 137.272 26.7872 133.051 28.9062 129.062C33.3835 120.989 39.1226 113.683 45.9062 107.422C45.9566 107.378 45.9876 107.316 45.9923 107.25C45.9969 107.183 45.975 107.117 45.9312 107.067C45.8875 107.016 45.8256 106.986 45.759 106.981C45.6924 106.976 45.6266 106.998 45.5762 107.042C37.8555 112.414 31.4659 119.481 26.8962 127.702C24.6454 131.861 22.8933 136.272 21.6762 140.842C21.0577 143.246 20.5736 145.683 20.2263 148.142C19.8099 150.457 19.5261 152.794 19.3763 155.142C18.9863 155.142 18.5962 155.222 18.2062 155.252C18.2062 154.342 18.1362 153.442 18.2062 152.542C18.2962 150.272 18.5162 148.002 18.8162 145.752C19.4337 141.224 20.5472 136.777 22.1363 132.492C23.6775 128.225 25.7147 124.153 28.2062 120.362C30.8037 116.337 33.9623 112.704 37.5863 109.572C37.9463 109.272 37.4763 108.782 37.1163 109.042C35.0779 110.4 33.1456 111.911 31.3362 113.562C29.6684 115.184 28.1241 116.929 26.7163 118.782C23.8711 122.572 21.5781 126.747 19.9062 131.182C18.22 135.665 17.0296 140.32 16.3563 145.062C15.9963 147.472 15.7962 149.912 15.6762 152.342C15.6762 153.342 15.6762 154.282 15.6762 155.262L14.5262 155.202C14.1309 153.748 13.9358 152.248 13.9462 150.742C13.861 148.776 13.9312 146.807 14.1562 144.852C14.6183 140.951 15.4658 137.106 16.6862 133.372C17.7924 129.843 19.1561 126.401 20.7663 123.072C22.5364 119.287 24.7847 115.745 27.4562 112.532C27.6462 112.312 27.2963 112.042 27.0963 112.212C20.5163 117.492 16.7962 125.142 14.3062 133.062C12.9921 137.172 12.1106 141.408 11.6762 145.702C11.5112 147.749 11.5112 149.805 11.6762 151.852C11.7152 152.858 11.8222 153.86 11.9963 154.852H11.8262C11.5917 154.539 11.3875 154.204 11.2163 153.852C10.743 152.771 10.407 151.636 10.2163 150.472C9.75155 147.832 9.62386 145.144 9.83625 142.472C9.93867 139.774 10.3139 137.094 10.9562 134.472C11.7562 130.994 12.9996 127.633 14.6562 124.472C14.6765 124.425 14.6796 124.372 14.665 124.322C14.6503 124.273 14.6189 124.231 14.5761 124.202C14.5333 124.174 14.4819 124.161 14.4307 124.166C14.3796 124.172 14.332 124.195 14.2962 124.232C13.2218 125.496 12.274 126.863 11.4663 128.312C10.5809 130.104 9.81907 131.955 9.18622 133.852C8.27772 136.73 7.7236 139.709 7.5362 142.722C7.3053 145.587 7.46689 148.47 8.0163 151.292C8.1263 151.842 8.27625 152.472 8.46625 153.112C7.83625 152.532 7.23619 151.902 6.77619 151.492C2.77619 146.922 2.99625 139.242 6.58625 130.492C10.3562 121.342 17.7963 111.182 28.0163 102.182C38.2363 93.1819 49.2462 87.0619 58.7862 84.4719C65.7862 82.5919 71.7863 82.5819 76.1163 84.7019C73.9436 84.1386 71.6983 83.906 69.4562 84.0119C63.4562 84.2119 57.8162 86.2519 52.3062 88.5119C52.1762 88.5619 52.3062 88.7319 52.3962 88.6919C57.5798 86.7115 63.0298 85.515 68.5662 85.1419C71.3017 84.9664 74.0458 85.3056 76.6562 86.1419C77.8492 86.5466 78.9801 87.1154 80.0163 87.8319L81.0163 88.8319C82.1968 90.867 82.8594 93.1608 82.9462 95.5119C82.2721 95.2416 81.5526 95.1025 80.8262 95.1019C80.8039 95.1089 80.7843 95.1228 80.7705 95.1417C80.7566 95.1606 80.7491 95.1834 80.7491 95.2069C80.7491 95.2303 80.7566 95.2531 80.7705 95.272C80.7843 95.2909 80.8039 95.3049 80.8262 95.3119C81.6317 95.49 82.3765 95.8762 82.9863 96.4319V97.4319C82.6416 101.794 81.4779 106.051 79.5562 109.982C78.571 112.035 77.483 114.038 76.2962 115.982C65.3133 133.394 48.6215 146.448 29.0762 152.912C29.1462 152.462 29.2162 152.032 29.2962 151.622C29.5662 150.282 29.8262 148.932 30.0862 147.622C30.1962 147.032 30.3062 146.452 30.4262 145.862C30.4262 145.782 30.5962 144.982 30.4262 145.632C30.5162 145.202 30.6363 144.792 30.7563 144.372C31.9699 140.271 33.6263 136.314 35.6962 132.572C37.3757 129.292 39.2733 126.128 41.3763 123.102C45.7611 116.909 51.1245 111.471 57.2563 107.002C60.315 104.879 63.5234 102.981 66.8563 101.322C68.4316 100.506 70.0785 99.8366 71.7762 99.3219C73.6662 98.7419 75.3862 97.5119 77.3962 97.3919C77.4395 97.3999 77.4841 97.3983 77.5267 97.3871C77.5693 97.376 77.6088 97.3556 77.6426 97.3275C77.6765 97.2993 77.7037 97.2641 77.7224 97.2242C77.741 97.1844 77.7508 97.1409 77.7508 97.0969C77.7508 97.0529 77.741 97.0094 77.7224 96.9695C77.7037 96.9297 77.6765 96.8944 77.6426 96.8663C77.6088 96.8381 77.5693 96.8177 77.5267 96.8066C77.4841 96.7955 77.4395 96.7939 77.3962 96.8019L77.2062 96.8119ZM182.686 86.5219C185.549 85.8257 188.54 85.8601 191.386 86.6219C191.456 86.6219 192.516 86.9419 192.676 86.9919C195.925 88.0874 198.904 89.8598 201.416 92.1919C202.841 93.5043 204.125 94.9622 205.246 96.5419C206.438 98.2072 207.444 99.9978 208.246 101.882C209.22 104.252 209.843 106.752 210.096 109.302C210.156 109.842 210.096 111.552 210.176 112.702C206.978 120.483 203.236 128.028 198.976 135.282C199.166 134.502 199.306 133.762 199.436 133.102C199.74 131.117 199.821 129.105 199.676 127.102C199.171 121.61 197.372 116.315 194.426 111.652C194.066 111.082 193.716 110.532 193.336 109.972C190.673 105.976 187.172 102.608 183.076 100.102C181.685 99.2847 180.227 98.5888 178.716 98.0219C175.697 96.8851 172.458 96.4541 169.246 96.7619C173.972 93.669 178.476 90.2507 182.726 86.5319L182.686 86.5219ZM211.866 108.362C211.866 107.592 211.806 106.852 211.756 106.222C211.554 104.417 211.121 102.646 210.466 100.952C208.815 96.9061 206.187 93.3328 202.816 90.5519C202.816 90.5519 202.416 90.2119 202.346 90.1519C199.289 87.5923 195.637 85.8421 191.726 85.0619C190.674 84.8655 189.607 84.7585 188.536 84.7419C186.997 84.7088 185.462 84.9146 183.986 85.3519C190.456 79.5219 195.366 73.8019 197.986 69.5319C199.099 68.342 200.546 67.5159 202.136 67.1619H202.276C206.382 66.7472 210.5 67.8343 213.866 70.2219C215.489 71.2808 216.979 72.5296 218.306 73.9419C218.636 73.9419 218.616 73.5719 218.546 73.3319C218.164 72.1135 217.586 70.9653 216.836 69.9319C215.077 67.6907 212.765 65.9467 210.126 64.8719C210.959 62.9822 211.69 61.0494 212.316 59.0819C212.376 58.9019 212.096 58.7519 212.006 58.9319C211.006 60.7819 210.006 62.6419 209.006 64.4719C208.58 64.332 208.146 64.2151 207.706 64.1219C209.821 60.3122 211.659 56.3553 213.206 52.2819C213.286 52.0819 212.976 51.9819 212.896 52.1719C211.002 56.1895 208.892 60.1019 206.576 63.8919C205.673 63.7869 204.76 63.7869 203.856 63.8919L202.856 64.0419C202.639 63.8557 202.381 63.7233 202.103 63.6555C201.825 63.5878 201.535 63.5865 201.256 63.6519C199.256 64.1219 196.016 65.7119 194.896 67.5419C190.626 74.5419 179.686 85.8519 165.676 94.6719C155.516 101.072 143.786 106.132 131.876 107.232C113.286 108.972 94.2262 98.7219 82.1562 85.0219C77.1562 79.3219 68.1562 78.2219 57.6462 81.0719C47.5862 83.8019 36.0462 90.1719 25.4062 99.5519C14.7662 108.932 6.9863 119.552 3.0163 129.222C-0.693697 138.222 -1.11372 146.482 2.49628 152.222C2.52225 152.284 2.55228 152.344 2.58625 152.402C5.58625 157.492 19.7462 177.092 50.7062 188.182C68.1662 194.442 90.9962 198.012 120.206 194.792C148.376 191.682 169.426 177.852 184.966 160.642C211.086 131.692 221.526 93.1219 223.966 80.1419C224.171 79.0011 224.141 77.8304 223.876 76.7019C223.599 75.5091 223.133 74.3681 222.496 73.3219C222.374 73.1157 222.213 72.9356 222.021 72.7918C221.829 72.6481 221.611 72.5435 221.379 72.4841C221.147 72.4247 220.905 72.4115 220.668 72.4455C220.431 72.4794 220.202 72.5597 219.996 72.6819C219.79 72.804 219.61 72.9655 219.466 73.1573C219.323 73.349 219.218 73.5672 219.159 73.7993C219.099 74.0315 219.086 74.273 219.12 74.5103C219.154 74.7475 219.234 74.9757 219.356 75.1819C219.807 75.8956 220.144 76.6748 220.356 77.4919C220.511 78.1477 220.531 78.828 220.416 79.4919C218.427 89.3895 215.573 99.0934 211.886 108.492L211.866 108.362ZM168.356 97.3619L167.686 97.7819C160.797 102.205 153.356 105.705 145.556 108.192C146.556 108.352 147.426 108.522 147.736 108.602L148.026 108.702C150.954 109.762 153.664 111.344 156.026 113.372C160.147 116.886 163.543 121.169 166.026 125.982C166.776 127.412 167.426 128.812 168.026 130.302C170.96 137.385 172.404 144.996 172.266 152.662L172.206 154.262C171.872 160.319 170.371 166.254 167.786 171.742C173.032 167.666 177.901 163.128 182.336 158.182C187.017 152.974 191.286 147.41 195.106 141.542C195.006 140.482 196.106 137.292 196.276 136.332C196.759 133.39 196.853 130.398 196.556 127.432C196.239 124.539 195.585 121.693 194.606 118.952C193.892 116.947 193.016 115.004 191.986 113.142C189.706 108.982 186.562 105.357 182.766 102.512C182.676 102.442 181.986 101.932 181.946 101.922C177.636 99.1119 173.506 97.4619 168.376 97.3619H168.356ZM141.826 109.242C138.693 110.036 135.504 110.591 132.286 110.902C130.122 111.1 127.947 111.154 125.776 111.062C127.888 112.515 129.693 114.37 131.086 116.522C132.661 118.91 133.875 121.518 134.686 124.262C135.046 125.482 135.346 126.662 135.616 127.912C137.616 138.112 136.616 146.652 134.196 156.742L134.016 157.412C130.936 167.712 127.246 175.702 120.016 183.702C117.162 186.751 113.848 189.335 110.196 191.362L108.836 192.072C112.416 191.872 116.106 191.572 119.906 191.152C136.782 189.361 152.855 183.018 166.406 172.802C167.733 169.133 168.671 165.336 169.206 161.472C169.606 158.563 169.767 155.627 169.686 152.692C169.552 147.658 168.735 142.666 167.256 137.852C166.597 135.755 165.815 133.698 164.916 131.692C162.265 125.781 158.476 120.45 153.766 116.002C152.779 115.101 151.744 114.253 150.666 113.462C149.499 112.619 148.268 111.867 146.986 111.212C145.196 110.382 143.496 109.882 141.856 109.212L141.826 109.242ZM124.506 110.992C115.699 110.291 107.147 107.695 99.4362 103.382C100.848 106.62 101.709 110.071 101.986 113.592C102.197 116.257 102.144 118.937 101.826 121.592C101.553 123.778 101.149 125.945 100.616 128.082C97.7563 138.852 93.1662 146.532 86.1762 155.232L85.3962 156.142C77.3962 165.012 69.8963 171.032 58.7663 175.512C54.6513 177.097 50.3372 178.106 45.9462 178.512C43.2027 178.696 40.4498 178.696 37.7062 178.512C42.3218 180.944 47.1038 183.046 52.0163 184.802C64.9263 189.422 80.8863 192.542 100.356 192.382C101.287 192.147 102.205 191.863 103.106 191.532C104.336 190.992 105.486 190.422 106.676 189.762C110.658 187.521 114.254 184.654 117.326 181.272C120.378 177.894 123.026 174.172 125.216 170.182C127.696 165.668 129.684 160.9 131.146 155.962C133.238 148.966 134.204 141.681 134.006 134.382C133.934 132.373 133.747 130.37 133.446 128.382C132.897 124.536 131.686 120.814 129.866 117.382C128.527 114.948 126.702 112.814 124.506 111.112V110.992ZM98.4062 102.812C93.0482 99.7682 88.0873 96.0735 83.6363 91.8119C84.3973 93.6221 84.8599 95.5437 85.0063 97.5019C85.2554 101.03 84.845 104.574 83.7962 107.952C83.4462 109.132 83.0563 110.262 82.6263 111.412C74.6263 132.222 55.0663 152.772 28.6263 158.902C25.0144 159.679 21.3161 159.978 17.6263 159.792C17.5071 159.874 17.3698 159.925 17.2263 159.942H17.2062C16.8509 159.98 16.4941 159.884 16.2062 159.672C14.8533 159.547 13.5144 159.299 12.2062 158.932C17.8055 165.061 24.2264 170.385 31.2862 174.752C33.9962 175.012 37.2862 175.472 38.5462 175.482C44.966 175.369 51.3109 174.082 57.2663 171.682C62.2054 169.679 66.8829 167.083 71.1962 163.952C75.3559 160.95 79.1991 157.532 82.6662 153.752C88.5774 147.348 93.277 139.924 96.5362 131.842C97.1162 130.362 97.6263 128.912 98.0963 127.392C99.4808 122.942 100.202 118.312 100.236 113.652C100.221 109.961 99.606 106.296 98.4162 102.802L98.4062 102.812ZM23.8463 154.422L24.0163 153.522L24.8062 152.842C24.4935 152.993 24.2241 153.221 24.023 153.504C23.822 153.787 23.6958 154.117 23.6562 154.462H23.8463V154.422ZM221.516 30.5519C223.247 30.7336 224.949 31.1231 226.586 31.7119C227.953 32.1828 229.241 32.857 230.406 33.7119C230.486 33.7119 231.226 34.3519 231.406 34.4619C232.706 35.5419 233.936 36.8319 235.216 37.8419C235.806 38.2919 236.716 39.2619 237.216 38.4719C237.806 37.4019 237.146 36.4719 236.586 35.3819C235.485 33.5365 233.859 32.0605 231.916 31.1419C231.566 30.9519 231.216 30.7819 230.846 30.6119C229.081 29.7978 227.16 29.3781 225.216 29.3819C224.073 29.406 222.942 29.6154 221.866 30.0019C221.646 30.0819 221.406 30.2419 221.556 30.5019L221.516 30.5519ZM198.816 71.9819C199.036 71.6419 199.556 71.9819 199.346 72.3419C197.186 75.9219 194.746 79.7719 191.606 82.5919C191.216 82.9419 190.606 82.4019 190.906 81.9719C192.176 80.3019 193.716 78.8319 195.036 77.1919C196.356 75.5519 197.636 73.7819 198.816 71.9819ZM176.906 94.5819C178.454 94.0874 179.907 93.337 181.206 92.3619C181.986 91.7819 182.716 91.1419 183.456 90.5119C184.241 89.9751 184.919 89.2969 185.456 88.5119C185.479 88.473 185.491 88.4283 185.49 88.3831C185.488 88.338 185.474 88.294 185.449 88.2564C185.424 88.2188 185.389 88.189 185.348 88.1705C185.307 88.152 185.261 88.1456 185.216 88.1519C183.876 88.4719 182.736 89.9119 181.706 90.7919C180.237 92.1893 178.548 93.3347 176.706 94.1819C176.486 94.2719 176.616 94.6519 176.846 94.5819H176.906ZM246.516 9.92187C246.678 10.3817 246.805 10.8531 246.896 11.3319C246.93 11.7325 247.049 12.1213 247.246 12.4719C247.267 12.4942 247.294 12.5109 247.323 12.5202C247.352 12.5296 247.383 12.5314 247.413 12.5253C247.443 12.5193 247.471 12.5058 247.494 12.4859C247.518 12.466 247.535 12.4406 247.546 12.4119C247.605 12.0088 247.567 11.5976 247.436 11.2119C247.306 10.6986 247.125 10.1996 246.896 9.72187C246.786 9.47187 246.426 9.66187 246.516 9.92187ZM243.836 8.55187C243.696 8.19187 244.206 7.91187 244.376 8.28187C245.276 10.2019 246.906 13.3919 245.746 15.4819C245.718 15.5242 245.678 15.5573 245.63 15.5769C245.583 15.5965 245.532 15.6019 245.482 15.5923C245.431 15.5827 245.385 15.5586 245.349 15.523C245.312 15.4873 245.287 15.4417 245.276 15.3919C244.976 14.3219 245.186 13.1719 244.916 12.0719C244.626 10.8782 244.266 9.70282 243.836 8.55187ZM242.326 13.6019C242.859 14.5473 243.272 15.5549 243.556 16.6019C243.786 17.4119 243.786 18.2719 244.076 19.0719C244.092 19.1108 244.119 19.1443 244.154 19.1678C244.188 19.1913 244.229 19.2039 244.271 19.2039C244.313 19.2039 244.354 19.1913 244.389 19.1678C244.424 19.1443 244.451 19.1108 244.466 19.0719C244.906 17.1419 243.776 14.8819 242.726 13.3519C242.566 13.1219 242.196 13.3519 242.326 13.6119V13.6019ZM240.746 16.9719C240.738 16.9548 240.734 16.9363 240.733 16.9176C240.732 16.8988 240.735 16.88 240.742 16.8624C240.748 16.8447 240.758 16.8285 240.771 16.8147C240.784 16.8009 240.799 16.7897 240.816 16.7819C240.833 16.774 240.852 16.7695 240.871 16.7688C240.889 16.7681 240.908 16.771 240.926 16.7775C240.943 16.784 240.96 16.7939 240.973 16.8067C240.987 16.8194 240.998 16.8348 241.006 16.8519C241.896 18.4019 243.326 20.6019 242.846 22.4919C242.827 22.5392 242.793 22.5797 242.75 22.6082C242.708 22.6367 242.658 22.6519 242.606 22.6519C242.555 22.6519 242.505 22.6367 242.462 22.6082C242.419 22.5797 242.386 22.5392 242.366 22.4919C242.124 21.5768 241.933 20.6486 241.796 19.7119C241.561 18.7561 241.225 17.8277 240.796 16.9419L240.746 16.9719ZM239.096 20.3619C239.634 21.4753 240.076 22.6329 240.416 23.8219C240.726 24.8219 240.736 25.8219 241.116 26.7419C241.131 26.7785 241.157 26.8099 241.19 26.832C241.223 26.8541 241.262 26.8659 241.301 26.8659C241.341 26.8659 241.38 26.8541 241.413 26.832C241.445 26.8099 241.471 26.7785 241.486 26.7419C242.156 24.5219 240.416 22.0319 239.326 20.2719C239.236 20.1419 239.026 20.2719 239.096 20.3819V20.3619ZM237.096 24.3119C237.046 24.2562 237.02 24.1827 237.023 24.1077C237.027 24.0327 237.061 23.9623 237.116 23.9119C237.172 23.8615 237.245 23.8353 237.32 23.839C237.395 23.8428 237.466 23.8762 237.516 23.9319C238.225 24.7003 238.8 25.5827 239.216 26.5419C239.526 27.2719 240.136 28.2919 239.876 29.1019C239.866 29.1307 239.85 29.1568 239.828 29.1782C239.806 29.1996 239.78 29.2158 239.751 29.2254C239.722 29.2351 239.691 29.238 239.661 29.2339C239.63 29.2298 239.602 29.2188 239.576 29.2019C238.916 28.6919 238.826 27.6419 238.506 26.9019C238.15 25.999 237.679 25.1455 237.106 24.3619L237.096 24.3119ZM234.776 26.3119C234.646 26.1719 234.866 25.9919 235.006 26.1219C235.842 26.8006 236.594 27.576 237.246 28.4319C237.826 29.1631 238.175 30.0512 238.246 30.9819C238.246 31.2619 237.826 31.4519 237.646 31.1919C237.22 30.4179 236.84 29.6199 236.506 28.8019C236.041 27.8995 235.46 27.0623 234.776 26.3119ZM230.206 25.2919C231.11 25.7298 231.888 26.3905 232.466 27.2119C232.886 27.7619 233.466 28.6619 234.176 28.7419C234.213 28.7442 234.25 28.738 234.284 28.7236C234.319 28.7093 234.349 28.6872 234.373 28.6591C234.398 28.631 234.415 28.5976 234.424 28.5617C234.433 28.5257 234.434 28.4881 234.426 28.4519C234.216 27.6719 233.166 27.0219 232.586 26.5019C231.922 25.8672 231.15 25.3559 230.306 24.9919C230.116 24.9119 230.026 25.2119 230.206 25.2919ZM224.416 25.1319C225.355 25.4003 226.274 25.7345 227.166 26.1319C227.97 26.5526 228.833 26.8493 229.726 27.0119C229.769 27.0107 229.81 26.9966 229.844 26.9716C229.878 26.9465 229.904 26.9116 229.918 26.8716C229.932 26.8315 229.934 26.7881 229.923 26.7471C229.912 26.706 229.889 26.6694 229.856 26.6419C228.332 25.4277 226.424 24.7997 224.476 24.8719C224.316 24.8719 224.236 25.1219 224.416 25.1719V25.1319ZM231.866 39.0519C231.785 39.038 231.711 38.9957 231.658 38.9326C231.604 38.8694 231.575 38.7895 231.575 38.7069C231.575 38.6243 231.604 38.5443 231.658 38.4812C231.711 38.418 231.785 38.3758 231.866 38.3619C231.948 38.3758 232.021 38.418 232.075 38.4812C232.128 38.5443 232.157 38.6243 232.157 38.7069C232.157 38.7895 232.128 38.8694 232.075 38.9326C232.021 38.9957 231.948 39.038 231.866 39.0519ZM229.266 37.2319C229.25 37.2003 229.24 37.1659 229.237 37.1305C229.234 37.0951 229.237 37.0594 229.248 37.0255C229.259 36.9917 229.276 36.9602 229.299 36.933C229.322 36.9057 229.35 36.8833 229.381 36.8669C229.413 36.8505 229.447 36.8404 229.483 36.8373C229.518 36.8342 229.554 36.8381 229.588 36.8488C229.621 36.8594 229.653 36.8767 229.68 36.8995C229.707 36.9224 229.73 36.9503 229.746 36.9819C230.316 37.9819 231.186 39.6919 230.506 40.8119C230.484 40.8449 230.455 40.8719 230.42 40.8907C230.385 40.9094 230.346 40.9192 230.306 40.9192C230.267 40.9192 230.228 40.9094 230.193 40.8907C230.158 40.8719 230.128 40.8449 230.106 40.8119C229.918 40.2464 229.81 39.6573 229.786 39.0619C229.683 38.4437 229.509 37.8396 229.266 37.2619V37.2319ZM220.966 58.3619C220.979 58.2879 221.018 58.221 221.076 58.1728C221.133 58.1246 221.206 58.0982 221.281 58.0982C221.356 58.0982 221.429 58.1246 221.487 58.1728C221.544 58.221 221.583 58.2879 221.596 58.3619C221.621 58.7529 221.563 59.1448 221.426 59.5119C221.404 59.5492 221.373 59.5801 221.335 59.6015C221.297 59.623 221.255 59.6343 221.211 59.6343C221.168 59.6343 221.125 59.623 221.088 59.6015C221.05 59.5801 221.018 59.5492 220.996 59.5119C220.911 59.1299 220.911 58.7338 220.996 58.3519L220.966 58.3619ZM222.606 54.1619C222.6 54.1147 222.612 54.0671 222.64 54.0283C222.667 53.9895 222.708 53.9624 222.755 53.9524C222.801 53.9423 222.85 53.9501 222.891 53.974C222.932 53.998 222.962 54.0365 222.976 54.0819C223.306 55.5019 223.746 57.6119 223.146 58.9819C223.128 59.0325 223.095 59.0763 223.051 59.1072C223.007 59.1382 222.955 59.1548 222.901 59.1548C222.847 59.1548 222.795 59.1382 222.751 59.1072C222.707 59.0763 222.674 59.0325 222.656 58.9819C222.531 58.2606 222.531 57.5232 222.656 56.8019C222.756 55.9347 222.756 55.059 222.656 54.1919L222.606 54.1619ZM223.686 49.6819C223.626 49.4019 224.036 49.3319 224.116 49.5919C224.626 51.3119 225.636 53.9519 224.626 55.6419C224.591 55.6913 224.541 55.7296 224.485 55.7521C224.428 55.7745 224.366 55.7803 224.306 55.7688C224.246 55.7572 224.191 55.7288 224.147 55.6868C224.102 55.6448 224.071 55.5911 224.056 55.5319C223.951 54.6517 223.951 53.7621 224.056 52.8819C224.042 51.806 223.921 50.7341 223.696 49.6819H223.686ZM224.826 44.9919C225.102 46.0136 225.309 47.0526 225.446 48.1019C225.606 49.2719 225.246 50.5719 225.576 51.6819C225.587 51.7368 225.613 51.7873 225.653 51.827C225.692 51.8666 225.743 51.8935 225.797 51.9043C225.852 51.9151 225.909 51.9091 225.961 51.8873C226.012 51.8655 226.056 51.8288 226.086 51.7819C227.256 49.9119 226.166 46.6119 225.216 44.8519C225.106 44.6519 224.756 44.7519 224.826 44.9919ZM226.106 40.9319C226.026 40.6519 226.446 40.5719 226.536 40.8419C227.256 43.0519 228.536 45.9819 227.856 48.3319C227.834 48.4062 227.789 48.4713 227.726 48.5177C227.664 48.564 227.589 48.589 227.511 48.589C227.434 48.589 227.358 48.564 227.296 48.5177C227.234 48.4713 227.188 48.4062 227.166 48.3319C226.936 47.1119 227.076 45.8519 226.886 44.6119C226.696 43.3719 226.416 42.1819 226.106 40.9819V40.9319ZM225.866 35.8219C225.726 35.6119 226.006 35.3419 226.176 35.5519C228.016 37.7219 229.816 41.0219 229.366 43.9819C229.353 44.0608 229.311 44.1323 229.25 44.1839C229.189 44.2355 229.111 44.2638 229.031 44.2638C228.951 44.2638 228.874 44.2355 228.812 44.1839C228.751 44.1323 228.71 44.0608 228.696 43.9819C228.256 42.6419 228.286 41.1819 227.816 39.8219C227.359 38.4027 226.703 37.0559 225.866 35.8219ZM107.956 110.822C107.756 110.732 107.856 110.422 108.066 110.492C110.556 111.412 113.166 112.092 115.726 112.772C117.166 113.162 118.626 113.552 120.096 113.772C121.299 113.849 122.484 114.098 123.616 114.512C123.966 114.682 124.026 115.252 123.566 115.332C122.317 115.416 121.063 115.253 119.876 114.852C118.566 114.562 117.246 114.242 115.946 113.852C113.215 113.003 110.542 111.974 107.946 110.772L107.956 110.822ZM93.4963 106.362C93.3363 106.262 93.4962 106.012 93.6662 106.112C94.5262 106.592 95.3362 107.172 96.1762 107.682C96.9809 108.077 97.7533 108.535 98.4863 109.052C98.5257 109.079 98.555 109.119 98.5698 109.165C98.5845 109.21 98.5839 109.26 98.5681 109.305C98.5522 109.35 98.5219 109.389 98.4819 109.416C98.4418 109.442 98.3942 109.455 98.3463 109.452C97.4213 109.239 96.5713 108.779 95.8863 108.122C95.1063 107.512 94.3363 106.902 93.4963 106.362ZM87.3962 98.4819C87.2962 98.3919 87.3963 98.2319 87.5063 98.3119C89.3763 99.7019 91.1663 101.192 93.0063 102.622C94.4763 103.762 96.5462 104.962 97.5362 106.552C97.6662 106.762 97.4062 107.022 97.1962 106.942C95.4662 106.322 93.8562 104.402 92.5462 103.152C90.8762 101.562 89.1262 100.002 87.3962 98.4819ZM211.776 89.7719C211.786 89.7326 211.808 89.6976 211.84 89.6726C211.872 89.6476 211.911 89.634 211.951 89.634C211.992 89.634 212.031 89.6476 212.063 89.6726C212.094 89.6976 212.117 89.7326 212.126 89.7719C212.046 91.8819 212.126 94.4319 211.066 96.3219C211.043 96.3506 211.012 96.3715 210.976 96.3818C210.94 96.392 210.903 96.391 210.868 96.379C210.833 96.367 210.802 96.3445 210.781 96.3146C210.759 96.2847 210.747 96.2488 210.746 96.2119C210.886 95.1219 211.246 94.0719 211.406 92.9919C211.566 91.9119 211.676 90.8319 211.776 89.7519V89.7719ZM213.846 82.4419C213.854 82.4171 213.869 82.3954 213.889 82.3799C213.91 82.3645 213.935 82.3561 213.961 82.3561C213.987 82.3561 214.012 82.3645 214.033 82.3799C214.054 82.3954 214.069 82.4171 214.076 82.4419C214.076 85.6619 214.256 89.3419 212.906 92.3619C212.892 92.4094 212.86 92.4497 212.817 92.475C212.774 92.5003 212.724 92.5088 212.675 92.4988C212.626 92.4888 212.583 92.4611 212.554 92.421C212.524 92.3809 212.511 92.3313 212.516 92.2819C212.776 88.9919 213.516 85.7019 213.846 82.4219V82.4419ZM216.206 73.8619C216.206 73.6619 216.546 73.6319 216.566 73.8619C216.857 78.0938 216.173 82.3361 214.566 86.2619C214.548 86.2993 214.518 86.3297 214.48 86.3482C214.443 86.3668 214.4 86.3725 214.359 86.3645C214.318 86.3566 214.281 86.3354 214.254 86.3041C214.226 86.2729 214.209 86.2335 214.206 86.1919C214.422 84.2831 214.813 82.3984 215.376 80.5619C215.938 78.3829 216.223 76.142 216.226 73.8919L216.206 73.8619ZM206.146 107.092C206.296 105.592 206.736 103.872 206.416 102.392C206.406 102.343 206.378 102.299 206.339 102.267C206.3 102.236 206.251 102.219 206.201 102.219C206.151 102.219 206.102 102.236 206.063 102.267C206.024 102.299 205.997 102.343 205.986 102.392C205.476 103.822 205.706 105.592 205.666 107.092C205.666 107.156 205.691 107.217 205.737 107.262C205.782 107.307 205.843 107.332 205.906 107.332C205.97 107.332 206.031 107.307 206.076 107.262C206.121 107.217 206.146 107.156 206.146 107.092ZM203.886 113.222C204.416 111.052 205.336 108.222 204.626 106.012C204.566 105.832 204.266 105.752 204.216 106.012C204.059 107.075 203.972 108.147 203.956 109.222C203.846 110.542 203.636 111.852 203.426 113.162C203.426 113.422 203.816 113.512 203.886 113.252V113.222ZM200.306 119.872C201.213 118.491 201.817 116.933 202.076 115.302C202.386 113.862 202.876 111.982 202.446 110.532C202.432 110.497 202.407 110.468 202.376 110.448C202.345 110.427 202.309 110.416 202.271 110.416C202.234 110.416 202.197 110.427 202.166 110.448C202.135 110.468 202.111 110.497 202.096 110.532C201.536 111.762 201.616 113.332 201.396 114.652C201.101 116.388 200.611 118.085 199.936 119.712C199.924 119.759 199.929 119.808 199.949 119.852C199.969 119.896 200.004 119.932 200.048 119.953C200.091 119.974 200.141 119.979 200.188 119.968C200.235 119.957 200.277 119.93 200.306 119.892V119.872ZM192.136 134.482C192.161 134.246 192.161 134.008 192.136 133.772C192.116 133.707 192.075 133.651 192.02 133.61C191.965 133.57 191.899 133.549 191.831 133.549C191.763 133.549 191.697 133.57 191.642 133.61C191.587 133.651 191.547 133.707 191.526 133.772C191.452 133.998 191.409 134.234 191.396 134.472C191.404 134.565 191.445 134.652 191.512 134.718C191.578 134.784 191.666 134.823 191.76 134.829C191.853 134.835 191.945 134.808 192.02 134.751C192.095 134.695 192.147 134.613 192.166 134.522L192.136 134.482ZM189.276 138.812C189.792 138.195 190.165 137.472 190.367 136.693C190.57 135.915 190.597 135.102 190.446 134.312C190.429 134.264 190.397 134.222 190.355 134.192C190.313 134.163 190.263 134.147 190.211 134.147C190.16 134.147 190.11 134.163 190.068 134.192C190.026 134.222 189.994 134.264 189.976 134.312C189.715 134.973 189.524 135.661 189.406 136.362C189.216 137.112 188.946 137.832 188.696 138.562C188.675 138.636 188.681 138.715 188.712 138.785C188.743 138.855 188.797 138.913 188.866 138.947C188.935 138.981 189.013 138.991 189.088 138.973C189.163 138.956 189.23 138.913 189.276 138.852V138.812ZM184.466 145.962C184.419 146.032 184.345 146.081 184.261 146.097C184.178 146.112 184.091 146.095 184.021 146.047C183.951 145.999 183.902 145.925 183.887 145.842C183.871 145.759 183.888 145.672 183.936 145.602C184.854 144.118 185.583 142.526 186.106 140.862C186.384 139.578 186.762 138.317 187.236 137.092C187.276 137.033 187.332 136.988 187.398 136.961C187.463 136.935 187.535 136.928 187.604 136.942C187.674 136.956 187.737 136.989 187.787 137.039C187.838 137.089 187.872 137.153 187.886 137.222C187.913 138.777 187.57 140.315 186.886 141.712C186.281 143.238 185.459 144.67 184.446 145.962H184.466ZM174.686 154.962C174.656 154.975 174.622 154.976 174.591 154.966C174.56 154.955 174.534 154.932 174.519 154.903C174.503 154.874 174.5 154.84 174.509 154.808C174.517 154.776 174.538 154.749 174.566 154.732C176.781 153.123 178.594 151.026 179.866 148.602C180.466 147.542 181.006 146.432 181.556 145.352C181.917 144.355 182.449 143.428 183.126 142.612C183.199 142.549 183.289 142.508 183.385 142.496C183.48 142.484 183.578 142.5 183.664 142.543C183.751 142.586 183.822 142.653 183.871 142.736C183.919 142.82 183.942 142.916 183.936 143.012C183.631 144.242 183.106 145.408 182.386 146.452C181.732 147.654 181.011 148.82 180.226 149.942C178.857 152.072 176.945 153.798 174.686 154.942V154.962ZM117.796 189.642C117.775 189.646 117.754 189.646 117.733 189.641C117.712 189.637 117.692 189.628 117.674 189.616C117.639 189.592 117.614 189.554 117.606 189.512C117.598 189.469 117.608 189.426 117.632 189.39C117.656 189.354 117.694 189.33 117.736 189.322C121.166 188.202 124.656 187.222 128.036 185.982C129.784 185.363 131.494 184.642 133.156 183.822C134.435 183.026 135.773 182.328 137.156 181.732C137.376 181.652 137.576 181.972 137.436 182.152C136.251 183.399 134.798 184.36 133.186 184.962C131.62 185.691 130.014 186.332 128.376 186.882C124.906 188.022 121.376 188.812 117.816 189.642H117.796ZM152.416 179.722C152.206 179.872 151.856 179.622 152.056 179.402C152.456 178.932 152.896 177.982 153.646 178.162C153.796 178.162 153.826 178.392 153.756 178.502C153.606 178.782 153.266 178.952 153.036 179.172C152.806 179.392 152.636 179.552 152.416 179.722ZM146.916 182.192C146.696 182.322 146.466 181.972 146.666 181.822C147.319 181.264 147.928 180.655 148.486 180.002C148.961 179.34 149.623 178.835 150.386 178.552C150.43 178.542 150.476 178.544 150.519 178.558C150.561 178.572 150.6 178.597 150.629 178.631C150.659 178.664 150.679 178.706 150.687 178.75C150.696 178.794 150.692 178.84 150.676 178.882C150.276 179.692 149.669 180.382 148.916 180.882C148.284 181.379 147.616 181.827 146.916 182.222V182.192ZM136.436 185.882C136.383 185.9 136.326 185.898 136.274 185.876C136.223 185.855 136.181 185.815 136.156 185.765C136.132 185.715 136.126 185.657 136.141 185.603C136.156 185.549 136.19 185.503 136.236 185.472C139.298 183.749 142.165 181.701 144.786 179.362C144.872 179.295 144.978 179.259 145.087 179.262C145.195 179.264 145.3 179.304 145.383 179.375C145.465 179.445 145.52 179.543 145.539 179.65C145.558 179.757 145.54 179.867 145.486 179.962C143.556 182.882 139.486 184.542 136.486 185.882H136.436ZM19.0063 162.882C18.8263 162.742 19.0062 162.452 19.2062 162.582C23.7862 165.892 28.1262 169.582 33.3162 171.932C34.1662 172.312 33.7163 173.682 32.8463 173.312C27.4563 171.002 23.4763 166.522 19.0063 162.882ZM96.0063 189.792C95.8263 189.792 95.8063 189.502 96.0063 189.482C98.6263 189.182 100.766 187.632 103.276 187.042C103.586 186.972 103.686 187.392 103.446 187.542C101.2 188.901 98.6488 189.674 96.0262 189.792H96.0063ZM82.4062 188.672C82.3596 188.661 82.3179 188.636 82.288 188.598C82.2581 188.561 82.2418 188.515 82.2418 188.467C82.2418 188.419 82.2581 188.373 82.288 188.335C82.3179 188.298 82.3596 188.272 82.4062 188.262C85.0984 188.447 87.8025 188.357 90.4763 187.992C92.9563 187.682 95.4162 187.072 97.8962 186.802C98.0288 186.775 98.1666 186.803 98.2791 186.878C98.3916 186.953 98.4698 187.069 98.4963 187.202C98.5228 187.334 98.4955 187.472 98.4205 187.585C98.3455 187.697 98.2289 187.775 98.0963 187.802C92.9664 189.13 87.6262 189.443 82.3763 188.722L82.4062 188.672ZM66.6662 187.002C66.6342 186.993 66.6059 186.975 66.5858 186.948C66.5656 186.922 66.5546 186.89 66.5546 186.857C66.5546 186.824 66.5656 186.792 66.5858 186.765C66.6059 186.739 66.6342 186.72 66.6662 186.712C70.0362 186.712 73.4362 186.522 76.7862 186.302L82.1263 185.982C83.714 185.792 85.3185 185.792 86.9062 185.982C86.9726 185.994 87.0327 186.03 87.0759 186.082C87.119 186.134 87.1426 186.199 87.1426 186.267C87.1426 186.334 87.119 186.4 87.0759 186.452C87.0327 186.504 86.9726 186.539 86.9062 186.552C85.2973 186.854 83.6632 187.001 82.0262 186.992C80.2462 187.092 78.4662 187.212 76.6862 187.282C73.3238 187.429 69.9553 187.335 66.6063 187.002H66.6662ZM46.3563 170.582C46.0863 170.332 46.4862 169.882 46.7762 170.102C47.5053 170.654 48.306 171.105 49.1562 171.442C49.8925 171.635 50.6015 171.921 51.2663 172.292C51.31 172.323 51.344 172.365 51.3643 172.414C51.3846 172.464 51.3904 172.518 51.3809 172.571C51.3715 172.623 51.3471 172.672 51.3109 172.711C51.2746 172.75 51.2279 172.778 51.1762 172.792C49.5062 173.032 47.5263 171.632 46.3563 170.582ZM35.6662 168.362C35.3662 168.192 35.6662 167.672 35.9262 167.822C37.7862 168.752 39.7162 169.442 41.6562 170.192C43.1062 170.752 45.3963 171.262 46.3463 172.572C46.3889 172.622 46.416 172.683 46.4244 172.749C46.4328 172.814 46.422 172.88 46.3934 172.94C46.3648 172.999 46.3197 173.049 46.2634 173.083C46.2071 173.117 46.142 173.134 46.0762 173.132C45.1167 172.989 44.1973 172.649 43.3763 172.132L40.8062 170.942C39.0762 170.132 37.3362 169.302 35.6662 168.392V168.362ZM27.4763 165.832C27.3263 165.682 27.5663 165.482 27.7163 165.622C29.7606 167.444 32.0249 169.002 34.4562 170.262C35.6313 170.861 36.84 171.392 38.0762 171.852C39.0938 172.139 40.0714 172.552 40.9863 173.082C41.0557 173.126 41.1081 173.193 41.1353 173.271C41.1626 173.349 41.1631 173.433 41.1367 173.512C41.1102 173.59 41.0584 173.657 40.9894 173.702C40.9205 173.748 40.8385 173.769 40.7563 173.762C38.3763 173.762 35.5462 171.872 33.5662 170.682C31.349 169.315 29.3043 167.687 27.4763 165.832ZM28.4763 110.082C28.7567 109.786 29.0978 109.554 29.4763 109.402C29.7663 109.272 30.2063 109.222 30.3863 108.932C30.4016 108.909 30.4114 108.883 30.4151 108.856C30.4188 108.829 30.4161 108.801 30.4074 108.775C30.3987 108.749 30.3842 108.725 30.3649 108.705C30.3457 108.686 30.3221 108.671 30.2962 108.662C29.9462 108.492 29.4363 108.802 29.1363 108.962C28.7454 109.178 28.4046 109.475 28.1363 109.832C27.9563 110.062 28.3263 110.292 28.5063 110.082H28.4763ZM18.3362 116.482C18.6226 116.054 18.9978 115.692 19.4362 115.422C19.7862 115.212 20.4362 115.112 20.5262 114.692C20.5405 114.641 20.5364 114.587 20.5143 114.54C20.4923 114.492 20.4539 114.454 20.4062 114.432C19.9662 114.242 19.4063 114.732 19.1263 114.972C18.6583 115.306 18.2663 115.735 17.9763 116.232C17.8263 116.472 18.1862 116.722 18.3362 116.482ZM14.0262 122.202C14.7449 121.335 15.5307 120.526 16.3763 119.782C16.9963 119.202 17.9263 118.672 18.2563 117.872C18.2697 117.837 18.2733 117.798 18.2668 117.761C18.2603 117.724 18.244 117.689 18.2194 117.661C18.1949 117.632 18.163 117.61 18.1273 117.598C18.0915 117.586 18.0532 117.584 18.0163 117.592C17.1063 117.842 16.3562 118.852 15.7062 119.502C14.9644 120.265 14.2949 121.095 13.7062 121.982C13.5562 122.202 13.8862 122.402 14.0462 122.202H14.0262ZM47.9262 105.702C49.4862 104.472 51.3262 103.612 52.9262 102.512C53.3062 102.252 53.0363 101.632 52.5863 101.842C50.7791 102.802 49.1272 104.029 47.6862 105.482C47.6672 105.509 47.6578 105.542 47.6595 105.575C47.6612 105.609 47.674 105.64 47.6957 105.666C47.7175 105.691 47.7472 105.708 47.7799 105.715C47.8125 105.721 47.8465 105.717 47.8763 105.702H47.9262ZM75.6163 96.0119C77.2487 96.1214 78.861 96.4338 80.4162 96.9419C80.5227 96.9668 80.6347 96.9511 80.7303 96.8978C80.8259 96.8446 80.8983 96.7577 80.9333 96.6541C80.9683 96.5504 80.9633 96.4374 80.9195 96.3372C80.8757 96.2369 80.7961 96.1566 80.6962 96.1119C79.0432 95.6346 77.305 95.5287 75.6063 95.8019C75.5063 95.8219 75.5163 96.0119 75.6363 96.0219L75.6163 96.0119Z" fill="#5F1516"/>
<path fill-rule="evenodd" clip-rule="evenodd" d="M203.386 65.992C203.287 66.2151 203.143 66.416 202.965 66.5827C202.786 66.7495 202.576 66.8788 202.346 66.9631C202.117 67.0473 201.873 67.0848 201.629 67.0732C201.385 67.0617 201.146 67.0014 200.925 66.8958C200.705 66.7903 200.508 66.6417 200.346 66.4588C200.184 66.2759 200.06 66.0624 199.982 65.8309C199.904 65.5994 199.873 65.3546 199.891 65.1109C199.909 64.8672 199.975 64.6296 200.086 64.412L216.846 29.482C216.39 28.3678 216.195 27.1638 216.277 25.9624C216.358 24.7611 216.714 23.5945 217.316 22.552C218.596 20.112 227.956 2.55202 228.906 1.88202C232.906 -1.20798 240.026 0.0520178 244.356 1.79202C248.356 3.40202 253.256 6.68202 253.246 11.482C253.246 14.412 242.756 35.582 242.726 35.642C242.046 37.012 239.326 38.512 237.906 38.932L222.616 74.832C222.534 75.0688 222.404 75.2862 222.234 75.4706C222.064 75.655 221.858 75.8025 221.629 75.9041C221.4 76.0056 221.152 76.0589 220.901 76.0607C220.65 76.0625 220.402 76.0128 220.171 75.9146C219.941 75.8164 219.733 75.6718 219.56 75.4899C219.387 75.308 219.254 75.0925 219.168 74.8569C219.083 74.6213 219.046 74.3706 219.061 74.1203C219.076 73.8701 219.143 73.6256 219.256 73.402L234.886 36.702C235 36.4129 235.185 36.1574 235.425 35.9597C235.665 35.762 235.951 35.6286 236.256 35.572C237.52 35.3365 238.678 34.7104 239.566 33.782C240.716 31.452 249.566 13.402 249.566 11.472C249.566 8.47202 245.306 6.12202 242.966 5.18202C239.966 3.98202 234.226 2.71202 231.336 4.61202C230.016 7.00202 222.156 21.122 220.516 24.252C219.276 26.612 220.156 28.102 220.316 28.332C220.52 28.6026 220.645 28.9237 220.678 29.2605C220.712 29.5972 220.652 29.9367 220.506 30.242L203.386 65.992Z" fill="#5F1516"/>
</svg>
