<svg width="1438" height="437" viewBox="0 0 1438 437" fill="none" xmlns="http://www.w3.org/2000/svg">
<path d="M0.251647 67.9449C26.2607 76.7055 50.8834 88.934 77.1697 97.2546C103.773 105.679 130.891 112.472 158.299 117.907C214.899 129.114 273.637 133.656 331.359 131.818C447.792 128.104 563.393 102.017 676.236 75.5279C789.896 48.8451 903.848 18.2673 1020.36 5.93521C1137.39 -6.44861 1255.99 -0.923123 1368.13 36.5648C1381.24 40.9515 1394.23 45.6877 1407.04 50.8379C1413.52 53.4518 1419.94 56.234 1426.35 58.9903C1433.22 61.9277 1437.01 62.4453 1437.15 70.2353C1437.71 100.024 1437.15 129.864 1437.15 159.653C1437.15 218.699 1437.15 277.732 1437.15 336.779C1437.15 342.498 1440.12 370.54 1434.95 371.912C1431.63 372.791 1421.11 365.894 1417.81 364.51C1411.13 361.715 1404.33 359.165 1397.56 356.577C1369.77 345.953 1341.8 336.727 1312.84 329.662C1256.8 315.971 1199.31 308.737 1141.57 307.663C1027.45 305.528 914.291 327.721 803.442 352.139C690.547 377.01 578.656 407.86 463.886 423.698C436.464 427.477 409.135 430.686 381.568 433.287C352.496 436.03 323.569 436.47 294.365 436.445C238.307 436.406 181.734 427.982 127.353 415.106C99.5481 408.519 71.7963 400.07 45.312 389.471C31.9378 384.114 18.0487 379.171 5.07058 372.973C-0.184037 370.462 0.000798514 368.547 0.000798514 362.97C0.000798514 355.452 0.000798514 347.933 0.000798514 340.415C0.000798514 280.282 0.000798514 220.148 0.000798514 160.002C0.000798514 131.093 0.000798514 102.185 0.000798514 73.2634C0.000798514 71.6588 0.132824 70.0542 0.238444 67.9449H0.251647ZM905.722 32.5663C905.287 30.3794 905.406 26.9502 902.699 27.4678C900.666 27.856 899.517 31.3369 899.57 33.0192C900.97 33.5756 902.303 34.1061 903.861 34.7273C904.481 34.0156 905.076 33.3427 905.67 32.6568C906.488 33.6403 907.742 33.485 909.432 32.191C910.357 32.4239 911.307 32.6698 912.258 32.9156C912.746 31.2852 912.601 26.3679 910.079 25.9667C907.188 25.5009 906.435 30.5217 905.722 32.5533V32.5663ZM1414.36 63.0406C1414.67 65.2663 1418.89 66.2627 1420.77 67.1814C1420.77 61.9148 1417.94 55.6517 1414.39 62.9888C1413.99 60.776 1413.48 52.326 1408.86 56.5187C1405.27 59.7667 1410.79 64.1664 1414.36 63.0406ZM1415.02 356.629V359.178C1417.11 360.058 1418.81 360.77 1420.85 361.624C1421.19 357.328 1418.38 350.185 1415.01 356.642C1414.39 354.585 1411.5 345.578 1408.5 352.074C1406.57 356.254 1411.76 359.825 1415.04 356.616L1415.02 356.629ZM1429.23 319.258C1429.38 316.644 1429.59 314.716 1429.59 312.8C1429.59 269.36 1429.59 225.932 1429.59 182.492C1429.59 161.244 1429.48 139.983 1429.56 118.735C1429.57 115.164 1430.6 110.609 1428.06 107.697C1425.61 104.915 1419.76 103.699 1416.41 102.301C1406.48 98.1475 1396.45 94.2136 1386.32 90.5386C1317.81 65.6674 1246.14 53.0766 1173.44 48.3145C1154.79 47.0982 1136.09 47.2923 1117.41 47.357C1111.67 47.3828 1105.93 47.3311 1100.18 47.4217C1096.83 47.4864 1090.98 46.7358 1087.86 48.0299C1082.74 50.1521 1084.85 58.8091 1084.85 63.6488C1084.85 102.47 1084.85 141.277 1084.85 180.098C1084.85 198.046 1084.85 215.994 1084.85 233.943C1084.85 239.494 1084.83 245.032 1084.85 250.584C1084.85 252.434 1084.08 256.277 1085.65 257.791C1088.74 260.794 1100.54 258.257 1104.38 258.167C1141.08 257.209 1178.28 258.684 1214.74 262.696C1252.24 266.837 1289.27 273.993 1325.74 283.413C1343.19 287.916 1360.41 293.17 1377.38 299.213C1394.8 305.412 1411.6 313.719 1429.22 319.271L1429.23 319.258ZM726.273 215.554C726.273 237.113 726.273 258.658 726.273 280.217C726.273 290.983 726.089 301.775 726.273 312.542C726.339 315.919 725.666 318.455 728.755 319.931C731.422 321.199 739.819 317.601 742.592 316.941C783.889 307.081 825.372 297.699 867.026 289.417C904.429 281.977 941.831 275.157 979.578 269.632C998.088 266.927 1016.6 264.43 1035.23 262.631C1044.36 261.751 1053.53 261.091 1062.66 260.237C1071.6 259.396 1070.87 257.546 1070.95 248.966C1071.27 211.232 1070.95 173.499 1070.95 135.765C1070.95 116.898 1070.95 98.031 1070.95 79.1641C1070.95 73.4445 1070.98 67.7249 1070.95 62.0183C1070.95 59.4432 1072.06 53.0377 1070.41 50.8379C1067.39 46.7876 1054.71 50.2944 1050.04 50.7344C974.864 57.7998 900.996 71.8788 827.312 87.7953C809.449 91.6515 791.679 95.87 773.882 99.9721C764.68 102.094 755.464 104.191 746.275 106.39C741.918 107.426 730.643 107.879 727.541 111.321C723.976 115.254 726.247 126.215 726.247 131.055C726.247 140.074 726.247 149.093 726.247 158.113C726.247 177.277 726.247 196.442 726.247 215.606L726.273 215.554ZM366.451 281.317C366.451 302.862 366.451 324.421 366.451 345.966C366.451 357.211 365.672 368.767 366.451 379.999C366.979 387.647 371.956 385.356 378.795 384.761C421.413 381.009 463.648 375.043 505.817 368.017C542.771 361.857 579.448 354.157 616.032 346.173C634.067 342.24 652.062 338.125 670.044 333.958C679.549 331.758 689.055 329.571 698.548 327.345C706.073 325.585 710.641 326.465 711.064 318.274C713.044 279.415 711.143 239.986 711.143 201.074C711.143 182.078 711.143 163.095 711.143 144.098C711.143 136.981 713.599 124.934 710.879 118.27C708.82 113.21 703.288 116.549 698.456 117.7C624.046 135.415 549.531 152.095 473.959 164.389C455.357 167.417 436.636 169.655 417.954 172.101C408.448 173.343 398.942 174.301 389.397 175.129C384.499 175.556 371.785 174.262 367.903 177.394C364.035 180.512 366.438 192.404 366.438 196.778C366.438 205.797 366.438 214.817 366.438 223.823C366.438 242.988 366.438 262.139 366.438 281.304L366.451 281.317ZM351.321 283.064C351.321 261.156 351.321 239.248 351.321 217.327C351.321 206.664 351.783 195.885 351.228 185.235C350.806 176.98 346.647 178.882 338.99 179.05C297.679 179.995 256.289 178.895 215.242 173.964C177.984 169.487 141.387 162.693 105.291 152.548C87.5997 147.579 69.9875 142.403 52.745 136.127C43.2128 132.659 33.7861 128.945 24.4123 125.089C20.3327 123.407 16.1739 121.142 11.9491 119.861C7.7507 118.593 7.86952 118.451 6.69449 122.165C4.26522 129.799 6.62848 141.911 6.62848 149.934C6.62848 159.096 6.62848 168.258 6.62848 177.419C6.62848 196.312 6.62848 215.205 6.62848 234.098C6.62848 253.56 6.62848 273.035 6.62848 292.497C6.62848 301.814 5.33463 312.153 6.65489 321.38C7.63187 328.186 16.2795 329.506 22.1943 331.952C90.9136 360.524 164.478 378.265 238.848 384.58C257.86 386.198 276.898 387.44 295.976 387.66C305.455 387.763 314.935 387.712 324.414 387.647C330.249 387.608 343.98 389.963 349.037 386.78C353.446 384.011 351.308 371.601 351.321 366.994C351.321 358.04 351.321 349.085 351.321 340.13C351.321 321.095 351.321 302.073 351.321 283.038V283.064ZM257.569 158.798C257.569 158.798 257.503 158.798 257.464 158.798C257.464 155.395 258.771 148.964 255.853 146.208C253.477 143.956 247.034 144.305 244.01 143.801C234.716 142.261 233.501 146.104 234.399 154.515C235.534 165.062 233.026 171.066 245.912 171.972C257.609 172.8 257.569 169.177 257.569 158.811V158.798ZM1380.54 319.969C1380.54 319.969 1380.57 319.969 1380.58 319.969C1380.58 308.297 1379.64 306.123 1368.38 302.189C1357.45 298.359 1357.86 303.652 1357.87 313.253C1357.87 316.683 1356.84 322.389 1359.03 325.508C1361.2 328.6 1366.69 329.649 1370.07 330.787C1372.82 331.719 1377.15 334.048 1379.54 331.693C1381.9 329.351 1380.54 322.868 1380.54 319.982V319.969ZM1044.32 282.236C1044.32 282.236 1044.32 282.236 1044.31 282.236C1044.31 292.704 1044.02 296.263 1055.72 295.46C1067.07 294.671 1067.15 291.423 1067.14 280.747C1067.14 270.046 1067.14 266.707 1055.6 267.432C1044.34 268.144 1044.32 272.039 1044.32 282.236ZM1358.53 60.9701C1358.53 60.9701 1358.57 60.9701 1358.6 60.9701C1358.6 64.5287 1357.42 70.1836 1359.67 73.3151C1362.12 76.7443 1368.72 78.0124 1372.51 79.2288C1383.48 82.7744 1381.25 73.3022 1381.23 65.0075C1381.21 54.1635 1376.83 51.7437 1366.25 49.078C1357.1 46.7747 1358.52 53.9177 1358.52 60.9701H1358.53ZM1086.74 279.208C1086.74 279.208 1086.76 279.208 1086.77 279.208C1086.77 290.336 1086.35 293.507 1098.56 293.222C1108.51 292.989 1109.35 289.65 1109.49 280.359C1109.54 277.189 1110.76 270.162 1108.71 267.38C1106.4 264.236 1102.06 265.18 1098.47 265.206C1086.61 265.31 1086.76 268.558 1086.76 279.195L1086.74 279.208ZM280.304 159.549C280.304 170.147 280.014 174.042 291.856 174.055C303.25 174.055 302.907 170.561 302.907 160.08C302.907 149.274 302.999 146.078 291.447 146.065C280.146 146.065 280.291 149.274 280.291 159.562L280.304 159.549ZM1110.19 27.2608C1110.19 27.2608 1110.12 27.2608 1110.1 27.2608C1110.1 24.0127 1111.4 17.3744 1108.51 14.8122C1105.86 12.47 1099.47 13.6735 1096.2 13.8029C1085.62 14.217 1087.35 20.4801 1087.38 29.4994C1087.42 40.3822 1088.6 42.2973 1100.01 41.4821C1110.57 40.7316 1110.2 36.746 1110.2 27.2608H1110.19ZM1154.74 278.535C1154.56 275.325 1154.5 272.233 1154.22 269.14C1153.65 262.709 1139.96 263.356 1135.58 264.921C1129.39 267.147 1131.72 277.758 1131.8 283.025C1131.93 293.235 1136.77 292.73 1146.33 292.445C1155.7 292.174 1154.34 286.389 1154.72 278.535H1154.74ZM1067.94 29.5124C1067.81 26.6396 1067.74 23.961 1067.55 21.2824C1066.99 13.5441 1056.47 14.9675 1050.69 16.5333C1043.21 18.552 1044.9 26.1997 1044.93 32.5274C1044.97 42.6338 1046.07 44.8207 1056.76 44.0184C1068.01 43.1773 1067.39 39.8257 1067.94 29.5253V29.5124ZM1245.97 34.0932C1245.97 34.0932 1245.85 34.0932 1245.79 34.0932C1245.79 25.902 1246.4 20.4542 1237.04 19.1731C1227.67 17.892 1223.16 17.0121 1223.01 27.2608C1222.87 35.9048 1220.43 44.6395 1230.87 46.3606C1233.98 46.8652 1241.4 48.7675 1244.08 46.4641C1246.73 44.1866 1245.81 37.173 1245.97 34.1061V34.0932ZM909.419 50.3332C909.419 50.3332 909.419 50.3332 909.406 50.3332C909.406 59.5596 908.389 64.4381 919.176 62.8335C931.217 61.0348 932.154 58.4209 932.22 46.7876C932.273 36.0731 932.022 32.7215 920.562 34.7661C909.525 36.733 909.419 39.9422 909.419 50.3332ZM818.203 320.15H818.19C818.19 329.791 817.635 334.281 828.752 331.991C840.172 329.636 840.766 326.983 840.898 315.867C841.017 305.412 841.175 301.542 829.702 303.898C818.625 306.175 818.203 309.747 818.203 320.15ZM1336.55 53.3742C1336.39 50.4756 1336.3 47.2664 1336.03 44.0831C1335.48 37.6 1324.86 35.9307 1319.58 35.3872C1311.19 34.5202 1313.54 43.3067 1313.56 49.4792C1313.58 53.0377 1312.63 58.3044 1315.38 61.1772C1317.76 63.6358 1324.27 64.3605 1327.5 65.0981C1337.2 67.3108 1336.1 61.2548 1336.55 53.3742ZM976.356 290.44C976.356 290.44 976.383 290.44 976.396 290.44C976.396 287.256 977.822 280.372 974.6 278.172C972.078 276.464 966.705 278.03 963.919 278.418C953.489 279.842 953.714 283.698 953.714 293.468C953.714 304.325 953.872 307.831 965.583 306.059C976.66 304.376 976.383 300.727 976.383 290.44H976.356ZM324.691 408.584C324.691 408.584 324.704 408.584 324.718 408.584C324.718 411.755 323.331 418.289 325.985 420.787C328.573 423.207 334.237 422.249 337.511 422.133C348.667 421.744 347.254 415.818 347.241 406.397C347.241 403.706 348.297 397.792 345.947 395.54C343.571 393.263 336.494 394.259 333.603 394.389C323.912 394.829 324.691 400.406 324.691 408.584ZM1222.35 283.439C1222.35 294.115 1222.41 297.414 1233.75 298.708C1245.31 300.015 1244.88 296.47 1244.87 285.924C1244.87 282.481 1245.9 276.218 1243.5 273.333C1241.24 270.615 1235.59 271.016 1232.37 270.68C1221.47 269.515 1222.36 273.954 1222.36 283.439H1222.35ZM413.967 152.885C413.967 152.885 413.98 152.885 413.993 152.885C413.993 164.725 414.601 167.287 427.249 165.553C430.642 165.087 434.352 165.113 436.108 161.865C437.903 158.566 436.728 151.992 436.715 148.278C436.675 138.327 435.144 136.8 424.978 138.016C413.98 139.336 413.967 142.843 413.967 152.885ZM818.836 69.1354C818.836 69.1354 818.81 69.1354 818.797 69.1354C818.797 78.7371 818.19 83.3568 829.253 81.1699C839.696 79.0994 841.505 77.029 841.624 66.5215C841.65 63.6488 842.892 55.4058 840.568 53.1024C838.02 50.5791 832.99 52.6366 830.045 53.2577C819.14 55.5611 818.836 58.8738 818.836 69.1354ZM459.001 146.958C459.001 146.958 459.04 146.958 459.054 146.958C459.054 150.051 457.575 157.09 460.479 159.342C463.318 161.529 470.157 159.549 473.273 158.993C483.373 157.194 481.854 151.241 481.815 142.235C481.762 131.093 480.085 130.433 468.81 132.025C458.486 133.474 459.001 137.589 459.001 146.958ZM908.746 301.245H908.719C908.719 310.031 907.544 315.764 918.397 313.862C929.223 311.959 931.296 310.381 931.349 299.381C931.362 296.34 932.59 288.408 930.187 285.962C927.599 283.323 922.727 285.212 919.664 285.794C908.587 287.916 908.733 290.841 908.733 301.245H908.746ZM684.514 351.259C684.514 361.378 684.342 365.273 695.657 362.763C706.839 360.278 707.262 357.496 707.222 346.393C707.182 335.536 707.103 332.314 695.67 335.006C684.844 337.568 684.514 340.868 684.514 351.259ZM1404.09 77.896C1404.09 77.896 1404.09 77.896 1404.08 77.896C1404.08 81.4157 1403.12 86.3718 1404.78 89.6198C1406.71 93.3855 1411.87 94.4983 1415.49 96.0123C1417.76 96.9699 1422.46 99.9332 1425.07 98.2639C1427.65 96.6205 1426.33 90.241 1426.33 87.6529C1426.33 83.5379 1427.33 76.9643 1424.98 73.341C1422.96 70.2095 1417.92 68.9025 1414.56 67.4661C1403.5 62.717 1404.09 67.919 1404.09 77.883V77.896ZM458.407 396.459C458.407 396.459 458.367 396.459 458.341 396.459C458.341 406.397 457.813 410.732 469.193 409.102C478.303 407.795 481.062 406.19 481.207 396.925C481.313 389.678 483.571 380.53 474.025 380.763C470.395 380.853 462.605 380.996 459.965 383.946C457.284 386.948 458.407 392.81 458.407 396.459ZM685.161 100.684C685.161 100.684 685.147 100.684 685.134 100.684C685.134 110.337 684.566 115.125 695.736 112.576C707.011 110.001 707.671 107.594 707.843 96.517C708.001 85.9578 708.278 82.1145 696.541 84.6379C685.623 86.993 685.161 90.448 685.161 100.671V100.684ZM1425.64 338.694C1425.64 338.694 1425.55 338.694 1425.51 338.694C1425.51 334.825 1426.92 328.368 1424.19 325.094C1421.85 322.299 1415.91 320.785 1412.52 319.387C1401.45 314.845 1403.38 322.971 1403.42 331.616C1403.43 335.329 1402.56 340.454 1405.2 343.572C1407.6 346.406 1414.18 348.283 1417.57 349.628C1426.91 353.329 1425.63 346.16 1425.63 338.694H1425.64ZM76.2191 372.779C76.2191 368.858 77.3414 363.254 74.516 359.994C72.0207 357.108 64.6801 355.555 61.1286 354.546C50.9231 351.66 53.4843 361.572 53.5372 368.948C53.6164 379.236 56.7454 380.685 66.5285 383.894C76.9585 387.323 76.2191 381.785 76.2191 372.779ZM640.153 111.269C640.153 111.269 640.179 111.269 640.193 111.269C640.193 114.142 638.674 121.44 641.381 123.523C644.285 125.749 650.609 123.252 653.514 122.527C663.733 119.991 662.822 114.763 662.769 105.252C662.756 102.03 663.706 96.4394 660.485 94.3172C657.858 92.5832 652.101 95.0548 649.368 95.7147C639.506 98.0957 640.14 101.991 640.14 111.282L640.153 111.269ZM549.584 131.132C549.584 131.132 549.583 131.132 549.57 131.132C549.57 140.799 548.844 145.302 560.053 143.167C570.589 141.161 572.292 139.207 572.411 128.609C572.53 118.477 573.467 113.081 561.835 115.216C549.98 117.403 549.597 119.822 549.597 131.132H549.584ZM548.95 380.905C548.95 380.905 548.923 380.905 548.91 380.905C548.91 388.397 547.392 394.79 557.017 393.405C566.377 392.06 571.249 391.451 571.513 381.759C571.605 378.097 572.926 369.996 571.183 366.761C569.216 363.112 566.483 364.07 562.641 364.704C559.116 365.286 552.818 365.584 550.349 368.495C547.841 371.446 548.963 377.359 548.963 380.892L548.95 380.905ZM413.32 402.166C413.32 402.166 413.36 402.166 413.373 402.166C413.373 413.152 413.465 416.335 425.321 414.77C436.53 413.294 435.923 409.231 435.989 398.788C436.055 388.617 435.381 386.314 424.661 387.323C413.32 388.384 413.32 391.762 413.32 402.166ZM212.06 403.369C211.902 400.354 211.809 397.469 211.585 394.596C211.083 388.294 197.669 385.706 192.6 387.789C186.632 390.248 188.85 401.402 189.088 406.708C189.484 415.391 195.24 415.533 203.201 416.31C212.786 417.241 211.638 411.328 212.06 403.369ZM279.697 408.468C279.697 419.247 279.182 422.275 290.972 422.43C294.708 422.482 299.593 423.44 301.758 419.842C303.488 416.957 302.313 410.862 302.313 407.601C302.313 397.326 301.468 395.01 290.734 394.958C279.446 394.919 279.697 398.116 279.697 408.468ZM189.748 152.522C189.748 162.913 189.589 165.89 200.706 167.391C212.456 168.969 212.549 165.644 212.549 154.696C212.549 144.163 212.139 141.187 201.234 139.97C189.854 138.702 189.748 142.106 189.748 152.535V152.522ZM77.1169 125.581C77.0245 125.581 76.9189 125.581 76.8265 125.581C76.8265 114.776 76.6416 111.903 65.974 108.228C63.6239 107.413 58.1184 104.527 55.5571 106.326C52.8242 108.241 54.1445 115.487 54.1445 118.257C54.1445 121.712 53.0883 127.496 55.3195 130.628C57.4715 133.63 62.9374 134.678 66.238 135.804C69.0105 136.748 73.2618 139.039 75.6646 136.658C77.8695 134.471 76.9717 128.35 77.1169 125.594V125.581ZM1335.19 305.515C1335.19 305.515 1335.15 305.515 1335.14 305.515C1335.14 301.762 1336.48 295.473 1333.75 292.342C1331.17 289.392 1325.26 288.77 1321.68 287.968C1311.52 285.665 1312.84 291.553 1312.85 300.054C1312.85 310.704 1313.02 313.655 1323.79 316.54C1326.51 317.265 1331.65 319.607 1334.13 317.278C1336.4 315.143 1335.2 308.245 1335.2 305.515H1335.19ZM1267.84 290.246C1267.84 290.246 1267.86 290.246 1267.87 290.246C1267.87 293.597 1266.44 300.171 1268.94 302.94C1271.29 305.554 1277.43 305.877 1280.64 306.473C1290.22 308.245 1289.98 304.273 1290.08 295.668C1290.11 291.98 1291.28 285.005 1289.02 281.783C1287.07 279 1282.56 278.988 1279.46 278.366C1276.95 277.862 1271.43 275.856 1269.04 277.888C1266.4 280.126 1267.84 287.412 1267.84 290.259V290.246ZM999.289 287.153C999.289 295.875 998.101 301.18 1008.68 300.158C1020.11 299.045 1021.63 297.57 1021.68 286.454C1021.73 275.429 1022.68 270.602 1010.21 272.039C998.84 273.346 999.289 276.775 999.289 287.166V287.153ZM1177.95 27.7525C1177.95 35.9566 1176.67 41.7538 1186.36 42.4526C1196.83 43.2161 1200.26 42.9702 1200.31 32.398C1200.32 28.5418 1201.75 20.7777 1199.4 17.4003C1197.27 14.3464 1192.73 14.8899 1189.35 14.6958C1177.79 14.0229 1177.95 17.2968 1177.95 27.7395V27.7525ZM999.923 35.9178C999.923 35.9178 999.923 35.9178 999.909 35.9178C999.909 43.242 998.444 49.4662 1007.73 48.9616C1017.27 48.4439 1022.1 47.8875 1022.29 38.1176C1022.35 34.2614 1023.52 27.1831 1022.09 23.6245C1020.25 19.0696 1016.66 20.1307 1012.13 20.5706C1000.32 21.7094 999.936 25.1644 999.936 35.9048L999.923 35.9178ZM1199.56 280.722C1199.56 280.722 1199.55 280.722 1199.53 280.722C1199.53 270.02 1199.68 266.707 1188.13 266.319C1177.6 265.957 1177.27 268.402 1177.25 278.328C1177.22 288.835 1176.23 293.364 1188.01 294.192C1199.76 295.008 1199.56 291.294 1199.56 280.722ZM368.246 406.138C368.246 412.984 366.543 419.532 375.204 419.7C378.122 419.752 385.463 420.036 388.05 418.121C391.483 415.572 390.559 409.839 390.572 406.151C390.572 403.214 391.839 395.76 389.674 393.082C387.166 389.989 380.855 391.451 377.501 391.71C367.441 392.487 368.26 397.287 368.26 406.138H368.246ZM863.659 310.355C863.659 310.355 863.685 310.355 863.699 310.355C863.699 313.525 862.26 320.629 865.481 322.79C867.99 324.473 873.667 322.519 876.175 321.988C886.975 319.698 886.077 314.599 886.024 304.545C886.011 301.542 887.041 295.448 883.846 293.545C881.205 291.967 874.67 294.322 872.069 294.904C862.563 297.013 863.672 301.814 863.672 310.368L863.659 310.355ZM1290.75 41.9479C1290.75 41.9479 1290.67 41.9479 1290.63 41.9479C1290.63 38.5576 1292 32.3204 1289.51 29.4735C1287.17 26.7949 1281.78 26.6655 1278.44 26.0444C1267.45 23.9869 1268.49 29.2277 1268.49 38.3506C1268.49 41.4045 1267.27 48.004 1269.53 50.7732C1271.87 53.633 1278.52 53.9306 1281.86 54.4741C1291.88 56.0916 1290.74 50.2944 1290.74 41.9609L1290.75 41.9479ZM773.169 330.153C773.169 330.153 773.182 330.153 773.195 330.153C773.195 332.974 771.677 340.376 774.291 342.434C776.879 344.478 781.856 342.55 784.549 341.942C794.57 339.651 795.468 337.439 795.534 327.423C795.547 324.693 796.815 316.437 794.715 314.211C792.471 311.843 788.233 313.409 785.46 313.965C773.776 316.32 773.169 318.947 773.169 330.153ZM325.827 159.653C325.827 159.653 325.866 159.653 325.893 159.653C325.893 162.991 324.348 170.082 327.477 172.463C330.078 174.443 336.574 173.641 339.729 173.343C350.621 172.295 348.007 163.198 348.007 154.593C348.007 151.112 348.733 147.709 345.366 145.858C342.633 144.357 333.933 145.354 331.028 145.975C324.084 147.476 325.827 153.752 325.827 159.653ZM728.769 90.5645C728.769 100.464 728.016 104.851 739.608 102.094C749.853 99.6615 751.107 97.384 751.121 87.1871C751.121 84.2108 752.322 76.6408 750.196 74.2339C747.648 71.3482 742.182 73.7163 739.146 74.4797C728.439 77.1713 728.769 80.3287 728.755 90.5645H728.769ZM504.563 139.88C504.563 139.88 504.576 139.88 504.589 139.88C504.589 150.853 504.536 153.959 516.392 151.694C527.575 149.559 526.941 145.134 526.902 134.717C526.849 124.52 526.334 122.333 515.653 124.08C504.484 125.904 504.563 129.411 504.563 139.88ZM864.372 59.262C864.372 69.3683 863.765 73.6904 875.264 71.3611C884.915 69.4072 886.684 67.8285 886.737 58.188C886.75 55.147 888.282 46.27 885.853 43.8502C883.305 41.3139 879.014 42.8279 875.911 43.4619C872.531 44.1478 867.343 44.3678 865.243 47.4476C863.329 50.2556 864.398 56.1046 864.398 59.2749L864.372 59.262ZM30.7231 355.995C30.7231 355.995 30.7363 355.995 30.7495 355.995C30.7495 345.255 30.129 342.356 19.8574 337.917C17.4018 336.856 12.6356 333.582 9.74428 335.355C7.13018 336.96 8.50324 343.365 8.50324 345.927C8.50324 349.771 7.44704 356.409 9.55945 359.838C11.4474 362.892 16.7152 364.147 19.9499 365.545C30.776 370.203 30.7231 366.14 30.7231 355.995ZM639.493 361.598C639.493 364.471 638.041 371.601 640.76 373.658C643.414 375.664 648.299 373.684 651.032 373.05C661.686 370.605 661.832 367.667 661.845 357.198C661.845 346.316 661.7 342.77 650.029 345.591C639.321 348.166 639.493 351.324 639.493 361.598ZM144.093 392.059C144.093 402.916 143.935 406.138 155.25 408.248C166.577 410.357 166.459 406.669 166.445 396.42C166.445 393.289 167.383 387.233 165.455 384.347C163.356 381.177 157.6 381.203 154.154 380.53C143.262 378.408 144.08 382.484 144.08 392.059H144.093ZM796.128 75.1397H796.141C796.141 66.8709 797.237 61.2419 787.269 63.1311C777.182 65.0463 773.882 65.9651 773.789 76.3949C773.763 79.5264 772.363 88.4811 774.595 91.1597C776.852 93.8643 781.117 92.2079 784.061 91.5479C795.56 88.9728 796.115 86.2813 796.115 75.1397H796.128ZM503.903 389.407C503.903 398.814 502.833 403.305 513.607 401.622C524.485 399.914 526.136 397.831 526.215 387.194C526.228 384.515 527.39 377.321 525.726 374.849C523.363 371.342 518.386 373.206 514.861 373.827C511.428 374.435 506.662 374.551 504.695 377.735C502.82 380.75 503.916 386.081 503.916 389.407H503.903ZM595.093 121.531C595.093 121.531 595.106 121.531 595.119 121.531C595.119 124.261 593.772 131.792 596.307 133.901C598.657 135.855 604.004 133.694 606.526 133.125C610.54 132.232 614.949 131.973 616.784 128.027C618.382 124.61 617.445 119.162 617.445 115.487C617.445 112.602 618.448 106.895 615.451 104.915C612.639 103.052 604.731 105.769 602.09 106.494C593.799 108.797 595.093 113.844 595.093 121.518V121.531ZM31.4097 108.461C31.4097 97.9922 30.8948 94.8089 21.0061 90.5904C11.7379 86.6436 9.21618 86.6307 9.16337 97.0346C9.13697 100.93 8.00155 107.762 9.63866 111.321C11.2758 114.866 15.9363 115.966 19.3161 117.416C21.521 118.373 27.3301 121.983 29.9706 120.249C32.8091 118.386 31.4229 111.088 31.4229 108.461H31.4097ZM728.109 340.971H728.135C728.135 350.845 727.356 355.244 738.446 352.643C748.81 350.224 750.276 348.554 750.394 337.995C750.513 327.837 751.635 322.117 739.832 324.55C728.24 326.931 728.109 330.153 728.109 340.971ZM256.896 407.342C256.896 407.342 256.843 407.342 256.804 407.342C256.804 404.081 258.137 397.261 255.219 394.622C252.526 392.176 245.951 392.642 242.637 392.655C232.656 392.681 234.571 399.565 234.597 407.769C234.623 417.759 235.376 419.933 245.859 420.502C257.292 421.11 256.896 417.552 256.896 407.342ZM1132.91 26.6526C1132.91 37.3671 1132.36 40.6151 1143.96 40.6927C1147.22 40.7186 1151.75 41.4433 1154.05 38.8035C1156.2 36.3319 1155.05 30.0817 1155.08 26.9372C1155.09 23.6763 1156.19 16.8568 1153.67 14.2687C1151.4 11.9395 1145.24 13.1171 1142.29 13.13C1131.62 13.1688 1132.9 17.0768 1132.9 26.6526H1132.91ZM954.902 42.4138C954.902 51.899 953.925 56.6481 964.87 55.0435C967.88 54.6035 973.425 54.5776 975.656 52.0025C977.914 49.3886 976.95 44.0184 976.95 40.8739C976.95 38.1306 978.138 31.0134 976.501 28.4771C974.257 24.9962 969.385 26.5749 965.86 27.0666C962.375 27.5454 957.675 27.5325 955.668 30.7546C953.793 33.7568 954.889 39.1011 954.889 42.4267L954.902 42.4138ZM167.053 148.369C167.053 148.369 167.026 148.369 167.013 148.369C167.013 137.551 167.488 134.924 156.359 132.659C144.78 130.304 144.701 133.449 144.701 144.37C144.701 154.929 144.714 157.944 155.619 160.092C167.053 162.357 167.04 158.786 167.04 148.369H167.053ZM594.446 371.394C594.446 379.831 593.073 385.551 603.173 383.804C614.118 381.901 616.56 380.116 616.666 369.103C616.758 359.075 618.435 353.265 606.658 355.516C603.503 356.124 597.641 356.409 595.449 359.295C593.244 362.206 594.459 368.094 594.459 371.394H594.446ZM368.946 157.142C368.946 167.65 368.563 171.001 380.036 170.173C390.334 169.422 391.179 167.3 391.259 157.362C391.338 147.502 392.83 141.963 381.436 142.558C369.474 143.193 368.959 145.832 368.959 157.142H368.946ZM121.953 138.301C121.953 138.301 121.887 138.301 121.86 138.301C121.86 134.755 123.128 128.971 120.646 125.982C118.243 123.096 112.434 122.462 109.001 121.673C98.4919 119.266 99.6801 124.002 99.6801 133.099C99.6801 144.396 100.103 146.829 111.642 149.753C122.573 152.535 121.953 147.864 121.953 138.301ZM121.213 386.172C121.213 386.172 121.187 386.172 121.161 386.172C121.161 382.548 122.402 376.79 119.801 373.762C117.424 371.006 111.853 370.398 108.499 369.556C97.8317 366.839 99.0068 372.028 99.0332 381.164C99.0332 384.554 97.9901 390.442 100.05 393.405C102.07 396.304 107.654 396.718 110.836 397.585C121.913 400.6 121.2 395.993 121.2 386.172H121.213ZM691.775 372.028C691.115 372.804 690.574 373.426 690.019 374.06C690.151 374.267 690.283 374.474 690.402 374.681C694.561 374.81 698.02 371.743 702.562 372.132C701.07 365.894 699.208 364.07 696 370.786C694.653 367.421 693.729 364.536 690.151 368.146C692.343 368.909 690.692 370.967 691.762 372.028H691.775ZM1108.03 303.069C1109.21 304.739 1110.43 304.532 1111.67 304.221C1114.57 303.496 1117.41 303.703 1120.4 303.703C1121.1 298.049 1117.21 295.525 1114.44 300.921C1113.49 300.08 1112.73 299.407 1111.97 298.721C1112.4 298.204 1112.82 297.686 1113.27 297.143C1108.72 294.865 1107.47 299.071 1110.76 301.801C1109.77 302.254 1109.06 302.591 1108.01 303.069H1108.03ZM389.687 423.44C390.664 423.983 391.338 424.358 392.169 424.811C391.219 426.325 390.387 427.645 389.529 429.017C394.097 431.048 397.239 427.503 401.556 428.797C401.939 427.205 401.556 423.258 399.602 422.598C396.909 421.693 396.328 425.588 395.43 427.555L394.704 427.348C394.942 424.682 392.975 418.302 389.687 423.427V423.44ZM389.621 132.931C390.585 133.487 391.259 133.888 391.839 134.225C391.958 136.386 388.974 136.942 389.608 139.375C393.701 140.152 397.715 137.201 401.517 138.34C401.596 136.257 400.738 131.417 397.992 132.297C396.223 132.866 396.619 137.978 394.031 136.994C394.638 134.212 393.199 128.311 389.608 132.931H389.621ZM1264.4 16.9862C1263.6 13.7252 1259.52 8.16094 1258.2 14.9416C1257.32 19.4966 1264.46 21.6964 1264.4 16.9862ZM1263.59 306.046C1260.46 305.683 1259.22 306.253 1258.53 308.051C1257.57 310.588 1259.74 314.651 1262.83 313.383C1266.46 311.908 1262.94 308.698 1263.59 306.046ZM906.303 326.996C907.703 326.103 908.389 325.417 909.208 325.223C910.515 324.913 911.624 325.792 912.654 324.68C913.327 323.955 912.363 319.555 911.386 318.882C907.122 315.906 906.132 324.058 906.303 326.996ZM186.923 424.837C189.22 422.573 191.161 424.76 193.339 424.98C193.577 422.909 192.956 417.254 189.999 416.866C186.975 416.452 186.738 423.427 186.909 424.85L186.923 424.837ZM192.494 135.441C193.748 134.173 193.088 132.97 192.692 131.87C189.906 124.093 186.725 129.191 186.725 134.937C188.098 134.432 188.943 134.121 189.722 133.837C190.712 134.406 191.583 134.924 192.494 135.454V135.441ZM1107.99 10.0632C1109.21 11.4089 1110.47 11.3442 1111.75 10.6972C1114.71 9.22204 1113 5.26232 1112.57 2.90719C1109.33 3.25658 1106.18 5.26232 1109.9 8.35504C1109.2 8.97617 1108.69 9.44202 1107.97 10.0761L1107.99 10.0632ZM335.319 432.834C335.464 431.036 335.53 429.754 335.663 428.473C336.006 425.368 332.019 423.789 330.276 426.701C331.081 427.296 331.781 427.813 332.586 428.409C330.751 431.695 330.117 434.736 335.319 432.821V432.834ZM1049.88 305.644C1051.47 307.158 1053.09 307.171 1054.48 305.826C1055.86 304.48 1055.65 303.134 1053.66 301.064C1054.22 300.662 1054.66 300.132 1054.94 299.498C1050.3 297.039 1049.47 301.348 1051.77 304.221C1051.15 304.687 1050.53 305.153 1049.88 305.632V305.644ZM903.914 327.138C905.511 325.12 905.881 321.768 904.811 320.099C902.739 316.838 899.636 324.084 899.663 325.585C901.049 326.103 902.395 326.595 903.9 327.151L903.914 327.138ZM542.018 404.521C541.86 404.65 541.688 404.78 541.556 404.935C541.121 405.427 540.685 405.931 540.249 406.423C549.795 409.697 543.339 394.829 540.659 399.927C541.187 401.726 541.596 403.11 542.018 404.534V404.521ZM755.147 357.651C754.857 356.357 754.659 355.141 754.302 353.963C753.286 350.508 748.744 357.328 749.233 358.648C750.46 361.935 754.593 360.123 755.147 357.651ZM1054.81 6.24578C1053.13 5.33996 1051.78 5.4176 1050.88 6.31048C1049.04 8.14799 1050.08 9.77847 1052.14 11.3054C1051.14 11.7842 1050.41 12.1465 1049.46 12.6124C1054.59 15.3687 1055.19 11.3442 1053.79 7.81155C1054.07 7.38452 1054.37 6.90573 1054.81 6.24578ZM753.273 68.7213C755.57 66.6768 754.672 64.451 754.012 62.3418C752.929 58.8738 748.968 65.7062 749.167 67.5049C750.606 67.932 751.952 68.3331 753.273 68.7213ZM689.161 82.2051C690.244 82.7486 690.508 82.9686 690.798 83.0074C695.683 83.7709 697.993 72.7975 689.57 76.2137C692.554 77.2231 690.415 79.4229 692.198 80.5358C691.181 81.0922 690.455 81.4934 689.161 82.2051ZM540.5 109.082C542.15 111.437 542.018 113.52 540.012 115.591C546.653 118.101 546.996 105.122 540.5 109.082ZM1114.48 10.1279H1120.09C1121.48 1.84609 1112.94 3.19188 1114.48 10.1279ZM332.639 138.029C332.203 138.754 331.794 139.323 331.491 139.957C331.121 140.734 330.87 141.562 330.566 142.377C332.005 143.244 333.431 143.296 334.831 142.533C335.029 140.449 334.923 130.951 330.289 136.36C331.108 136.955 331.807 137.447 332.626 138.042L332.639 138.029ZM696.343 81.7522C697.597 81.144 698.376 80.6134 699.234 80.4064C700.066 80.2123 700.977 80.3676 702.403 80.3676C701.703 78.1418 701.36 73.7939 698.416 75.0232C696.383 75.8644 696.172 80.0441 696.343 81.7651V81.7522ZM1097.91 6.91867C1100.49 7.82449 1102.36 8.4715 1104.24 9.11851C1107.02 6.97043 1106.97 6.1552 1104.12 4.51178C1102.22 5.24938 1100.45 5.93521 1097.93 6.91867H1097.91ZM181.034 416.957C181.483 418.82 181.787 420.399 182.262 421.926C184.005 427.516 187.873 412.764 181.034 416.957ZM1404.98 53.9436C1402.48 53.8012 1400.65 53.6977 1398.82 53.5942C1398.76 53.7236 1398.71 53.8659 1398.64 53.9953C1400.62 55.3799 1402.59 56.7775 1404.81 58.3303C1407.54 57.4115 1407.59 56.6869 1404.98 53.9306V53.9436ZM680.104 373.115C682.388 373.387 684.25 373.607 686.718 373.904C687.761 371.976 689.425 369.181 685.477 369.246C685.081 372.144 681.569 370.915 680.104 373.115ZM30.5383 374.952C30.9344 376.984 31.1984 378.809 31.6737 380.569C31.819 381.125 32.5319 381.539 32.9808 382.018C34.7763 379.339 35.1328 374.021 30.5383 374.952ZM326.764 431.191C326.83 431.139 327.292 430.88 327.662 430.531C332.401 426.066 321.985 428.189 320.374 429.185C322.579 429.871 324.348 430.44 326.764 431.191ZM26.2871 377.502C26.8944 377.463 27.9638 377.139 27.9506 375.651C27.9242 371.679 22.0755 372.714 19.765 372.714C22.0227 374.37 23.9238 375.781 26.2739 377.515L26.2871 377.502ZM1045.96 300.585C1043.79 301.594 1041.96 302.448 1039.81 303.458C1042.21 304.092 1044.14 304.609 1046.18 305.153C1048.98 303.018 1048.96 302.396 1045.96 300.585ZM896.085 322.13C893.933 323.23 892.031 324.214 889.602 325.469C892.084 325.896 893.946 326.219 895.966 326.556C899.016 324.356 898.989 323.386 896.085 322.13ZM1399 348.36C1399.08 348.632 1399.08 348.761 1399.13 348.826C1400.17 349.874 1405.54 354.675 1406.65 351.932C1408.36 347.713 1400.94 348.36 1398.98 348.36H1399ZM1254.98 310.238C1257.74 308.608 1257.69 307.767 1254.59 305.67C1254.3 305.787 1249.5 306.77 1249.12 307.327C1251.04 308.271 1252.83 309.177 1254.98 310.238ZM385.106 423.323C384.855 426.713 381.132 424.358 380.01 426.675C382.003 427.153 383.812 427.581 385.898 428.072C388.618 426.261 388.618 425.419 385.106 423.31V423.323ZM536.526 401.584C534.335 402.709 532.513 403.641 530.691 404.573C534.625 407.717 541.279 403.512 536.526 401.584ZM30.3535 86.3201C31.885 88.3776 30.5251 91.2503 32.862 93.1784C34.301 91.2503 34.6179 83.525 30.3535 86.3201ZM1254.71 16.3521C1257.57 14.9934 1257.62 14.1652 1254.94 12.0301C1252.91 12.4312 1251.1 12.7806 1248.74 13.2465C1251.02 14.437 1252.78 15.3557 1254.69 16.3651L1254.71 16.3521ZM171.066 417.28C171.027 417.487 170.974 417.681 170.934 417.888C173.284 418.716 174.42 419.363 176.374 420.683C179.384 419.273 179.41 418.432 176.704 416.31C174.684 416.659 172.875 416.97 171.066 417.28ZM745.787 360.291C748.388 357.884 748.295 356.991 745.589 356.111C743.437 357.328 741.615 358.35 739.291 359.657C741.747 359.89 743.516 360.071 745.787 360.291ZM1045.84 12.0171C1048.53 9.84317 1048.51 9.18322 1045.8 7.73391C1043.9 8.61384 1042.16 9.42908 1040.1 10.3867C1042.18 10.9819 1043.83 11.4478 1045.83 12.0042L1045.84 12.0171ZM1103.67 297.311C1103.27 299.161 1102.04 299.42 1100.59 299.394C1099.88 299.394 1098.9 299.291 1098.82 300.326C1100.76 300.947 1102.53 301.504 1104.54 302.151C1107.35 300.248 1107.34 299.42 1103.68 297.311H1103.67ZM686.296 77.9219C684.104 79.1253 682.216 80.1605 679.919 81.4287C682.322 81.6616 684.236 81.8557 686.296 82.0627C688.58 79.7723 688.58 79.6041 686.296 77.9219ZM379.535 135.791C381.819 137.615 384.406 135.247 385.383 137.939C388.314 135.804 388.314 135.312 385.581 133.526C383.152 134.911 382.136 135.195 379.535 135.791ZM744.849 63.9593C744.599 66.9744 741.219 65.8098 739.595 67.8155C741.733 68.0096 743.582 68.1649 745.655 68.359C748.058 66.1592 748.044 65.7321 744.836 63.9593H744.849ZM176.559 130.796C179.093 129.424 179.093 128.906 176.493 126.94C174.552 127.535 172.585 127.742 170.565 127.574C170.538 127.742 170.512 127.91 170.485 128.078C172.466 128.958 174.433 129.851 176.559 130.796ZM890.091 32.5663C890.13 32.7733 890.17 32.9803 890.196 33.1874C892.15 33.3168 894.091 33.4591 896.362 33.6144C898.527 31.5828 898.448 31.0134 895.662 29.7582C893.418 31.4146 892.546 31.7769 890.091 32.5663ZM320.717 138.78C320.757 138.961 320.796 139.155 320.836 139.336C322.79 139.737 324.744 140.139 326.804 140.566C328.837 138.586 328.744 138.133 326.394 136.891C324.256 137.602 322.486 138.185 320.73 138.767L320.717 138.78ZM536.341 114.698C538.665 112.731 538.678 112.214 536.262 110.881C534.189 111.877 532.262 112.796 529.74 114.012C532.315 114.284 534.163 114.465 536.341 114.698ZM180.981 127.263C181.576 129.502 182.104 131.533 182.751 133.979C184.955 131.844 185.549 125.891 180.981 127.263ZM20.3459 83.6285C20.2403 83.7709 20.1347 83.9132 20.0159 84.0555C22.0491 85.4272 24.0691 86.7989 26.1947 88.2482C28.3995 87.0059 28.3599 86.5012 26.2211 84.5731C23.8182 84.1849 22.0755 83.9132 20.3459 83.6285Z" fill="#914A16"/>
<path d="M257.582 158.786C257.582 169.151 257.622 172.774 245.924 171.946C233.052 171.04 235.547 165.049 234.411 154.49C233.514 146.079 234.728 142.235 244.023 143.775C247.046 144.28 253.489 143.93 255.866 146.182C258.783 148.938 257.476 155.383 257.476 158.773C257.516 158.773 257.542 158.773 257.582 158.773V158.786Z" fill="white"/>
<path d="M1380.55 319.956C1380.55 322.842 1381.91 329.325 1379.55 331.667C1377.16 334.022 1372.83 331.693 1370.08 330.761C1366.72 329.622 1361.21 328.574 1359.05 325.482C1356.87 322.363 1357.9 316.656 1357.88 313.227C1357.87 303.638 1357.46 298.346 1368.39 302.163C1379.64 306.097 1380.59 308.271 1380.59 319.943C1380.59 319.943 1380.57 319.943 1380.55 319.943V319.956Z" fill="white"/>
<path d="M1044.35 282.223C1044.35 272.026 1044.36 268.131 1055.62 267.419C1067.16 266.681 1067.15 270.02 1067.16 280.735C1067.16 291.41 1067.11 294.658 1055.74 295.448C1044.03 296.263 1044.34 292.704 1044.34 282.223C1044.34 282.223 1044.34 282.223 1044.35 282.223Z" fill="white"/>
<path d="M1358.56 60.971C1358.56 53.9186 1357.14 46.7626 1366.29 49.0789C1376.87 51.7446 1381.24 54.1645 1381.27 65.0084C1381.28 73.3031 1383.52 82.7883 1372.55 79.2297C1368.76 78.0004 1362.15 76.7323 1359.71 73.316C1357.46 70.1845 1358.64 64.5296 1358.64 60.971C1358.61 60.971 1358.6 60.971 1358.57 60.971H1358.56Z" fill="white"/>
<path d="M1086.77 279.208C1086.77 268.558 1086.64 265.31 1098.48 265.219C1102.07 265.193 1106.41 264.249 1108.72 267.393C1110.77 270.175 1109.54 277.202 1109.5 280.372C1109.37 289.65 1108.53 293.002 1098.57 293.235C1086.36 293.519 1086.78 290.349 1086.78 279.22C1086.78 279.22 1086.77 279.22 1086.76 279.22L1086.77 279.208Z" fill="white"/>
<path d="M280.304 159.549C280.304 149.262 280.159 146.04 291.46 146.053C303.012 146.053 302.92 149.262 302.92 160.067C302.92 170.549 303.263 174.043 291.869 174.043C280.013 174.043 280.317 170.148 280.304 159.537V159.549Z" fill="white"/>
<path d="M1110.19 27.2603C1110.19 36.7326 1110.56 40.7182 1100 41.4817C1088.59 42.2969 1087.4 40.3818 1087.36 29.499C1087.34 20.4797 1085.61 14.2295 1096.18 13.8025C1099.47 13.6731 1105.85 12.4696 1108.5 14.8118C1111.39 17.361 1110.08 24.0123 1110.08 27.2603C1110.11 27.2603 1110.15 27.2603 1110.18 27.2603H1110.19Z" fill="white"/>
<path d="M1154.72 278.535C1154.33 286.39 1155.7 292.174 1146.33 292.446C1136.77 292.731 1131.94 293.235 1131.8 283.026C1131.74 277.759 1129.39 267.148 1135.58 264.922C1139.96 263.356 1153.65 262.709 1154.22 269.141C1154.49 272.22 1154.56 275.326 1154.74 278.535H1154.72Z" fill="white"/>
<path d="M1067.93 29.499C1067.39 39.7994 1068.01 43.151 1056.75 43.9921C1046.05 44.7944 1044.96 42.6075 1044.92 32.5011C1044.89 26.1863 1043.2 18.5257 1050.67 16.507C1056.46 14.9412 1066.98 13.5307 1067.53 21.2561C1067.72 23.9347 1067.8 26.6263 1067.93 29.4861V29.499Z" fill="white"/>
<path d="M1245.95 34.0808C1245.79 37.1477 1246.72 44.1613 1244.06 46.4388C1241.38 48.7421 1233.96 46.8529 1230.86 46.3353C1220.42 44.6271 1222.86 35.8795 1222.99 27.2354C1223.14 16.9868 1227.65 17.8667 1237.03 19.1478C1246.39 20.4289 1245.78 25.8767 1245.78 34.0679C1245.83 34.0679 1245.9 34.0679 1245.95 34.0679V34.0808Z" fill="white"/>
<path d="M909.406 50.32C909.406 39.929 909.498 36.7198 920.549 34.7529C932.009 32.7083 932.26 36.0598 932.207 46.7744C932.154 58.4076 931.217 61.0216 919.163 62.8203C908.376 64.4378 909.393 59.5593 909.393 50.32C909.393 50.32 909.393 50.32 909.406 50.32Z" fill="white"/>
<path d="M818.19 320.138C818.19 309.734 818.599 306.162 829.689 303.885C841.162 301.53 841.004 305.399 840.885 315.854C840.753 326.97 840.159 329.623 828.738 331.978C817.622 334.268 818.176 329.791 818.176 320.138H818.19Z" fill="white"/>
<path d="M1336.55 53.3746C1336.1 61.2553 1337.19 67.2984 1327.5 65.0985C1324.28 64.3609 1317.76 63.6363 1315.38 61.1776C1312.61 58.3049 1313.58 53.0382 1313.56 49.4796C1313.54 43.3071 1311.19 34.5207 1319.58 35.3877C1324.86 35.9312 1335.48 37.6005 1336.03 44.0835C1336.31 47.2798 1336.4 50.476 1336.55 53.3746Z" fill="white"/>
<path d="M976.357 290.44C976.357 300.727 976.647 304.376 965.557 306.059C953.859 307.832 953.688 304.325 953.688 293.468C953.688 283.698 953.477 279.842 963.893 278.418C966.679 278.043 972.053 276.464 974.574 278.172C977.809 280.359 976.37 287.257 976.37 290.44C976.37 290.44 976.343 290.44 976.33 290.44H976.357Z" fill="white"/>
<path d="M324.692 408.597C324.692 400.419 323.926 394.842 333.604 394.402C336.495 394.273 343.572 393.276 345.948 395.554C348.285 397.805 347.229 403.719 347.242 406.41C347.268 415.818 348.681 421.745 337.512 422.146C334.237 422.262 328.56 423.22 325.986 420.8C323.332 418.303 324.718 411.768 324.718 408.597C324.718 408.597 324.705 408.597 324.692 408.597Z" fill="white"/>
<path d="M1222.35 283.452C1222.35 273.967 1221.46 269.528 1232.35 270.693C1235.57 271.042 1241.23 270.641 1243.48 273.346C1245.89 276.231 1244.84 282.494 1244.86 285.937C1244.86 296.483 1245.29 300.028 1233.74 298.722C1222.4 297.44 1222.33 294.141 1222.33 283.452H1222.35Z" fill="white"/>
<path d="M413.967 152.898C413.967 142.856 413.993 139.336 424.978 138.029C435.13 136.813 436.675 138.34 436.715 148.291C436.715 152.005 437.89 158.578 436.108 161.878C434.352 165.113 430.642 165.1 427.249 165.566C414.601 167.3 413.993 164.738 413.993 152.898C413.993 152.898 413.98 152.898 413.967 152.898Z" fill="white"/>
<path d="M818.836 69.1485C818.836 58.874 819.126 55.5742 830.045 53.2708C832.989 52.6497 838.019 50.5922 840.567 53.1156C842.891 55.4189 841.65 63.6619 841.623 66.5346C841.518 77.0421 839.696 79.1125 829.252 81.183C818.189 83.3828 818.796 78.7631 818.796 69.1485C818.796 69.1485 818.822 69.1485 818.836 69.1485Z" fill="white"/>
<path d="M459.001 146.971C459.001 137.589 458.487 133.487 468.811 132.038C480.086 130.446 481.749 131.119 481.815 142.248C481.855 151.254 483.373 157.207 473.273 159.006C470.171 159.562 463.319 161.542 460.48 159.355C457.562 157.103 459.054 150.064 459.054 146.971C459.041 146.971 459.015 146.971 459.001 146.971Z" fill="white"/>
<path d="M908.759 301.244C908.759 290.84 908.613 287.903 919.69 285.794C922.753 285.211 927.625 283.322 930.213 285.962C932.616 288.408 931.388 296.353 931.374 299.381C931.322 310.38 929.249 311.959 918.423 313.861C907.557 315.763 908.745 310.031 908.745 301.244H908.772H908.759Z" fill="white"/>
<path d="M684.514 351.259C684.514 340.868 684.831 337.568 695.67 335.006C707.103 332.302 707.183 335.537 707.222 346.394C707.262 357.496 706.839 360.279 695.657 362.763C684.355 365.273 684.514 361.378 684.514 351.259Z" fill="white"/>
<path d="M1404.11 77.8959C1404.11 67.919 1403.51 62.7299 1414.58 67.479C1417.93 68.9154 1422.97 70.2223 1424.99 73.3539C1427.33 76.9642 1426.34 83.5508 1426.34 87.6658C1426.34 90.2538 1427.66 96.6205 1425.08 98.2768C1422.47 99.9461 1417.77 96.9698 1415.5 96.0252C1411.88 94.5112 1406.72 93.3983 1404.79 89.6327C1403.13 86.3847 1404.09 81.4286 1404.09 77.9088C1404.09 77.9088 1404.09 77.9088 1404.11 77.9088V77.8959Z" fill="white"/>
<path d="M458.407 396.459C458.407 392.81 457.285 386.948 459.965 383.945C462.605 380.995 470.382 380.853 474.026 380.762C483.571 380.529 481.313 389.678 481.208 396.925C481.063 406.19 478.316 407.794 469.193 409.101C457.813 410.732 458.341 406.397 458.341 396.459C458.367 396.459 458.381 396.459 458.407 396.459Z" fill="white"/>
<path d="M685.16 100.684C685.16 90.448 685.609 87.0059 696.541 84.6508C708.278 82.1145 708.001 85.9707 707.842 96.5299C707.671 107.607 707.01 110.014 695.735 112.589C684.566 115.138 685.134 110.35 685.134 100.697C685.134 100.697 685.147 100.697 685.16 100.697V100.684Z" fill="white"/>
<path d="M1425.65 338.681C1425.65 346.148 1426.93 353.317 1417.6 349.616C1414.21 348.27 1407.63 346.394 1405.23 343.56C1402.59 340.441 1403.47 335.33 1403.45 331.603C1403.41 322.959 1401.47 314.833 1412.54 319.375C1415.94 320.772 1421.88 322.286 1424.21 325.081C1426.95 328.355 1425.53 334.812 1425.53 338.681C1425.57 338.681 1425.63 338.681 1425.67 338.681H1425.65Z" fill="white"/>
<path d="M76.232 372.765C76.232 381.771 76.9581 387.31 66.5413 383.881C56.745 380.671 53.616 379.222 53.55 368.935C53.4972 361.559 50.9359 351.646 61.1415 354.532C64.7062 355.541 72.0336 357.107 74.5289 359.98C77.3542 363.241 76.232 368.844 76.232 372.765Z" fill="white"/>
<path d="M640.153 111.269C640.153 101.978 639.519 98.0828 649.381 95.7018C652.114 95.0418 657.871 92.5702 660.498 94.3042C663.719 96.4264 662.756 102.017 662.782 105.239C662.835 114.75 663.746 119.965 653.527 122.514C650.623 123.239 644.298 125.736 641.394 123.51C638.687 121.44 640.206 114.142 640.206 111.256C640.206 111.256 640.179 111.256 640.166 111.256L640.153 111.269Z" fill="white"/>
<path d="M549.583 131.131C549.583 119.835 549.979 117.402 561.822 115.215C573.453 113.08 572.516 118.463 572.397 128.608C572.278 139.206 570.575 141.16 560.039 143.166C548.83 145.301 549.556 140.798 549.556 131.131C549.556 131.131 549.556 131.131 549.57 131.131H549.583Z" fill="white"/>
<path d="M548.95 380.918C548.95 377.385 547.828 371.471 550.337 368.521C552.806 365.609 559.116 365.312 562.628 364.729C566.483 364.095 569.203 363.138 571.17 366.787C572.913 370.009 571.593 378.123 571.5 381.785C571.236 391.477 566.365 392.085 557.004 393.431C547.379 394.816 548.898 388.423 548.898 380.931C548.898 380.931 548.924 380.931 548.937 380.931L548.95 380.918Z" fill="white"/>
<path d="M413.32 402.167C413.32 391.763 413.32 388.398 424.661 387.324C435.382 386.315 436.068 388.618 435.989 398.789C435.91 409.232 436.53 413.282 425.321 414.77C413.466 416.336 413.373 413.14 413.373 402.167C413.36 402.167 413.334 402.167 413.32 402.167Z" fill="white"/>
<path d="M212.073 403.369C211.664 411.328 212.799 417.241 203.214 416.31C195.253 415.533 189.497 415.391 189.101 406.708C188.863 401.415 186.645 390.248 192.613 387.789C197.683 385.693 211.083 388.294 211.598 394.596C211.836 397.469 211.915 400.367 212.073 403.369Z" fill="white"/>
<path d="M279.709 408.467C279.709 398.115 279.458 394.906 290.747 394.958C301.48 394.996 302.312 397.326 302.325 407.6C302.325 410.861 303.513 416.969 301.771 419.842C299.606 423.439 294.721 422.482 290.984 422.43C279.181 422.274 279.709 419.246 279.696 408.467H279.709Z" fill="white"/>
<path d="M189.761 152.523C189.761 142.093 189.853 138.69 201.247 139.958C212.152 141.174 212.562 144.163 212.562 154.684C212.562 165.644 212.469 168.957 200.719 167.378C189.602 165.89 189.761 162.901 189.761 152.51V152.523Z" fill="white"/>
<path d="M77.1311 125.582C76.9859 128.338 77.8837 134.459 75.6788 136.646C73.276 139.027 69.0248 136.736 66.2522 135.792C62.9516 134.666 57.4725 133.631 55.3337 130.615C53.1025 127.484 54.1587 121.687 54.1587 118.245C54.1587 115.475 52.8516 108.242 55.5713 106.314C58.1458 104.502 63.6513 107.401 65.9882 108.216C76.6558 111.891 76.8407 114.764 76.8407 125.569C76.9331 125.569 77.0387 125.569 77.1311 125.569V125.582Z" fill="white"/>
<path d="M1335.2 305.529C1335.2 308.259 1336.4 315.143 1334.13 317.291C1331.65 319.634 1326.51 317.291 1323.79 316.554C1313.02 313.681 1312.86 310.731 1312.85 300.068C1312.85 291.553 1311.53 285.678 1321.68 287.982C1325.27 288.797 1331.17 289.418 1333.75 292.356C1336.48 295.487 1335.14 301.763 1335.14 305.529C1335.15 305.529 1335.17 305.529 1335.19 305.529H1335.2Z" fill="white"/>
<path d="M1267.87 290.246C1267.87 287.399 1266.43 280.114 1269.07 277.875C1271.46 275.856 1276.98 277.849 1279.49 278.354C1282.59 278.975 1287.11 278.988 1289.05 281.77C1291.3 284.992 1290.14 291.967 1290.1 295.655C1290.01 304.273 1290.25 308.233 1280.66 306.46C1277.45 305.865 1271.3 305.541 1268.96 302.927C1266.47 300.158 1267.9 293.585 1267.9 290.233C1267.9 290.233 1267.88 290.233 1267.87 290.233V290.246Z" fill="white"/>
<path d="M999.316 287.152C999.316 276.761 998.868 273.332 1010.23 272.025C1022.71 270.601 1021.75 275.415 1021.71 286.44C1021.66 297.556 1020.14 299.044 1008.7 300.144C998.128 301.166 999.316 295.861 999.316 287.139V287.152Z" fill="white"/>
<path d="M1177.96 27.7654C1177.96 17.3226 1177.79 14.0358 1189.37 14.7216C1192.75 14.9157 1197.29 14.3722 1199.41 17.4261C1201.76 20.8035 1200.34 28.5677 1200.32 32.4239C1200.27 42.9961 1196.84 43.2419 1186.37 42.4785C1176.68 41.7667 1177.96 35.9695 1177.96 27.7783V27.7654Z" fill="white"/>
<path d="M999.949 35.9306C999.949 25.1902 1000.33 21.7222 1012.15 20.5964C1016.68 20.1564 1020.27 19.0953 1022.1 23.6503C1023.54 27.2089 1022.38 34.2872 1022.3 38.1434C1022.12 47.9133 1017.3 48.4568 1007.74 48.9873C998.457 49.492 999.922 43.2677 999.922 35.9436C999.922 35.9436 999.922 35.9436 999.936 35.9436L999.949 35.9306Z" fill="white"/>
<path d="M1199.59 280.735C1199.59 291.307 1199.8 295.021 1188.03 294.206C1176.26 293.391 1177.25 288.849 1177.27 278.341C1177.3 268.416 1177.63 265.97 1188.15 266.333C1199.69 266.721 1199.56 270.034 1199.56 280.735C1199.56 280.735 1199.57 280.735 1199.59 280.735Z" fill="white"/>
<path d="M368.273 406.152C368.273 397.301 367.454 392.5 377.515 391.724C380.868 391.465 387.179 390.003 389.687 393.095C391.866 395.774 390.598 403.214 390.585 406.165C390.585 409.853 391.509 415.585 388.064 418.135C385.476 420.05 378.135 419.765 375.217 419.713C366.557 419.558 368.26 412.997 368.26 406.152H368.273Z" fill="white"/>
<path d="M863.686 310.368C863.686 301.814 862.59 297.014 872.082 294.904C874.697 294.322 881.232 291.967 883.859 293.546C887.054 295.461 886.024 301.543 886.038 304.545C886.09 314.599 886.988 319.698 876.188 321.988C873.68 322.519 867.99 324.486 865.494 322.791C862.273 320.63 863.712 313.512 863.712 310.355C863.699 310.355 863.686 310.355 863.672 310.355L863.686 310.368Z" fill="white"/>
<path d="M1290.75 41.9476C1290.75 50.2811 1291.88 56.0784 1281.88 54.4608C1278.54 53.9173 1271.88 53.6197 1269.55 50.7599C1267.29 47.9907 1268.5 41.3912 1268.5 38.3373C1268.5 29.2273 1267.46 23.9865 1278.46 26.0311C1281.78 26.6522 1287.18 26.7816 1289.52 29.4603C1292 32.3071 1290.64 38.5443 1290.64 41.9347C1290.68 41.9347 1290.72 41.9347 1290.76 41.9347L1290.75 41.9476Z" fill="white"/>
<path d="M773.156 330.153C773.156 318.96 773.763 316.333 785.447 313.965C788.22 313.409 792.458 311.83 794.702 314.211C796.802 316.424 795.534 324.693 795.521 327.423C795.468 337.439 794.57 339.652 784.536 341.942C781.843 342.563 776.853 344.478 774.278 342.434C771.677 340.376 773.182 332.974 773.182 330.153C773.182 330.153 773.169 330.153 773.156 330.153Z" fill="white"/>
<path d="M325.827 159.652C325.827 153.738 324.084 147.475 331.029 145.974C333.933 145.34 342.634 144.344 345.367 145.858C348.733 147.721 348.007 151.125 348.007 154.593C348.007 163.198 350.621 172.295 339.729 173.343C336.574 173.654 330.078 174.456 327.477 172.463C324.348 170.082 325.893 162.991 325.893 159.652C325.867 159.652 325.853 159.652 325.827 159.652Z" fill="white"/>
<path d="M728.755 90.5771C728.755 80.3285 728.425 77.184 739.132 74.4924C742.169 73.7289 747.635 71.3738 750.183 74.2465C752.308 76.6534 751.107 84.2235 751.107 87.1997C751.081 97.4096 749.839 99.6741 739.594 102.107C728.002 104.863 728.755 100.476 728.755 90.5771Z" fill="white"/>
<path d="M504.549 139.893C504.549 129.425 504.47 125.918 515.639 124.093C526.307 122.359 526.835 124.533 526.888 134.73C526.94 145.147 527.574 149.573 516.378 151.708C504.522 153.972 504.575 150.867 504.575 139.893C504.575 139.893 504.562 139.893 504.549 139.893Z" fill="white"/>
<path d="M864.358 59.2754C864.358 56.105 863.289 50.256 865.203 47.448C867.303 44.3682 872.504 44.1482 875.871 43.4624C878.974 42.8283 883.251 41.3272 885.812 43.8506C888.255 46.2704 886.724 55.1474 886.697 58.1884C886.644 67.8418 884.875 69.4076 875.224 71.3616C863.738 73.6908 864.332 69.3817 864.332 59.2624L864.358 59.2754Z" fill="white"/>
<path d="M30.7238 355.995C30.7238 366.14 30.7766 370.204 19.9506 365.545C16.7159 364.148 11.4481 362.892 9.56014 359.838C7.43453 356.409 8.50394 349.771 8.50394 345.928C8.50394 343.365 7.13087 336.96 9.74498 335.355C12.6363 333.583 17.4025 336.857 19.8581 337.918C30.1297 342.343 30.7502 345.255 30.7502 355.995C30.7502 355.995 30.737 355.995 30.7238 355.995Z" fill="white"/>
<path d="M639.493 361.598C639.493 351.323 639.321 348.179 650.028 345.591C661.713 342.783 661.858 346.316 661.845 357.198C661.845 367.667 661.686 370.604 651.032 373.05C648.299 373.671 643.414 375.664 640.76 373.658C638.041 371.601 639.493 364.471 639.493 361.598Z" fill="white"/>
<path d="M144.094 392.047C144.094 382.471 143.289 378.395 154.168 380.517C157.614 381.19 163.357 381.164 165.469 384.335C167.384 387.22 166.46 393.276 166.46 396.408C166.46 406.657 166.592 410.345 155.264 408.235C143.949 406.139 144.108 402.904 144.108 392.047H144.094Z" fill="white"/>
<path d="M796.128 75.1269C796.128 86.2555 795.573 88.96 784.074 91.5351C781.13 92.1951 776.852 93.8514 774.607 91.1469C772.376 88.4683 773.776 79.5136 773.802 76.382C773.881 65.9651 777.182 65.0464 787.282 63.1183C797.25 61.2161 796.154 66.858 796.154 75.1269H796.141H796.128Z" fill="white"/>
<path d="M503.903 389.408C503.903 386.082 502.807 380.751 504.682 377.735C506.649 374.552 511.429 374.436 514.848 373.828C518.373 373.206 523.364 371.343 525.714 374.85C527.377 377.321 526.216 384.503 526.202 387.195C526.123 397.819 524.473 399.902 513.594 401.623C502.821 403.318 503.89 398.815 503.89 389.408H503.903Z" fill="white"/>
<path d="M595.093 121.531C595.093 113.844 593.799 108.81 602.09 106.507C604.731 105.769 612.639 103.065 615.451 104.928C618.448 106.921 617.445 112.615 617.445 115.501C617.445 119.176 618.382 124.623 616.784 128.04C614.949 131.986 610.54 132.245 606.526 133.138C604.004 133.695 598.644 135.856 596.307 133.915C593.772 131.805 595.119 124.274 595.119 121.544C595.119 121.544 595.106 121.544 595.093 121.544V121.531Z" fill="white"/>
<path d="M31.4105 108.46C31.4105 111.1 32.7836 118.398 29.9582 120.249C27.3177 121.983 21.5086 118.36 19.3038 117.415C15.9371 115.953 11.2634 114.853 9.62631 111.32C7.9892 107.762 9.12462 100.929 9.15102 97.0341C9.20383 86.6302 11.7255 86.6431 20.9937 90.5899C30.8824 94.8084 31.3973 97.9917 31.3973 108.46H31.4105Z" fill="white"/>
<path d="M728.108 340.984C728.108 330.166 728.227 326.957 739.832 324.563C751.635 322.143 750.513 327.85 750.394 338.008C750.275 348.567 748.81 350.224 738.446 352.656C727.356 355.244 728.135 350.858 728.135 340.984H728.108Z" fill="white"/>
<path d="M256.895 407.355C256.895 417.565 257.291 421.123 245.858 420.515C235.375 419.959 234.636 417.785 234.596 407.782C234.57 399.578 232.656 392.681 242.637 392.668C245.95 392.668 252.525 392.189 255.219 394.635C258.136 397.287 256.803 404.094 256.803 407.355C256.829 407.355 256.856 407.355 256.895 407.355Z" fill="white"/>
<path d="M1132.91 26.6529C1132.91 17.0772 1131.63 13.1563 1142.3 13.1304C1145.26 13.1304 1151.4 11.9399 1153.68 14.2691C1156.2 16.8572 1155.11 23.6767 1155.09 26.9376C1155.08 30.0821 1156.21 36.3452 1154.06 38.8038C1151.77 41.4437 1147.24 40.7061 1143.98 40.6931C1132.37 40.6284 1132.93 37.3675 1132.93 26.6529H1132.91Z" fill="white"/>
<path d="M954.914 42.4138C954.914 39.1011 953.818 33.7568 955.693 30.7417C957.7 27.5325 962.4 27.5455 965.885 27.0537C969.41 26.562 974.282 24.9833 976.527 28.4642C978.164 31.0005 976.976 38.1176 976.976 40.861C976.976 44.0055 977.926 49.3757 975.682 51.9896C973.45 54.5776 967.905 54.5906 964.895 55.0306C953.95 56.6481 954.927 51.899 954.927 42.4009L954.914 42.4138Z" fill="white"/>
<path d="M167.053 148.368C167.053 158.798 167.066 162.356 155.632 160.092C144.727 157.931 144.727 154.929 144.714 144.37C144.714 133.435 144.793 130.303 156.372 132.659C167.488 134.923 167.026 137.55 167.026 148.368C167.039 148.368 167.053 148.368 167.066 148.368H167.053Z" fill="white"/>
<path d="M594.446 371.394C594.446 368.094 593.231 362.194 595.436 359.295C597.628 356.409 603.477 356.125 606.645 355.517C618.422 353.265 616.758 359.062 616.653 369.104C616.547 380.129 614.105 381.902 603.16 383.804C593.06 385.564 594.433 379.831 594.433 371.394H594.446Z" fill="white"/>
<path d="M368.946 157.143C368.946 145.833 369.474 143.193 381.423 142.559C392.817 141.951 391.325 147.502 391.245 157.363C391.166 167.301 390.321 169.423 380.023 170.173C368.55 171.002 368.933 167.65 368.933 157.143H368.946Z" fill="white"/>
<path d="M121.953 138.301C121.953 147.864 122.573 152.536 111.642 149.753C100.103 146.829 99.6933 144.396 99.6801 133.099C99.6801 124.002 98.4918 119.266 109.001 121.673C112.434 122.462 118.243 123.096 120.646 125.982C123.128 128.971 121.86 134.756 121.86 138.301C121.887 138.301 121.926 138.301 121.953 138.301Z" fill="white"/>
<path d="M121.213 386.159C121.213 395.967 121.926 400.587 110.849 397.572C107.654 396.705 102.07 396.291 100.063 393.392C98.0033 390.429 99.0595 384.541 99.0463 381.151C99.0199 372.015 97.8448 366.826 108.513 369.543C111.853 370.397 117.437 370.993 119.814 373.749C122.415 376.764 121.174 382.535 121.174 386.159C121.187 386.159 121.2 386.159 121.227 386.159H121.213Z" fill="white"/>
<path d="M691.775 372.015C690.706 370.954 692.356 368.897 690.164 368.133C693.742 364.523 694.666 367.408 696.013 370.773C699.234 364.057 701.083 365.882 702.575 372.119C698.033 371.731 694.574 374.797 690.415 374.668C690.283 374.461 690.151 374.254 690.032 374.047C690.574 373.413 691.115 372.779 691.788 372.015H691.775Z" fill="white"/>
<path d="M1108.03 303.057C1109.07 302.579 1109.78 302.242 1110.77 301.789C1107.47 299.059 1108.74 294.853 1113.28 297.131C1112.83 297.674 1112.41 298.192 1111.99 298.709C1112.75 299.382 1113.52 300.068 1114.46 300.909C1117.24 295.513 1121.11 298.037 1120.41 303.691C1117.41 303.691 1114.59 303.484 1111.68 304.209C1110.44 304.52 1109.23 304.727 1108.04 303.057H1108.03Z" fill="white"/>
<path d="M389.674 423.427C392.961 418.302 394.915 424.682 394.691 427.347L395.417 427.554C396.315 425.588 396.896 421.693 399.589 422.598C401.556 423.258 401.939 427.205 401.543 428.797C397.239 427.516 394.084 431.061 389.516 429.017C390.374 427.645 391.206 426.312 392.156 424.811C391.324 424.358 390.651 423.97 389.674 423.439V423.427Z" fill="white"/>
<path d="M389.609 132.917C393.2 128.311 394.639 134.211 394.031 136.981C396.619 137.951 396.223 132.84 397.992 132.283C400.738 131.403 401.583 136.243 401.517 138.326C397.715 137.188 393.701 140.125 389.609 139.362C388.962 136.929 391.945 136.372 391.84 134.211C391.272 133.875 390.585 133.487 389.622 132.917H389.609Z" fill="white"/>
<path d="M1415.04 356.617C1411.76 359.826 1406.57 356.254 1408.5 352.075C1411.5 345.579 1414.39 354.585 1415.01 356.643L1415.02 356.617H1415.04Z" fill="white"/>
<path d="M1264.4 16.9993C1264.47 21.7095 1257.33 19.5097 1258.2 14.9547C1259.51 8.18697 1263.6 13.7383 1264.4 16.9993Z" fill="white"/>
<path d="M1263.59 306.059C1262.94 308.711 1266.46 311.921 1262.82 313.396C1259.72 314.664 1257.57 310.601 1258.53 308.064C1259.22 306.266 1260.46 305.709 1263.59 306.059Z" fill="white"/>
<path d="M906.304 326.996C906.133 324.072 907.123 315.919 911.387 318.882C912.364 319.555 913.328 323.955 912.655 324.68C911.625 325.793 910.516 324.913 909.209 325.223C908.404 325.417 907.704 326.103 906.304 326.996Z" fill="white"/>
<path d="M186.923 424.85C186.752 423.427 186.976 416.465 190.013 416.866C192.957 417.267 193.591 422.909 193.353 424.98C191.161 424.76 189.234 422.586 186.936 424.837L186.923 424.85Z" fill="white"/>
<path d="M1414.38 63.0281C1410.8 64.1539 1405.29 59.7671 1408.87 56.5062C1413.49 52.3006 1414.01 60.7506 1414.4 62.9763L1414.38 63.0281Z" fill="white"/>
<path d="M905.722 32.5526C906.435 30.508 907.187 25.5001 910.079 25.966C912.587 26.3671 912.732 31.2844 912.257 32.9149C911.306 32.669 910.356 32.4232 909.432 32.1902C907.733 33.4756 906.479 33.6309 905.669 32.6561L905.722 32.5655V32.5526Z" fill="white"/>
<path d="M192.494 135.441C191.583 134.911 190.712 134.406 189.722 133.824C188.943 134.109 188.098 134.419 186.725 134.924C186.725 129.178 189.906 124.067 192.692 131.857C193.088 132.957 193.748 134.16 192.494 135.428V135.441Z" fill="white"/>
<path d="M1107.99 10.0634C1108.69 9.42936 1109.21 8.97645 1109.91 8.34238C1106.19 5.2626 1109.35 3.24392 1112.58 2.89453C1113.02 5.24966 1114.72 9.20938 1111.76 10.6846C1110.48 11.3316 1109.23 11.3963 1108 10.0505L1107.99 10.0634Z" fill="white"/>
<path d="M335.319 432.834C330.117 434.737 330.764 431.696 332.586 428.422C331.78 427.826 331.081 427.309 330.275 426.714C332.018 423.802 336.005 425.381 335.662 428.486C335.53 429.767 335.451 431.049 335.319 432.847V432.834Z" fill="white"/>
<path d="M1049.88 305.645C1050.53 305.166 1051.15 304.7 1051.77 304.234C1049.47 301.361 1050.32 297.052 1054.94 299.511C1054.65 300.145 1054.23 300.675 1053.66 301.077C1055.64 303.147 1055.86 304.493 1054.48 305.839C1053.09 307.184 1051.47 307.172 1049.88 305.657V305.645Z" fill="white"/>
<path d="M903.914 327.138C902.409 326.581 901.062 326.09 899.676 325.572C899.65 324.084 902.739 316.824 904.825 320.085C905.894 321.768 905.525 325.119 903.927 327.125L903.914 327.138Z" fill="white"/>
<path d="M905.67 32.6435C905.076 33.3294 904.481 34.0023 903.861 34.714C902.303 34.0928 900.97 33.5623 899.57 33.0059C899.517 31.3236 900.666 27.8427 902.699 27.4545C905.406 26.9498 905.287 30.366 905.722 32.5529L905.67 32.6435Z" fill="white"/>
<path d="M542.032 404.521C541.609 403.11 541.2 401.713 540.672 399.914C543.352 394.816 549.808 409.684 540.263 406.41C540.698 405.918 541.121 405.414 541.57 404.922C541.702 404.767 541.873 404.65 542.032 404.508V404.521Z" fill="white"/>
<path d="M755.148 357.652C754.593 360.124 750.461 361.923 749.233 358.649C748.744 357.329 753.286 350.509 754.303 353.964C754.646 355.142 754.857 356.345 755.148 357.652Z" fill="white"/>
<path d="M1414.4 62.9751C1417.96 55.638 1420.77 61.8881 1420.78 67.1677C1418.91 66.2619 1414.68 65.2526 1414.38 63.0268L1414.4 62.9751Z" fill="white"/>
<path d="M1054.81 6.24575C1054.38 6.90571 1054.07 7.3845 1053.79 7.81152C1055.19 11.3442 1054.59 15.3686 1049.46 12.6124C1050.41 12.1465 1051.14 11.7971 1052.14 11.3054C1050.08 9.77844 1049.04 8.14797 1050.88 6.31045C1051.78 5.41758 1053.13 5.33994 1054.81 6.24575Z" fill="white"/>
<path d="M1415.02 356.642C1418.4 350.185 1421.2 357.328 1420.86 361.624C1418.83 360.77 1417.12 360.059 1415.04 359.179C1415.04 358.583 1415.04 357.6 1415.04 356.629L1415.02 356.655V356.642Z" fill="white"/>
<path d="M753.259 68.7211C751.938 68.3329 750.592 67.9318 749.153 67.5048C748.955 65.7061 752.915 58.8736 753.998 62.3416C754.658 64.4638 755.556 66.6766 753.259 68.7211Z" fill="white"/>
<path d="M689.147 82.2188C690.441 81.5071 691.167 81.1189 692.184 80.5495C690.402 79.4237 692.541 77.2239 689.557 76.2275C697.98 72.8242 695.67 83.7846 690.785 83.0211C690.494 82.9694 690.23 82.7623 689.147 82.2188Z" fill="white"/>
<path d="M540.488 109.095C546.983 105.136 546.64 118.115 539.999 115.604C542.019 113.547 542.138 111.45 540.488 109.095Z" fill="white"/>
<path d="M1114.48 10.1279C1112.92 3.19195 1121.46 1.84616 1120.09 10.1279H1114.48Z" fill="white"/>
<path d="M332.64 138.03C331.821 137.435 331.121 136.943 330.303 136.348C334.937 130.926 335.042 140.437 334.844 142.52C333.445 143.284 332.019 143.232 330.58 142.365C330.884 141.563 331.148 140.735 331.504 139.945C331.795 139.311 332.217 138.742 332.653 138.017L332.64 138.03Z" fill="white"/>
<path d="M696.343 81.7515C696.172 80.0305 696.383 75.8637 698.416 75.0097C701.347 73.7933 701.69 78.1412 702.403 80.354C700.977 80.354 700.053 80.1987 699.234 80.3928C698.376 80.5999 697.597 81.1304 696.343 81.7386V81.7515Z" fill="white"/>
<path d="M1097.91 6.91861C1100.43 5.93515 1102.2 5.24931 1104.1 4.51172C1106.97 6.15513 1107.02 6.98331 1104.22 9.11845C1102.35 8.4585 1100.49 7.81148 1097.9 6.91861H1097.91Z" fill="white"/>
<path d="M181.035 416.957C187.887 412.751 184.006 427.503 182.263 421.926C181.788 420.399 181.484 418.82 181.035 416.957Z" fill="white"/>
<path d="M1404.98 53.9439C1407.59 56.7001 1407.55 57.4248 1404.81 58.3436C1402.59 56.7907 1400.62 55.3932 1398.64 54.0086C1398.71 53.8792 1398.76 53.7368 1398.83 53.6074C1400.66 53.7109 1402.5 53.8145 1404.98 53.9568V53.9439Z" fill="white"/>
<path d="M680.117 373.114C681.583 370.915 685.095 372.144 685.491 369.245C689.438 369.181 687.775 371.976 686.732 373.904C684.263 373.606 682.401 373.386 680.117 373.114Z" fill="white"/>
<path d="M30.5518 374.952C35.1462 374.02 34.7898 379.339 32.9942 382.017C32.5453 381.539 31.8456 381.124 31.6872 380.568C31.2119 378.795 30.9478 376.984 30.5518 374.952Z" fill="white"/>
<path d="M326.778 431.203C324.362 430.44 322.593 429.883 320.388 429.197C322.012 428.201 332.428 426.079 327.675 430.543C327.306 430.893 326.844 431.151 326.778 431.203Z" fill="white"/>
<path d="M26.2872 377.514C23.9371 375.78 22.036 374.383 19.7783 372.713C22.0756 372.713 27.9243 371.678 27.9639 375.651C27.9639 377.152 26.9077 377.462 26.3004 377.501L26.2872 377.514Z" fill="white"/>
<path d="M1045.96 300.598C1048.97 302.409 1048.98 303.03 1046.19 305.166C1044.14 304.622 1042.21 304.104 1039.81 303.47C1041.96 302.461 1043.8 301.607 1045.96 300.598Z" fill="white"/>
<path d="M896.098 322.144C899.002 323.399 899.029 324.369 895.979 326.569C893.959 326.22 892.097 325.909 889.615 325.482C892.045 324.227 893.946 323.256 896.098 322.144Z" fill="white"/>
<path d="M1399.01 348.374C1400.96 348.374 1408.38 347.727 1406.68 351.945C1405.57 354.675 1400.2 349.888 1399.15 348.839C1399.09 348.775 1399.1 348.645 1399.02 348.374H1399.01Z" fill="white"/>
<path d="M1255 310.252C1252.84 309.19 1251.05 308.285 1249.13 307.34C1249.52 306.771 1254.31 305.8 1254.6 305.684C1257.7 307.78 1257.76 308.634 1255 310.252Z" fill="white"/>
<path d="M385.107 423.336C388.619 425.445 388.619 426.286 385.899 428.098C383.826 427.606 382.004 427.166 380.011 426.7C381.12 424.371 384.843 426.739 385.107 423.349V423.336Z" fill="white"/>
<path d="M536.527 401.597C541.28 403.525 534.626 407.73 530.691 404.586C532.513 403.654 534.335 402.722 536.527 401.597Z" fill="white"/>
<path d="M30.3525 86.3203C34.617 83.5252 34.3001 91.2376 32.861 93.1786C30.5242 91.2635 31.884 88.3778 30.3525 86.3203Z" fill="white"/>
<path d="M1254.71 16.3399C1252.78 15.3305 1251.04 14.4247 1248.75 13.2213C1251.1 12.7554 1252.92 12.406 1254.96 12.0049C1257.64 14.14 1257.58 14.9811 1254.72 16.3269L1254.71 16.3399Z" fill="white"/>
<path d="M171.067 417.28C172.875 416.97 174.684 416.659 176.704 416.31C179.411 418.432 179.384 419.286 176.374 420.683C174.42 419.363 173.285 418.716 170.935 417.888C170.974 417.681 171.027 417.487 171.067 417.28Z" fill="white"/>
<path d="M745.787 360.291C743.529 360.071 741.747 359.903 739.291 359.657C741.615 358.35 743.437 357.328 745.589 356.111C748.295 356.991 748.388 357.884 745.787 360.291Z" fill="white"/>
<path d="M1045.84 12.0174C1043.85 11.448 1042.18 10.9821 1040.11 10.3998C1042.16 9.44224 1043.91 8.62701 1045.81 7.74707C1048.52 9.19638 1048.55 9.85633 1045.85 12.0303L1045.84 12.0174Z" fill="white"/>
<path d="M1103.67 297.312C1107.33 299.421 1107.34 300.249 1104.53 302.151C1102.52 301.517 1100.75 300.948 1098.81 300.327C1098.9 299.291 1099.87 299.382 1100.58 299.395C1102.04 299.408 1103.27 299.149 1103.65 297.312H1103.67Z" fill="white"/>
<path d="M686.296 77.9082C688.58 79.5775 688.58 79.7587 686.296 82.0491C684.249 81.842 682.322 81.6479 679.919 81.415C682.216 80.1598 684.104 79.1116 686.296 77.9082Z" fill="white"/>
<path d="M379.535 135.791C382.136 135.196 383.153 134.911 385.582 133.526C388.315 135.312 388.315 135.804 385.384 137.939C384.407 135.247 381.819 137.615 379.535 135.791Z" fill="white"/>
<path d="M744.849 63.959C748.057 65.7318 748.057 66.1588 745.667 68.3587C743.595 68.1775 741.746 68.0093 739.607 67.8152C741.218 65.7965 744.598 66.9741 744.862 63.959H744.849Z" fill="white"/>
<path d="M176.559 130.796C174.433 129.838 172.453 128.958 170.485 128.078C170.512 127.91 170.538 127.742 170.565 127.574C172.585 127.742 174.565 127.535 176.493 126.939C179.093 128.906 179.093 129.437 176.559 130.796Z" fill="white"/>
<path d="M890.091 32.5659C892.546 31.7894 893.418 31.4142 895.662 29.7578C898.461 31.013 898.527 31.5824 896.362 33.614C894.091 33.4587 892.137 33.3164 890.196 33.187C890.157 32.9799 890.117 32.7729 890.091 32.5659Z" fill="white"/>
<path d="M320.716 138.779C322.485 138.196 324.241 137.614 326.38 136.902C328.743 138.145 328.823 138.598 326.79 140.577C324.73 140.15 322.776 139.749 320.822 139.348C320.782 139.167 320.743 138.973 320.703 138.792L320.716 138.779Z" fill="white"/>
<path d="M536.341 114.698C534.162 114.478 532.301 114.284 529.739 114.012C532.274 112.796 534.189 111.877 536.261 110.881C538.677 112.214 538.664 112.731 536.341 114.698Z" fill="white"/>
<path d="M180.982 127.25C185.551 125.878 184.943 131.831 182.752 133.966C182.105 131.52 181.577 129.488 180.982 127.25Z" fill="white"/>
<path d="M20.3457 83.6279C22.0884 83.9126 23.818 84.1844 26.2208 84.5726C28.3728 86.5007 28.4124 87.0053 26.1944 88.2476C24.0688 86.7983 22.0356 85.4266 20.0156 84.055C20.1212 83.9126 20.2269 83.7703 20.3457 83.6279Z" fill="white"/>
</svg>
